<svg xmlns="http://www.w3.org/2000/svg" viewBox="0 0 650.1 226.5" style="enable-background:new 0 0 650.1 226.5" xml:space="preserve"><path d="M7.1 0h44.7c14.4 0 25.7 3.1 33.8 9.3 8.1 6.2 12.2 15.3 12.2 27.5s-4.1 21-12.2 26.8c-8 5.8-19.2 8.7-33.8 8.7H42V101c0 1.1-.4 2.1-1.2 2.9-.8.7-1.8 1.1-2.8 1.1H7.1c-1.1 0-2.1-.4-2.9-1.2-.8-.8-1.2-1.7-1.2-2.8V4c0-1 .4-2 1.2-2.8C5 .4 5.9 0 7.1 0zm34.1 27.9v16.6h10.5c1.8 0 3.4-.6 4.8-2s2.1-3.3 2.1-5.8-.6-4.6-1.7-6.3-2.8-2.6-5.2-2.6H41.2zm105 46.4h41.6c1.1 0 2 .4 2.8 1.2.8.8 1.2 1.8 1.2 2.9V101c0 1.1-.4 2.1-1.2 2.9-.8.8-1.8 1.2-2.8 1.2h-75.6c-1.1 0-2.1-.4-2.8-1.2-.8-.8-1.2-1.8-1.2-2.9V4c0-1.1.4-2 1.2-2.8.8-.8 1.8-1.2 2.8-1.2h30c1.1 0 2.1.4 2.9 1.2.8.8 1.2 1.8 1.2 2.8v70.3zM234.5 0H267c3.6 0 5.9 1.6 6.8 4.9l33.5 95.7c.1.3.1.8.1 1.5 0 .6-.4 1.2-1.1 1.9-.6.6-1.3.9-2.2.9h-27.8c-3 0-4.9-1.2-5.8-3.8l-3.6-9.9h-32.2l-3.6 9.9c-.9 2.5-2.8 3.8-5.8 3.8h-27.8c-.9 0-1.7-.3-2.4-.9-.6-.7-.9-1.3-.9-1.9 0-.7.1-1.2.1-1.5l33.4-95.7c.9-3.3 3.2-4.9 6.8-4.9zm7.8 62.1h17l-8.6-27.9-8.4 27.9zM374.9 105h-29.4c-1.1 0-2-.4-2.8-1.2-.8-.8-1.2-1.8-1.2-2.9V71.4L307.7 4.7c-.2-.4-.3-1-.3-1.7s.3-1.4.9-2c.7-.7 1.5-1.1 2.4-1.1h28.2c3 0 5.1 1.2 6.3 3.8l15 30.2 15-30.2c1.2-2.5 3.3-3.8 6.3-3.8h28.2c.9 0 1.6.4 2.2 1.1.7.6 1 1.2 1 2s-.1 1.2-.3 1.7l-33.8 66.8V101c0 1.1-.4 2.1-1.2 2.9-.7.7-1.6 1.1-2.7 1.1zM56.8 161.7H98c1.1 0 2.1.4 2.8 1.2.8.8 1.2 1.8 1.2 2.9v19.5c0 13.2-4.7 23.4-14.1 30.6-9.4 7.1-22 10.6-37.7 10.6-15.6 0-27.9-3.4-36.9-10.4S-.2 198.7-.2 184.8v-25.2c0-13.3 4.6-23.5 13.8-30.5 9.2-7.1 21.5-10.6 36.8-10.6 15.4 0 27.9 3.2 37.4 9.7 9.5 6.4 14.2 14.3 14.2 23.7 0 .9-.3 1.7-1.1 2.4-.6.6-1.3.9-2.2.9h-33c-2 0-3.4-.6-4.3-1.6-2-2.6-3.5-4.1-4.5-4.5-2.3-.9-4.4-1.4-6.3-1.4-7.7 0-11.5 3.8-11.5 11.2v25.5c0 8.5 4.1 12.8 12.3 12.8 8.4 0 12.6-3.6 12.6-10.8h-7.1c-1.1 0-2-.4-2.8-1.2s-1.2-1.8-1.2-2.9v-16.6c0-1.1.4-2.1 1.2-2.9.7-.7 1.7-1.1 2.7-1.1zm154.8 58.4c.3.6.4 1.2.4 1.9s-.3 1.4-1 2.1c-.6.6-1.4.9-2.2.9H178c-3.1 0-5.2-1.4-6.5-4.1l-12.9-28.6h-6.1v28.6c0 1.1-.4 2.1-1.2 2.9-.8.8-1.8 1.2-2.8 1.2H119c-1.1 0-2.1-.4-2.9-1.2-.8-.8-1.2-1.8-1.2-2.9V124c0-1.1.4-2.1 1.2-2.9.8-.8 1.8-1.2 2.9-1.2h44.4c14.4 0 25.6 3.2 33.8 9.7 8.1 6.4 12.1 15.6 12.1 27.8 0 12-5.4 21.4-16.2 28.4l18.5 34.3zm-59.1-72.2v15.9h10.9c2.2 0 3.9-.7 5.1-2.1 1.2-1.5 1.8-3.3 1.8-5.6 0-2.2-.6-4.1-1.8-5.7-1.1-1.7-2.8-2.6-5.1-2.6h-10.9zm80.7-18.3c9.2-7.4 21.3-11.1 36.4-11.1s27.2 3.8 36.3 11.2c9.2 7.4 13.8 17.9 13.8 31.4v23.4c0 13.7-4.6 24.1-13.6 31.4-9 7.1-21.2 10.6-36.5 10.6s-27.5-3.6-36.6-10.6c-9-7.2-13.5-17.7-13.5-31.4v-23.4c.1-13.6 4.6-24.1 13.7-31.5zm28.4 64.6c2 2 4.7 3 8.1 3s6.1-1 8.1-3 3-5.1 3-9.1v-25.2c0-4-1-7-3-9-2-2.1-4.7-3.1-8.1-3.1s-6.1 1.1-8.1 3.1-3 5-3 9v25.2c0 4.1 1 7.1 3 9.1zM394.7 120h29.4c1.1 0 2.1.4 2.9 1.2.8.8 1.2 1.8 1.2 2.9v60.3c0 14-4.4 24.5-13.1 31.6-8.7 7-20.5 10.5-35.5 10.5-14.9 0-26.8-3.5-35.5-10.5S331 198.4 331 184.4v-60.3c0-1.1.4-2.1 1.2-2.9.8-.8 1.8-1.2 2.9-1.2h29.4c1.1 0 2 .4 2.9 1.2.8.8 1.2 1.8 1.2 2.9v60.7c0 7.7 3.7 11.6 11.1 11.6s11.1-3.9 11.1-11.6v-60.7c0-1.1.4-2.1 1.2-2.9.7-.8 1.6-1.2 2.7-1.2zm111 0h27.1c1.1 0 2.1.4 2.9 1.2s1.2 1.8 1.2 2.9V221c0 1.1-.4 2.1-1.2 2.9s-1.8 1.2-2.9 1.2h-23.7c-2.6 0-4.6-1.1-6.1-3.4l-25.4-38.2v37.6c0 1.1-.4 2.1-1.2 2.9-.8.8-1.8 1.2-2.9 1.2h-27.1c-1.1 0-2.1-.4-2.9-1.2s-1.2-1.8-1.2-2.9v-96.9c0-1.1.4-2.1 1.2-2.9s1.8-1.2 2.9-1.2h23.7c2.8 0 4.9 1.1 6.2 3.4l25.3 41.5v-40.9c0-1.1.4-2.1 1.2-2.9s1.8-1.2 2.9-1.2zm51 0h43.2c14.6 0 26.6 3.6 36 10.9 9.5 7.2 14.2 17.3 14.2 30.3v22.4c0 13.6-4.6 23.9-13.8 30.9-9.2 7-21.3 10.5-36.3 10.5h-43.3c-1.1 0-2-.4-2.8-1.2-.8-.8-1.2-1.8-1.2-2.9V124c0-1.1.4-2.1 1.2-2.9.7-.7 1.7-1.1 2.8-1.1zm33.4 29.2v46.5h9.8c3.4 0 6.1-1 8.1-3 2.1-2.1 3.2-5.1 3.2-9.1v-22.4c0-8-3.8-12-11.2-12h-9.9z" style="fill:#1e1e1e"/></svg>