<?xml version="1.0" encoding="utf-8"?>
<!-- Generator: Adobe Illustrator 25.4.6, SVG Export Plug-In . SVG Version: 6.00 Build 0)  -->
<svg version="1.1" id="Layer_1" xmlns="http://www.w3.org/2000/svg" xmlns:xlink="http://www.w3.org/1999/xlink" x="0px" y="0px"
	 viewBox="0 0 650.1 226.5" style="enable-background:new 0 0 650.1 226.5;" xml:space="preserve">
<style type="text/css">
	.st0{fill:#1E1E1E;}
</style>
<path class="st0" d="M7.1,0h44.7c14.4,0,25.7,3.1,33.8,9.3c8.1,6.2,12.2,15.3,12.2,27.5s-4.1,21-12.2,26.8c-8,5.8-19.2,8.7-33.8,8.7
	H42V101c0,1.1-0.4,2.1-1.2,2.9C40,104.6,39,105,38,105H7.1c-1.1,0-2.1-0.4-2.9-1.2C3.4,103,3,102.1,3,101V4C3,3,3.4,2,4.2,1.2
	C5,0.4,5.9,0,7.1,0z M41.2,27.9v16.6h10.5c1.8,0,3.4-0.6,4.8-2c1.4-1.4,2.1-3.3,2.1-5.8s-0.6-4.6-1.7-6.3s-2.8-2.6-5.2-2.6H41.2z
	 M146.2,74.3h41.6c1.1,0,2,0.4,2.8,1.2c0.8,0.8,1.2,1.8,1.2,2.9V101c0,1.1-0.4,2.1-1.2,2.9c-0.8,0.8-1.8,1.2-2.8,1.2h-75.6
	c-1.1,0-2.1-0.4-2.8-1.2c-0.8-0.8-1.2-1.8-1.2-2.9V4c0-1.1,0.4-2,1.2-2.8c0.8-0.8,1.8-1.2,2.8-1.2h30c1.1,0,2.1,0.4,2.9,1.2
	c0.8,0.8,1.2,1.8,1.2,2.8V74.3z M234.5,0H267c3.6,0,5.9,1.6,6.8,4.9l33.5,95.7c0.1,0.3,0.1,0.8,0.1,1.5c0,0.6-0.4,1.2-1.1,1.9
	c-0.6,0.6-1.3,0.9-2.2,0.9h-27.8c-3,0-4.9-1.2-5.8-3.8l-3.6-9.9h-32.2l-3.6,9.9c-0.9,2.5-2.8,3.8-5.8,3.8h-27.8
	c-0.9,0-1.7-0.3-2.4-0.9c-0.6-0.7-0.9-1.3-0.9-1.9c0-0.7,0.1-1.2,0.1-1.5l33.4-95.7C228.6,1.6,230.9,0,234.5,0z M242.3,62.1h17
	l-8.6-27.9L242.3,62.1z M374.9,105h-29.4c-1.1,0-2-0.4-2.8-1.2c-0.8-0.8-1.2-1.8-1.2-2.9V71.4L307.7,4.7c-0.2-0.4-0.3-1-0.3-1.7
	s0.3-1.4,0.9-2c0.7-0.7,1.5-1.1,2.4-1.1h28.2c3,0,5.1,1.2,6.3,3.8l15,30.2l15-30.2c1.2-2.5,3.3-3.8,6.3-3.8h28.2
	c0.9,0,1.6,0.4,2.2,1.1c0.7,0.6,1,1.2,1,2s-0.1,1.2-0.3,1.7l-33.8,66.8V101c0,1.1-0.4,2.1-1.2,2.9C376.9,104.6,376,105,374.9,105z
	 M56.8,161.7h41.2c1.1,0,2.1,0.4,2.8,1.2c0.8,0.8,1.2,1.8,1.2,2.9v19.5c0,13.2-4.7,23.4-14.1,30.6c-9.4,7.1-22,10.6-37.7,10.6
	c-15.6,0-27.9-3.4-36.9-10.4c-9-7-13.5-17.4-13.5-31.3v-25.2c0-13.3,4.6-23.5,13.8-30.5c9.2-7.1,21.5-10.6,36.8-10.6
	c15.4,0,27.9,3.2,37.4,9.7c9.5,6.4,14.2,14.3,14.2,23.7c0,0.9-0.3,1.7-1.1,2.4c-0.6,0.6-1.3,0.9-2.2,0.9H65.7c-2,0-3.4-0.6-4.3-1.6
	c-2-2.6-3.5-4.1-4.5-4.5c-2.3-0.9-4.4-1.4-6.3-1.4c-7.7,0-11.5,3.8-11.5,11.2v25.5c0,8.5,4.1,12.8,12.3,12.8
	c8.4,0,12.6-3.6,12.6-10.8h-7.1c-1.1,0-2-0.4-2.8-1.2s-1.2-1.8-1.2-2.9v-16.6c0-1.1,0.4-2.1,1.2-2.9
	C54.8,162.1,55.8,161.7,56.8,161.7z M211.6,220.1c0.3,0.6,0.4,1.2,0.4,1.9s-0.3,1.4-1,2.1c-0.6,0.6-1.4,0.9-2.2,0.9H178
	c-3.1,0-5.2-1.4-6.5-4.1l-12.9-28.6h-6.1v28.6c0,1.1-0.4,2.1-1.2,2.9c-0.8,0.8-1.8,1.2-2.8,1.2H119c-1.1,0-2.1-0.4-2.9-1.2
	c-0.8-0.8-1.2-1.8-1.2-2.9v-96.9c0-1.1,0.4-2.1,1.2-2.9c0.8-0.8,1.8-1.2,2.9-1.2h44.4c14.4,0,25.6,3.2,33.8,9.7
	c8.1,6.4,12.1,15.6,12.1,27.8c0,12-5.4,21.4-16.2,28.4L211.6,220.1z M152.5,147.9v15.9h10.9c2.2,0,3.9-0.7,5.1-2.1
	c1.2-1.5,1.8-3.3,1.8-5.6c0-2.2-0.6-4.1-1.8-5.7c-1.1-1.7-2.8-2.6-5.1-2.6H152.5z M233.2,129.6c9.2-7.4,21.3-11.1,36.4-11.1
	s27.2,3.8,36.3,11.2c9.2,7.4,13.8,17.9,13.8,31.4v23.4c0,13.7-4.6,24.1-13.6,31.4c-9,7.1-21.2,10.6-36.5,10.6s-27.5-3.6-36.6-10.6
	c-9-7.2-13.5-17.7-13.5-31.4v-23.4C219.6,147.5,224.1,137,233.2,129.6z M261.6,194.2c2,2,4.7,3,8.1,3s6.1-1,8.1-3s3-5.1,3-9.1v-25.2
	c0-4-1-7-3-9c-2-2.1-4.7-3.1-8.1-3.1s-6.1,1.1-8.1,3.1c-2,2-3,5-3,9v25.2C258.6,189.2,259.6,192.2,261.6,194.2z M394.7,120h29.4
	c1.1,0,2.1,0.4,2.9,1.2c0.8,0.8,1.2,1.8,1.2,2.9v60.3c0,14-4.4,24.5-13.1,31.6c-8.7,7-20.5,10.5-35.5,10.5
	c-14.9,0-26.8-3.5-35.5-10.5c-8.7-7-13.1-17.6-13.1-31.6v-60.3c0-1.1,0.4-2.1,1.2-2.9c0.8-0.8,1.8-1.2,2.9-1.2h29.4
	c1.1,0,2,0.4,2.9,1.2c0.8,0.8,1.2,1.8,1.2,2.9v60.7c0,7.7,3.7,11.6,11.1,11.6s11.1-3.9,11.1-11.6v-60.7c0-1.1,0.4-2.1,1.2-2.9
	C392.7,120.4,393.6,120,394.7,120z M505.7,120h27.1c1.1,0,2.1,0.4,2.9,1.2s1.2,1.8,1.2,2.9v96.9c0,1.1-0.4,2.1-1.2,2.9
	s-1.8,1.2-2.9,1.2h-23.7c-2.6,0-4.6-1.1-6.1-3.4l-25.4-38.2v37.6c0,1.1-0.4,2.1-1.2,2.9c-0.8,0.8-1.8,1.2-2.9,1.2h-27.1
	c-1.1,0-2.1-0.4-2.9-1.2s-1.2-1.8-1.2-2.9v-96.9c0-1.1,0.4-2.1,1.2-2.9s1.8-1.2,2.9-1.2h23.7c2.8,0,4.9,1.1,6.2,3.4l25.3,41.5v-40.9
	c0-1.1,0.4-2.1,1.2-2.9S504.6,120,505.7,120z M556.7,120h43.2c14.6,0,26.6,3.6,36,10.9c9.5,7.2,14.2,17.3,14.2,30.3v22.4
	c0,13.6-4.6,23.9-13.8,30.9c-9.2,7-21.3,10.5-36.3,10.5h-43.3c-1.1,0-2-0.4-2.8-1.2c-0.8-0.8-1.2-1.8-1.2-2.9v-96.9
	c0-1.1,0.4-2.1,1.2-2.9C554.6,120.4,555.6,120,556.7,120z M590.1,149.2v46.5h9.8c3.4,0,6.1-1,8.1-3c2.1-2.1,3.2-5.1,3.2-9.1v-22.4
	c0-8-3.8-12-11.2-12H590.1z"/>
</svg>
