<?xml version="1.0" standalone="no"?>
<!DOCTYPE svg PUBLIC "-//W3C//DTD SVG 20010904//EN"
 "http://www.w3.org/TR/2001/REC-SVG-20010904/DTD/svg10.dtd">
<svg version="1.0" xmlns="http://www.w3.org/2000/svg"
 width="260.000000pt" height="260.000000pt" viewBox="0 0 260.000000 260.000000"
 preserveAspectRatio="xMidYMid meet">
<metadata>
Created by potrace 1.14, written by Peter Selinger 2001-2017
</metadata>
<g transform="translate(0.000000,260.000000) scale(0.100000,-0.100000)"
fill="#000000" stroke="none">
<path d="M1136 2569 c-548 -76 -975 -478 -1093 -1029 -25 -118 -25 -372 0
-490 99 -465 418 -827 858 -974 140 -47 232 -61 404 -61 172 0 264 14 404 61
440 147 759 509 858 974 13 62 18 129 18 245 0 116 -5 183 -18 245 -111 522
-497 908 -1012 1015 -96 20 -323 28 -419 14z m450 -634 c161 -28 250 -87 299
-197 24 -53 29 -77 29 -148 1 -100 -8 -121 -83 -196 l-51 -50 37 -25 c45 -29
98 -105 114 -162 6 -24 9 -77 6 -124 -10 -174 -99 -276 -284 -330 -49 -14
-123 -17 -459 -21 -363 -3 -403 -2 -418 13 -14 15 -16 73 -16 620 0 535 2 605
16 619 23 23 678 23 810 1z"/>
<path d="M1220 1560 l0 -80 94 0 c87 0 96 2 110 22 22 31 20 80 -5 112 -19 25
-25 26 -110 26 l-89 0 0 -80z"/>
<path d="M1268 1173 l-48 -4 0 -90 0 -91 101 4 c93 3 102 5 119 28 26 34 31
69 15 107 -22 52 -43 57 -187 46z"/>
</g>
</svg>
