<svg xmlns="http://www.w3.org/2000/svg" width="63.125" height="80.781" viewBox="0 0 63.125 80.781">
  <defs>
    <style>
      .cls-1 {
        fill: #3e50ef;
        fill-rule: evenodd;
      }
    </style>
  </defs>
  <path id="lightning" class="cls-1" d="M833.648,93.2a2.869,2.869,0,0,0-2.6-1.658H805.223a2.886,2.886,0,0,0-2.19,4.749L816.254,112H796.613a2.868,2.868,0,0,0-2.652,1.784,2.9,2.9,0,0,0,.628,3.146l57.395,54.552a2.857,2.857,0,0,0,3.724.28,2.894,2.894,0,0,0,.845-3.657L835.78,128H845.4a2.867,2.867,0,0,0,2.423-1.339A2.9,2.9,0,0,0,848,123.89Zm-4.419,4.112,11.651,24.916h-9.829a2.865,2.865,0,0,0-2.453,1.388,2.9,2.9,0,0,0-.092,2.829l14.411,27.825-39.352-36.5h18.877a2.869,2.869,0,0,0,2.6-1.671,2.9,2.9,0,0,0-.412-3.078L811.411,97.316h17.818Z" transform="translate(-793.75 -91.531)"/>
</svg>
