<?xml version="1.0" encoding="utf-8"?>
<!-- Generator: Adobe Illustrator 25.4.6, SVG Export Plug-In . SVG Version: 6.00 Build 0)  -->
<svg version="1.1" id="Layer_1" xmlns="http://www.w3.org/2000/svg" xmlns:xlink="http://www.w3.org/1999/xlink" x="0px" y="0px"
	 viewBox="0 0 116 111.9" style="enable-background:new 0 0 116 111.9;" xml:space="preserve">
<style type="text/css">
	.st0{fill-rule:evenodd;clip-rule:evenodd;fill:#7E84FF;}
</style>
<path id="moon" class="st0" d="M115.2,81.9c1.6,2.3,0.6,3.8-0.4,5.3c-4,6.2-9.7,11.1-16.3,14.3c-9.2,4.3-18.6,8.5-28.7,9.9
	c-5.3,0.6-10.7,0.6-16-0.1c-5-0.6-10-1.6-14.9-2.9C22,104.1,11.7,92.7,5.4,77.1C2.8,70.9,0.3,64.7,0,57.8
	c-0.4-15.4,3.2-29.5,13.4-41.3c4.4-5,9.7-9,14.7-13.4c1-1.1,2.1-2,3.3-2.7c1.1-0.3,2.3-0.4,3.4-0.4c0.2,1,0.2,2,0,3
	c-1.5,3.3-3.5,6.5-4.6,9.9l0,0c-2.2,6-4.1,12.1-5.5,18.3c-1.4,6.6-1.2,13.4,0.5,19.9c1.2,4.3,1.8,8.9,3.5,12.9l0,0
	c3.5,8.5,9.9,15.4,18.1,19.6c3.3,1.6,6.4,3.6,9.6,5.2c8.2,4.1,16.7,4.5,25.6,2.6c4.8-1,9.7-1.5,14.6-2.6l0,0
	c2.5-0.6,4.8-1.4,7.1-2.6C107.3,84.6,110.9,82.6,115.2,81.9L115.2,81.9L115.2,81.9z M27.7,8.4c-1,0.6-2,1.2-2.9,1.9
	c-2.5,2.4-5.1,4.8-7.5,7.3l0,0C10.2,25.1,5.5,34.6,4.1,44.7C2.6,54.8,2.7,64.8,7.6,74.2c0.6,1.1,0.8,2.4,1.3,3.6l0,0
	C12.8,87.7,20,96,29.4,101c7.3,3.9,15.3,5.3,23.3,6.6l0,0c8.8,1.5,17.9,0.8,26.3-2.2c3.1-1.1,6.3-2.2,9.4-3.4
	c6.7-2.6,13.6-5.3,18.6-11c0.6-0.8,1.2-1.7,1.7-2.6c-2.5,1-5,1.9-7.5,2.6c-2.7,0.6-5.6,0.6-8.3,1.1c-5.1,1-10.2,2.2-15.3,3.2
	c-2.1,0.4-4.3,0.6-6.5,0.5c-9-0.3-17.1-3.7-24.5-8.4C36.6,81.4,28.2,73.7,24.6,62c-0.9-2.9-1.5-5.8-2.3-8.8
	c-2.7-8.5-2.3-17.1-0.4-25.6C23.2,21.5,25.5,15.5,27.7,8.4L27.7,8.4L27.7,8.4z"/>
</svg>
