<?xml version="1.0" encoding="utf-8"?>
<!-- Generator: Adobe Illustrator 25.4.6, SVG Export Plug-In . SVG Version: 6.00 Build 0)  -->
<svg version="1.1" id="Layer_1" xmlns="http://www.w3.org/2000/svg" xmlns:xlink="http://www.w3.org/1999/xlink" x="0px" y="0px"
	 viewBox="0 0 116 111.9" style="enable-background:new 0 0 116 111.9;" xml:space="preserve">
<style type="text/css">
	.st0{fill:#7E84FF;}
</style>
<path class="st0" d="M64.1,110.9c-34.6,0-62.8-26.5-62.8-59.1C1.4,31,12.7,12.1,31.7,1.2c1.4-0.8,3.2-0.6,4.4,0.4
	c1.2,1,1.6,2.7,0.8,4.1c-3.9,7.6-5.9,15.8-5.9,24.1c0,30.6,26.4,55.4,58.9,55.4c6.7,0,13.5-1.1,20-3.4c1.6-0.5,3.3,0,4.3,1.2
	c1,1.2,1,3,0,4.2C102.2,102.3,83.9,110.9,64.1,110.9L64.1,110.9z M25.8,14.3C15,24,8.8,37.4,8.8,51.8c0,28.7,24.8,52.1,55.3,52.1
	c13.3,0,25.8-4.4,35.7-12.3c-3.3,0.5-6.5,0.7-9.8,0.7c-36.6,0-66.3-28-66.3-62.4C23.7,24.6,24.4,19.4,25.8,14.3L25.8,14.3z"/>
</svg>
