<?xml version="1.0" encoding="utf-8"?>
<!-- Generator: Adobe Illustrator 25.4.6, SVG Export Plug-In . SVG Version: 6.00 Build 0)  -->
<svg version="1.1" id="Layer_1" xmlns="http://www.w3.org/2000/svg" xmlns:xlink="http://www.w3.org/1999/xlink" x="0px" y="0px"
	 viewBox="0 0 504 493.9" style="enable-background:new 0 0 504 493.9;" xml:space="preserve">
<style type="text/css">
	.st0{fill-rule:evenodd;clip-rule:evenodd;}
	.st1{fill:#FFFFFF;}
</style>
<g>
	<path class="st0" d="M399.9,443.5c-8.7,0-15.8-7.1-15.8-15.8l-1.3-59.9l-37.6-28c-20.8,42-47.9,80-101.1,80
		c-52.8,0-73.6-40.6-93.6-79.8c-0.3-0.6-0.6-1.2-1-1.9l-29.7,29.3v60.3c0,8.7-7.1,15.8-15.8,15.8s-15.8-7.1-15.8-15.8V366
		c0-4.8,3.2-20.1,10.6-23.5l39.8-49c-2.4-8.9-4.1-23.5-3.1-34.2H67.4c-8.7,0-15.8-7.1-15.8-15.8c0-8.7,7.1-15.8,15.8-15.8h68.7
		c0.2-11.9,1.2-17.5,3-22.2c-7.1-9-41.7-52.5-49.4-61.8l-0.8-1V70.6c0-8.7,7.1-15.8,15.8-15.8s15.8,7.1,15.8,15.8v60.5l30.3,38
		c7.7-12.7,24.9-26.1,30.3-30.2c-0.7-9.1-2.1-45.8,18.7-69.1c11.4-12.8,27.6-19.4,48-19.4s36.5,6.5,48,19.4
		c20.6,23.2,19.4,59.4,18.7,68.9c5.3,3.4,19.7,13.7,27.1,31.6l42.3-39.6V70.6c0-8.7,7.1-15.8,15.8-15.8s15.8,7.1,15.8,15.8v71.5
		l-0.6,0.9c-10.8,16.5-54.6,57.4-64,66c1.9,5.5,2,7.8,2,11.1c0,1.7,0,3.7,0.5,7.2h83.6c8.7,0,15.8,7.1,15.8,15.8
		c-0.1,8.7-7.2,15.8-15.8,15.8h-81.2c-0.1,3.4,0.1,8.5,0.2,13.5c0.3,11.1,0.4,19.2-0.2,23.8l48.8,46.3c7.8,3,11.3,18.1,11.3,23.6
		v61.7C415.6,436.4,408.5,443.5,399.9,443.5z"/>
	<path class="st1" d="M247.6,54c73.1,0,63,86.7,63,86.7s21.9,11.8,29.3,35.9l47.3-44.2V70.6c0-7,5.7-12.3,12.3-12.3
		c7,0,12.3,5.7,12.3,12.3V141c-11.8,18-65.2,67-65.2,67c4.4,11.8,1.3,9.2,3.5,22.7h86.7c7,0,12.3,5.7,12.3,12.3
		c-0.1,7-5.8,12.3-12.3,12.3h-84.5c-0.9,7,1.3,35.5-0.5,42l50.8,48.1c5.7,1.3,9.6,14.5,9.6,20.6v61.7c0,7-5.7,12.3-12.3,12.3
		c-7,0-12.3-5.7-12.3-12.3l-1.3-61.7l-42.4-31.5c-20.6,42.4-46.4,81.8-99.8,81.8c-53.4,0-72.7-43.3-93.6-84L116.4,366v61.7
		c0,7-5.7,12.3-12.3,12.3c-7,0-12.3-5.7-12.3-12.3V366c0-5.7,3.9-19.2,9.2-20.6l41.6-51.2c-3-9.6-4.8-28-3-38.5H67.4
		c-7,0-12.3-5.7-12.3-12.3c0-7,5.7-12.3,12.3-12.3h72.2c0-16.2,1.3-21.4,3.5-26.3c0,0-42-53-50.8-63.4V70.6c0-7,5.7-12.3,12.3-12.3
		c7,0,12.3,5.7,12.3,12.3v61.7l34.5,43.3c5.7-15.3,33.3-35,33.3-35S174.6,54,247.6,54 M247.6,47c-21.4,0-38.5,6.9-50.6,20.5
		c-20.4,22.9-20.4,57.8-19.7,69.8c-6.1,4.7-18.9,15-26.9,25.9l-26.6-33.3V70.6c0-10.6-8.6-19.3-19.3-19.3S85.3,60,85.3,70.6v70.9
		v2.5l1.6,1.9c7.4,8.8,39,48.6,48.2,60.2c-1.4,4.2-2.2,9.3-2.4,18H67.4c-10.6,0-19.3,8.6-19.3,19.3s8.6,19.3,19.3,19.3h64.5
		c-0.3,9.9,1,21.7,3,29.9l-38.2,47.1c-9,4.9-11.9,21.5-11.9,26.3v61.7c0,10.6,8.6,19.3,19.3,19.3s19.3-8.6,19.3-19.3v-58.8
		l25.3-24.9c9.6,18.8,19.7,38,33.6,52.7c16.9,17.9,37.1,26.6,61.9,26.6c53.5,0,81.3-36.7,102.3-78.2l32.9,24.4l1.3,58.2
		c0,10.6,8.7,19.2,19.3,19.2c10.6,0,19.3-8.6,19.3-19.3V366c0-5.7-3.2-22.3-12.9-26.6l-47.1-44.6c0.4-5,0.3-12.4,0-22.6
		c-0.1-3.3-0.2-6.9-0.2-9.9h77.7c10.5,0,19.2-8.6,19.3-19.2l0,0v0c0-10.6-8.6-19.3-19.3-19.3h-80.5c-0.1-1.5-0.1-2.6-0.1-3.7
		c0-3.1-0.1-5.5-1.5-10c12.1-11.2,52.4-49.2,62.9-65.2l1.1-1.7V141V70.6c0-10.6-8.6-19.3-19.3-19.3s-19.3,8.6-19.3,19.3v58.7
		l-37.6,35.2c-7.3-14.4-18.6-23.4-24.6-27.5c0.7-12.3,0.5-46.7-19.7-69.4C286.1,53.9,269.1,47,247.6,47L247.6,47z"/>
</g>
</svg>
