<svg width="565" height="158" fill="none" xmlns="http://www.w3.org/2000/svg"><path d="M6.56.778h112.638c1.639 0 3.055.596 4.247 1.788 1.192 1.192 1.788 2.607 1.788 4.246v33.97c0 1.64-.596 3.055-1.788 4.247-1.192 1.191-2.608 1.787-4.247 1.787H55.281v16.539h59.448c1.639 0 3.054.596 4.246 1.787 1.192 1.192 1.788 2.608 1.788 4.247v33.746c0 1.639-.596 3.055-1.788 4.247-1.192 1.191-2.607 1.787-4.246 1.787H55.281v42.016c0 1.639-.596 3.054-1.788 4.246-1.192 1.192-2.607 1.788-4.246 1.788H6.56c-1.64 0-3.054-.596-4.246-1.788-1.192-1.192-1.788-2.607-1.788-4.246V6.812c0-1.639.596-3.054 1.788-4.246C3.507 1.374 4.922.778 6.56.778ZM281.47 149.844c.447.894.671 1.863.671 2.905 0 1.043-.522 2.086-1.564 3.129-.894.894-2.012 1.341-3.353 1.341h-45.815c-4.618 0-7.822-2.011-9.61-6.034l-19.22-42.686h-9.163v42.686c0 1.639-.595 3.054-1.787 4.246-1.192 1.192-2.608 1.788-4.247 1.788h-43.803c-1.639 0-3.055-.596-4.246-1.788-1.192-1.192-1.788-2.607-1.788-4.246V6.812c0-1.639.596-3.054 1.788-4.246 1.191-1.192 2.607-1.788 4.246-1.788h66.152c21.455 0 38.216 4.842 50.285 14.527 12.068 9.535 18.102 23.317 18.102 41.345 0 17.879-8.045 31.959-24.136 42.239l27.488 50.955ZM193.415 42.347v23.69h16.315c3.278 0 5.811-1.044 7.599-3.13 1.788-2.234 2.681-4.99 2.681-8.268 0-3.278-.893-6.11-2.681-8.493-1.639-2.533-4.172-3.8-7.599-3.8h-16.315Zm152.461 71.292h68.834c1.639 0 3.054.596 4.246 1.788 1.192 1.192 1.788 2.607 1.788 4.246v31.512c0 1.639-.596 3.054-1.788 4.246-1.192 1.192-2.607 1.788-4.246 1.788H298.273c-1.639 0-3.054-.596-4.246-1.788-1.192-1.192-1.788-2.607-1.788-4.246V6.812c0-1.639.596-3.054 1.788-4.246 1.192-1.192 2.607-1.788 4.246-1.788h114.649c1.639 0 3.054.596 4.246 1.788 1.192 1.192 1.788 2.607 1.788 4.246v31.512c0 1.639-.596 3.054-1.788 4.246-1.192 1.192-2.607 1.788-4.246 1.788h-67.046v14.08h62.129c1.639 0 3.055.596 4.246 1.788 1.192 1.192 1.788 2.607 1.788 4.246v29.053c0 1.64-.596 3.055-1.788 4.247-1.191 1.191-2.607 1.787-4.246 1.787h-62.129v14.08Zm144.219 0h68.834c1.639 0 3.054.596 4.246 1.788 1.192 1.192 1.788 2.607 1.788 4.246v31.512c0 1.639-.596 3.054-1.788 4.246-1.192 1.192-2.607 1.788-4.246 1.788H442.492c-1.639 0-3.054-.596-4.246-1.788-1.192-1.192-1.788-2.607-1.788-4.246V6.812c0-1.639.596-3.054 1.788-4.246 1.192-1.192 2.607-1.788 4.246-1.788h114.649c1.639 0 3.054.596 4.246 1.788 1.192 1.192 1.788 2.607 1.788 4.246v31.512c0 1.639-.596 3.054-1.788 4.246-1.192 1.192-2.607 1.788-4.246 1.788h-67.046v14.08h62.129c1.639 0 3.055.596 4.247 1.788 1.192 1.192 1.788 2.607 1.788 4.246v29.053c0 1.64-.596 3.055-1.788 4.247-1.192 1.191-2.608 1.787-4.247 1.787h-62.129v14.08Z" fill="#1E1E1E"/></svg>