<svg width="327" height="187" fill="none" xmlns="http://www.w3.org/2000/svg"><path d="M38.562.442h14.996c.56 0 1.045.204 1.453.612.409.408.613.893.613 1.454v49.426c0 .561-.204 1.046-.613 1.454a1.986 1.986 0 0 1-1.453.612H38.562a1.986 1.986 0 0 1-1.454-.612 1.986 1.986 0 0 1-.612-1.454V35.408H24.1v16.526c0 .561-.204 1.046-.612 1.454a1.986 1.986 0 0 1-1.454.612H7.04a2.135 2.135 0 0 1-1.454-.536c-.408-.408-.612-.918-.612-1.53V2.508c0-.561.204-1.046.612-1.454A1.986 1.986 0 0 1 7.04.442h14.996c.561 0 1.046.204 1.454.612.408.408.612.893.612 1.454v16.067h12.395V2.508c0-.561.204-1.046.612-1.454a1.986 1.986 0 0 1 1.454-.612ZM82.019 39.08h23.566c.561 0 1.045.204 1.453.612.409.408.613.893.613 1.454v10.788c0 .561-.204 1.046-.613 1.454a1.984 1.984 0 0 1-1.453.612H65.723a1.986 1.986 0 0 1-1.454-.612 1.986 1.986 0 0 1-.612-1.454V2.508c0-.561.204-1.046.612-1.454a1.986 1.986 0 0 1 1.453-.612h39.251c.561 0 1.045.204 1.453.612.408.408.612.893.612 1.454v10.788c0 .561-.204 1.046-.612 1.454a1.984 1.984 0 0 1-1.453.612H82.019v4.82h21.27c.561 0 1.046.204 1.454.612.408.408.612.893.612 1.454v9.946c0 .561-.204 1.046-.612 1.454a1.986 1.986 0 0 1-1.454.612h-21.27v4.82ZM145.165 54h-14.996a1.986 1.986 0 0 1-1.454-.612 1.986 1.986 0 0 1-.612-1.454V36.862L110.888 2.813c-.102-.204-.153-.485-.153-.842s.153-.688.459-.994c.357-.357.765-.536 1.224-.536h14.384c1.53 0 2.602.638 3.214 1.913l7.651 15.379 7.651-15.379c.612-1.275 1.683-1.913 3.213-1.913h14.384c.46 0 .842.179 1.148.536.357.306.536.637.536.994s-.051.638-.153.842l-17.215 34.047v15.073c0 .561-.204 1.046-.612 1.454a1.986 1.986 0 0 1-1.454.612Zm27.822-17.444h12.624c.459 0 .842.178 1.148.535.357.306.535.638.535.995 0 .306-.025.535-.076.688l-7.269 18.44c-.612 1.632-1.785 2.448-3.519 2.448h-8.263c-.459 0-.867-.179-1.225-.536-.306-.306-.459-.688-.459-1.147v-.153l2.831-18.287c.102-.765.485-1.453 1.148-2.065.714-.612 1.556-.918 2.525-.918ZM35.195 120H20.2a1.986 1.986 0 0 1-1.454-.612 1.987 1.987 0 0 1-.612-1.454v-15.072L.918 68.814c-.102-.204-.153-.484-.153-.842 0-.357.153-.688.46-.994.356-.357.764-.536 1.223-.536h14.384c1.53 0 2.602.638 3.214 1.913l7.651 15.379 7.651-15.379c.612-1.275 1.683-1.913 3.214-1.913h14.384c.459 0 .841.179 1.147.536.357.306.536.637.536.994 0 .358-.051.638-.153.842L37.26 102.862v15.072c0 .561-.204 1.046-.612 1.454a1.986 1.986 0 0 1-1.454.612ZM63.86 71.339c4.692-3.775 10.89-5.662 18.592-5.662 7.702 0 13.874 1.913 18.516 5.738 4.692 3.775 7.039 9.105 7.039 15.991v11.936c0 6.988-2.321 12.318-6.963 15.991-4.59 3.621-10.788 5.432-18.592 5.432-7.804 0-14.027-1.811-18.669-5.432-4.59-3.673-6.886-9.003-6.886-15.991V87.406c0-6.937 2.321-12.293 6.963-16.067Zm14.46 32.976c1.02 1.02 2.398 1.53 4.132 1.53 1.734 0 3.111-.51 4.132-1.53 1.02-1.02 1.53-2.576 1.53-4.667V86.794c0-2.04-.51-3.57-1.53-4.59-1.02-1.072-2.398-1.607-4.132-1.607-1.734 0-3.112.535-4.132 1.607-1.02 1.02-1.53 2.55-1.53 4.59v12.854c0 2.091.51 3.647 1.53 4.667Zm67.928-37.873h14.996c.561 0 1.046.204 1.454.612.408.408.612.893.612 1.454v30.758c0 7.141-2.219 12.522-6.657 16.143-4.437 3.571-10.482 5.356-18.133 5.356-7.6 0-13.644-1.785-18.133-5.356-4.438-3.57-6.656-8.951-6.656-16.144V68.508c0-.561.204-1.046.612-1.454a1.984 1.984 0 0 1 1.453-.612h14.997c.561 0 1.045.204 1.453.612.408.408.612.893.612 1.454v30.987c0 3.928 1.888 5.891 5.662 5.891 3.775 0 5.662-1.963 5.662-5.891V68.508c0-.561.204-1.046.612-1.454a1.986 1.986 0 0 1 1.454-.612ZM3.596 149.275c0-5.203 2.142-9.437 6.427-12.701 4.336-3.265 9.997-4.897 16.985-4.897 7.04 0 12.778 1.709 17.215 5.126 4.49 3.418 6.733 6.988 6.733 10.712 0 .459-.178.867-.535 1.224a1.468 1.468 0 0 1-1.071.459H34.047c-1.173 0-2.244-.433-3.213-1.301-.97-.867-2.27-1.3-3.902-1.3-2.448 0-3.673.714-3.673 2.142 0 .765.587 1.403 1.76 1.913 1.224.51 3.469.969 6.733 1.377 7.6.969 13.007 2.754 16.22 5.356 3.265 2.55 4.897 6.452 4.897 11.706 0 5.203-2.397 9.462-7.192 12.777-4.744 3.265-10.966 4.897-18.669 4.897-7.702 0-13.746-1.581-18.133-4.744-4.386-3.162-6.58-7.013-6.58-11.553 0-.459.153-.841.46-1.147.356-.357.765-.536 1.224-.536h14.537c1.07 0 2.244.51 3.52 1.53 1.325 1.02 3.136 1.53 5.431 1.53 3.826 0 5.739-.714 5.739-2.142 0-.918-.689-1.607-2.066-2.066-1.377-.51-3.979-1.02-7.804-1.53-13.16-1.734-19.74-7.345-19.74-16.832Zm88.195-16.833h14.996c.561 0 1.045.204 1.454.612.408.408.612.893.612 1.454v49.426c0 .561-.204 1.046-.612 1.454a1.988 1.988 0 0 1-1.454.612H91.791a1.986 1.986 0 0 1-1.454-.612 1.987 1.987 0 0 1-.612-1.454v-16.526H77.33v16.526c0 .561-.204 1.046-.612 1.454a1.986 1.986 0 0 1-1.454.612H60.268a2.136 2.136 0 0 1-1.454-.536c-.408-.408-.612-.918-.612-1.53v-49.426c0-.561.204-1.046.612-1.454a1.986 1.986 0 0 1 1.454-.612h14.996c.561 0 1.046.204 1.454.612.408.408.612.893.612 1.454v16.067h12.395v-16.067c0-.561.204-1.046.612-1.454a1.986 1.986 0 0 1 1.454-.612Zm30.527 4.897c4.693-3.775 10.89-5.662 18.592-5.662 7.702 0 13.874 1.913 18.516 5.738 4.693 3.775 7.039 9.105 7.039 15.991v11.936c0 6.988-2.321 12.318-6.963 15.991-4.59 3.621-10.788 5.432-18.592 5.432-7.804 0-14.027-1.811-18.669-5.432-4.59-3.673-6.886-9.003-6.886-15.991v-11.936c0-6.937 2.321-12.293 6.963-16.067Zm14.461 32.976c1.02 1.02 2.397 1.53 4.131 1.53 1.734 0 3.112-.51 4.132-1.53 1.02-1.02 1.53-2.576 1.53-4.667v-12.854c0-2.04-.51-3.57-1.53-4.59-1.02-1.072-2.398-1.607-4.132-1.607-1.734 0-3.111.535-4.131 1.607-1.021 1.02-1.531 2.55-1.531 4.59v12.854c0 2.091.51 3.647 1.531 4.667Zm67.927-37.873h14.996c.561 0 1.046.204 1.454.612.408.408.612.893.612 1.454v30.757c0 7.142-2.219 12.523-6.656 16.144-4.438 3.571-10.482 5.356-18.134 5.356-7.6 0-13.644-1.785-18.133-5.356-4.437-3.57-6.656-8.951-6.656-16.144v-30.757c0-.561.204-1.046.612-1.454a1.987 1.987 0 0 1 1.454-.612h14.996c.561 0 1.046.204 1.454.612.408.408.612.893.612 1.454v30.987c0 3.928 1.887 5.891 5.661 5.891 3.775 0 5.662-1.963 5.662-5.891v-30.987c0-.561.204-1.046.612-1.454a1.987 1.987 0 0 1 1.454-.612Zm43.75 37.873h21.194c.561 0 1.045.204 1.453.612.408.408.612.893.612 1.454v11.553c0 .561-.204 1.046-.612 1.454a1.985 1.985 0 0 1-1.453.612h-38.562a1.987 1.987 0 0 1-1.454-.612 1.987 1.987 0 0 1-.612-1.454v-49.426c0-.561.204-1.046.612-1.454a1.987 1.987 0 0 1 1.454-.612h15.302c.561 0 1.046.204 1.454.612.408.408.612.893.612 1.454v35.807Zm30.332-37.873h22.035c7.447 0 13.568 1.862 18.363 5.586 4.846 3.672 7.268 8.824 7.268 15.455v11.4c0 6.937-2.346 12.191-7.039 15.761-4.692 3.571-10.864 5.356-18.515 5.356h-22.112a1.987 1.987 0 0 1-1.454-.612 1.987 1.987 0 0 1-.612-1.454v-49.426c0-.561.204-1.046.612-1.454a1.987 1.987 0 0 1 1.454-.612Zm17.062 14.92v23.718h4.973c1.734 0 3.112-.51 4.132-1.53 1.071-1.071 1.607-2.627 1.607-4.667v-11.4c0-4.081-1.913-6.121-5.739-6.121h-4.973Z" fill="#1E1E1E"/></svg>