<svg width="1004" height="236" fill="none" xmlns="http://www.w3.org/2000/svg"><path d="M74.6 0H104c1.1 0 2.05.4 2.85 1.2.8.8 1.2 1.75 1.2 2.85v96.9c0 1.1-.4 2.05-1.2 2.85-.8.8-1.75 1.2-2.85 1.2H74.6c-1.1 0-2.05-.4-2.85-1.2-.8-.8-1.2-1.75-1.2-2.85v-32.4h-24.3v32.4c0 1.1-.4 2.05-1.2 2.85-.8.8-1.75 1.2-2.85 1.2H12.8c-1.1 0-2.05-.35-2.85-1.05-.8-.8-1.2-1.8-1.2-3V4.05c0-1.1.4-2.05 1.2-2.85C10.75.4 11.7 0 12.8 0h29.4c1.1 0 2.05.4 2.85 1.2.8.8 1.2 1.75 1.2 2.85v31.5h24.3V4.05c0-1.1.4-2.05 1.2-2.85C72.55.4 73.5 0 74.6 0Zm85.199 75.75h46.2c1.1 0 2.05.4 2.85 1.2.8.8 1.2 1.75 1.2 2.85v21.15c0 1.1-.4 2.05-1.2 2.85-.8.8-1.75 1.2-2.85 1.2h-78.15c-1.1 0-2.05-.4-2.85-1.2-.8-.8-1.2-1.75-1.2-2.85V4.05c0-1.1.4-2.05 1.2-2.85.8-.8 1.75-1.2 2.85-1.2h76.95c1.1 0 2.05.4 2.85 1.2.8.8 1.2 1.75 1.2 2.85V25.2c0 1.1-.4 2.05-1.2 2.85-.8.8-1.75 1.2-2.85 1.2h-45v9.45h41.7c1.1 0 2.05.4 2.85 1.2.8.8 1.2 1.75 1.2 2.85v19.5c0 1.1-.4 2.05-1.2 2.85-.8.8-1.75 1.2-2.85 1.2h-41.7v9.45ZM283.596 105h-29.4c-1.1 0-2.05-.4-2.85-1.2-.8-.8-1.2-1.75-1.2-2.85V71.4l-33.75-66.75c-.2-.4-.3-.95-.3-1.65s.3-1.35.9-1.95c.7-.7 1.5-1.05 2.4-1.05h28.2c3 0 5.1 1.25 6.3 3.75l15 30.15 15-30.15c1.2-2.5 3.3-3.75 6.3-3.75h28.2c.9 0 1.65.35 2.25 1.05.7.6 1.05 1.25 1.05 1.95s-.1 1.25-.3 1.65l-33.75 66.75v29.55c0 1.1-.4 2.05-1.2 2.85-.8.8-1.75 1.2-2.85 1.2Zm54.545-34.2h24.75c.9 0 1.65.35 2.25 1.05.7.6 1.05 1.25 1.05 1.95 0 .6-.05 1.05-.15 1.35l-14.25 36.15c-1.2 3.2-3.5 4.8-6.9 4.8h-16.2c-.9 0-1.7-.35-2.4-1.05-.6-.6-.9-1.35-.9-2.25v-.3l5.55-35.85c.2-1.5.95-2.85 2.25-4.05 1.4-1.2 3.05-1.8 4.95-1.8ZM68 234H38.6c-1.1 0-2.05-.4-2.85-1.2-.8-.8-1.2-1.75-1.2-2.85V200.4L.8 133.65c-.2-.4-.3-.95-.3-1.65s.3-1.35.9-1.95c.7-.7 1.5-1.05 2.4-1.05H32c3 0 5.1 1.25 6.3 3.75l15 30.15 15-30.15c1.2-2.5 3.3-3.75 6.3-3.75h28.2c.9 0 1.65.35 2.25 1.05.7.6 1.05 1.25 1.05 1.95s-.1 1.25-.3 1.65L72.05 200.4v29.55c0 1.1-.4 2.05-1.2 2.85-.8.8-1.75 1.2-2.85 1.2Zm56.195-95.4c9.2-7.4 21.35-11.1 36.45-11.1 15.1 0 27.2 3.75 36.3 11.25 9.2 7.4 13.8 17.85 13.8 31.35v23.4c0 13.7-4.55 24.15-13.65 31.35-9 7.1-21.15 10.65-36.45 10.65-15.3 0-27.5-3.55-36.6-10.65-9-7.2-13.5-17.65-13.5-31.35v-23.4c0-13.6 4.55-24.1 13.65-31.5Zm28.35 64.65c2 2 4.7 3 8.1 3 3.4 0 6.1-1 8.1-3s3-5.05 3-9.15v-25.2c0-4-1-7-3-9-2-2.1-4.7-3.15-8.1-3.15-3.4 0-6.1 1.05-8.1 3.15-2 2-3 5-3 9v25.2c0 4.1 1 7.15 3 9.15ZM285.717 129h29.4c1.1 0 2.05.4 2.85 1.2.8.8 1.2 1.75 1.2 2.85v60.3c0 14-4.35 24.55-13.05 31.65-8.7 7-20.55 10.5-35.55 10.5-14.9 0-26.75-3.5-35.55-10.5-8.7-7-13.05-17.55-13.05-31.65v-60.3c0-1.1.4-2.05 1.2-2.85.8-.8 1.75-1.2 2.85-1.2h29.4c1.1 0 2.05.4 2.85 1.2.8.8 1.2 1.75 1.2 2.85v60.75c0 7.7 3.7 11.55 11.1 11.55 7.4 0 11.1-3.85 11.1-11.55v-60.75c0-1.1.4-2.05 1.2-2.85.8-.8 1.75-1.2 2.85-1.2Zm84.728 33c0-10.2 4.2-18.5 12.6-24.9 8.5-6.4 19.6-9.6 33.3-9.6 13.8 0 25.05 3.35 33.75 10.05 8.8 6.7 13.2 13.7 13.2 21 0 .9-.35 1.7-1.05 2.4-.6.6-1.3.9-2.1.9h-30c-2.3 0-4.4-.85-6.3-2.55-1.9-1.7-4.45-2.55-7.65-2.55-4.8 0-7.2 1.4-7.2 4.2 0 1.5 1.15 2.75 3.45 3.75 2.4 1 6.8 1.9 13.2 2.7 14.9 1.9 25.5 5.4 31.8 10.5 6.4 5 9.6 12.65 9.6 22.95 0 10.2-4.7 18.55-14.1 25.05-9.3 6.4-21.5 9.6-36.6 9.6-15.1 0-26.95-3.1-35.55-9.3-8.6-6.2-12.9-13.75-12.9-22.65 0-.9.3-1.65.9-2.25.7-.7 1.5-1.05 2.4-1.05h28.5c2.1 0 4.4 1 6.9 3 2.6 2 6.15 3 10.65 3 7.5 0 11.25-1.4 11.25-4.2 0-1.8-1.35-3.15-4.05-4.05-2.7-1-7.8-2-15.3-3-25.8-3.4-38.7-14.4-38.7-33Zm172.905-33h29.4c1.1 0 2.05.4 2.85 1.2.8.8 1.2 1.75 1.2 2.85v96.9c0 1.1-.4 2.05-1.2 2.85-.8.8-1.75 1.2-2.85 1.2h-29.4c-1.1 0-2.05-.4-2.85-1.2-.8-.8-1.2-1.75-1.2-2.85v-32.4H515v32.4c0 1.1-.4 2.05-1.2 2.85-.8.8-1.75 1.2-2.85 1.2h-29.4c-1.1 0-2.05-.35-2.85-1.05-.8-.8-1.2-1.8-1.2-3v-96.9c0-1.1.4-2.05 1.2-2.85.8-.8 1.75-1.2 2.85-1.2h29.4c1.1 0 2.05.4 2.85 1.2.8.8 1.2 1.75 1.2 2.85v31.5h24.3v-31.5c0-1.1.4-2.05 1.2-2.85.8-.8 1.75-1.2 2.85-1.2Zm59.849 9.6c9.2-7.4 21.35-11.1 36.45-11.1 15.1 0 27.2 3.75 36.3 11.25 9.2 7.4 13.8 17.85 13.8 31.35v23.4c0 13.7-4.55 24.15-13.65 31.35-9 7.1-21.15 10.65-36.45 10.65-15.3 0-27.5-3.55-36.6-10.65-9-7.2-13.5-17.65-13.5-31.35v-23.4c0-13.6 4.55-24.1 13.65-31.5Zm28.35 64.65c2 2 4.7 3 8.1 3 3.4 0 6.1-1 8.1-3s3-5.05 3-9.15v-25.2c0-4-1-7-3-9-2-2.1-4.7-3.15-8.1-3.15-3.4 0-6.1 1.05-8.1 3.15-2 2-3 5-3 9v25.2c0 4.1 1 7.15 3 9.15ZM764.721 129h29.4c1.1 0 2.05.4 2.85 1.2.8.8 1.2 1.75 1.2 2.85v60.3c0 14-4.35 24.55-13.05 31.65-8.7 7-20.55 10.5-35.55 10.5-14.9 0-26.75-3.5-35.55-10.5-8.7-7-13.05-17.55-13.05-31.65v-60.3c0-1.1.4-2.05 1.2-2.85.8-.8 1.75-1.2 2.85-1.2h29.4c1.1 0 2.05.4 2.85 1.2.8.8 1.2 1.75 1.2 2.85v60.75c0 7.7 3.7 11.55 11.1 11.55 7.4 0 11.1-3.85 11.1-11.55v-60.75c0-1.1.4-2.05 1.2-2.85.8-.8 1.75-1.2 2.85-1.2Zm85.772 74.25h41.55c1.1 0 2.05.4 2.85 1.2.8.8 1.2 1.75 1.2 2.85v22.65c0 1.1-.4 2.05-1.2 2.85-.8.8-1.75 1.2-2.85 1.2h-75.6c-1.1 0-2.05-.4-2.85-1.2-.8-.8-1.2-1.75-1.2-2.85v-96.9c0-1.1.4-2.05 1.2-2.85.8-.8 1.75-1.2 2.85-1.2h30c1.1 0 2.05.4 2.85 1.2.8.8 1.2 1.75 1.2 2.85v70.2ZM909.958 129h43.2c14.6 0 26.6 3.65 36 10.95 9.5 7.2 14.252 17.3 14.252 30.3v22.35c0 13.6-4.602 23.9-13.802 30.9s-21.3 10.5-36.3 10.5h-43.35c-1.1 0-2.05-.4-2.85-1.2-.8-.8-1.2-1.75-1.2-2.85v-96.9c0-1.1.4-2.05 1.2-2.85.8-.8 1.75-1.2 2.85-1.2Zm33.45 29.25v46.5h9.75c3.4 0 6.1-1 8.1-3 2.1-2.1 3.15-5.15 3.15-9.15v-22.35c0-8-3.75-12-11.25-12h-9.75Z" fill="#1E1E1E"/></svg>