<?xml version="1.0" encoding="utf-8"?>
<!-- Generator: Adobe Illustrator 25.4.6, SVG Export Plug-In . SVG Version: 6.00 Build 0)  -->
<svg version="1.1" id="Layer_1" xmlns="http://www.w3.org/2000/svg" xmlns:xlink="http://www.w3.org/1999/xlink" x="0px" y="0px"
	 viewBox="0 0 837 160" style="enable-background:new 0 0 837 160;" xml:space="preserve">
<style type="text/css">
	.st0{fill:#1E1E1E;}
</style>
<path class="st0" d="M79.2,63.2c1.6-1.9,2.4-4.1,2.4-6.7c0-2.6-0.8-4.9-2.4-6.9c-1.4-2.2-3.6-3.2-6.4-3.2H54.7V66h18.1
	C75.7,66,77.8,65.1,79.2,63.2z M54.7,101.9V123h20c3.3,0,5.7-1.1,7.3-3.2c1.7-2.3,2.6-4.8,2.6-7.5v-0.2c0-2.7-0.9-5.1-2.8-7.1
	c-1.7-2-4.1-3-7.1-3h-20C54.7,102,54.7,101.9,54.7,101.9z M80.3,160H6.8c-1.6,0-2.9-0.6-4.1-1.7S1,155.8,1,154.2V15.3
	c0-1.6,0.6-2.9,1.7-4.1s2.5-1.7,4.1-1.7h71.4c20.4,0,35.3,3.7,44.9,11.2c9.7,7.3,14.6,18.4,14.6,33.3v0.6c0,6.2-1.8,11.7-5.4,16.6
	c-3.6,4.7-7.5,8.2-11.8,10.3c5.7,2.3,10.5,6.4,14.4,12.3c4,5.7,6,12,6,18.9C140.9,144.2,120.7,160,80.3,160z M294.4,152.9
	c0.4,0.9,0.6,1.8,0.6,2.8s-0.5,2-1.5,3c-0.9,0.9-1.9,1.3-3.2,1.3h-44.1c-4.4,0-7.5-1.9-9.2-5.8l-18.5-41.1h-8.8v41.1
	c0,1.6-0.6,2.9-1.7,4.1c-1.1,1.1-2.5,1.7-4.1,1.7h-42.1c-1.6,0-2.9-0.6-4.1-1.7c-1.1-1.1-1.7-2.5-1.7-4.1V15.3
	c0-1.6,0.6-2.9,1.7-4.1c1.1-1.1,2.5-1.7,4.1-1.7h63.6c20.6,0,36.8,4.7,48.4,14c11.6,9.2,17.4,22.4,17.4,39.8
	c0,17.2-7.7,30.7-23.2,40.6L294.4,152.9z M209.7,49.5v22.8h15.7c3.2,0,5.6-1,7.3-3c1.7-2.1,2.6-4.8,2.6-8c0-3.2-0.9-5.9-2.6-8.2
	c-1.6-2.4-4-3.7-7.3-3.7L209.7,49.5L209.7,49.5z M357.2,9.5h46.7c5.2,0,8.4,2.4,9.7,7.1l47.9,137.2c0.1,0.4,0.2,1.1,0.2,2.1
	c0,0.9-0.5,1.8-1.5,2.8c-0.9,0.9-1.9,1.3-3.2,1.3h-39.8c-4.3,0-7.1-1.8-8.4-5.4l-5.2-14.2h-46.2l-5.2,14.2c-1.3,3.6-4.1,5.4-8.4,5.4
	H304c-1.3,0-2.4-0.4-3.4-1.3c-0.9-1-1.3-1.9-1.3-2.8c0-1,0.1-1.7,0.2-2.1l47.9-137.2C348.9,11.9,352.1,9.5,357.2,9.5z M368.4,98.5
	h24.3l-12.3-40L368.4,98.5z M564.3,9.5h38.9c1.6,0,2.9,0.6,4.1,1.7c1.1,1.1,1.7,2.5,1.7,4.1v138.9c0,1.6-0.6,2.9-1.7,4.1
	c-1.1,1.1-2.5,1.7-4.1,1.7h-34c-3.7,0-6.7-1.6-8.8-4.9l-36.3-54.8v54c0,1.6-0.6,2.9-1.7,4.1c-1.1,1.1-2.5,1.7-4.1,1.7h-38.9
	c-1.6,0-2.9-0.6-4.1-1.7c-1.1-1.1-1.7-2.5-1.7-4.1v-139c0-1.6,0.6-2.9,1.7-4.1c1.1-1.1,2.5-1.7,4.1-1.7h34c4,0,7,1.6,8.8,4.9
	L558.5,74V15.3c0-1.6,0.6-2.9,1.7-4.1C561.4,10.1,562.7,9.5,564.3,9.5z M637.4,9.5h61.9c20.9,0,38.1,5.2,51.6,15.7
	c13.6,10.3,20.4,24.8,20.4,43.4v32c0,19.5-6.6,34.3-19.8,44.3S721,160,699.5,160h-62.1c-1.6,0-2.9-0.6-4.1-1.7
	c-1.1-1.1-1.7-2.5-1.7-4.1V15.3c0-1.6,0.6-2.9,1.7-4.1C634.4,10.1,635.8,9.5,637.4,9.5z M685.3,51.4V118h14c4.9,0,8.7-1.4,11.6-4.3
	c3-3,4.5-7.4,4.5-13.1v-32c0-11.5-5.4-17.2-16.1-17.2C699.3,51.4,685.3,51.4,685.3,51.4z M830.6,160h-38.5c-1.6,0-2.9-0.6-4.1-1.7
	c-1.1-1.1-1.7-2.5-1.7-4.1V54c0-1.6,0.6-2.9,1.7-4.1c1.1-1.1,2.5-1.7,4.1-1.7h38.5c1.6,0,2.9,0.6,4.1,1.7c1.1,1.1,1.7,2.5,1.7,4.1
	v100.2c0,1.6-0.6,2.9-1.7,4.1C833.5,159.4,832.2,160,830.6,160z"/>
</svg>
