<?xml version="1.0" encoding="utf-8"?>
<!-- Generator: Adobe Illustrator 25.4.6, SVG Export Plug-In . SVG Version: 6.00 Build 0)  -->
<svg version="1.1" id="Layer_1" xmlns="http://www.w3.org/2000/svg" xmlns:xlink="http://www.w3.org/1999/xlink" x="0px" y="0px"
	 viewBox="0 0 835.4 181.1" style="enable-background:new 0 0 835.4 181.1;" xml:space="preserve">
<style type="text/css">
	.st0{fill:#1E1E1E;}
</style>
<path class="st0" d="M78.2,64.6c1.6-2.3,2.4-4.9,2.4-8.1c0-3.1-0.8-5.9-2.4-8.3c-1.4-2.6-3.6-3.8-6.4-3.8H53.7v23.6h18.1
	C74.7,67.9,76.8,66.9,78.2,64.6z M53.7,111.1v25.4h20c3.3,0,5.7-1.3,7.3-3.8c1.7-2.8,2.6-5.8,2.6-9v-0.2c0-3.2-0.9-6.1-2.8-8.5
	c-1.7-2.4-4.1-3.6-7.1-3.6h-20C53.7,111.2,53.7,111.1,53.7,111.1z M79.3,181H5.8c-1.6,0-2.9-0.7-4.1-2c-1.2-1.3-1.7-3-1.7-4.9V7
	C0,5.1,0.6,3.5,1.7,2s2.5-2,4.1-2h71.4c20.4,0,35.3,4.4,44.9,13.5c9.7,8.8,14.6,22.1,14.6,40v0.7c0,7.5-1.8,14.1-5.4,20
	c-3.6,5.7-7.5,9.9-11.8,12.4c5.7,2.8,10.5,7.7,14.4,14.8c4,6.9,6,14.4,6,22.7C139.9,162,119.7,181,79.3,181z M293.4,172.4
	c0.4,1.1,0.6,2.2,0.6,3.4c0,1.2-0.5,2.4-1.5,3.6c-0.9,1.1-1.9,1.6-3.2,1.6h-44.1c-4.4,0-7.5-2.3-9.2-7l-18.5-49.4h-8.8V174
	c0,1.9-0.6,3.5-1.7,4.9c-1.1,1.3-2.5,2-4.1,2h-42.1c-1.6,0-2.9-0.7-4.1-2c-1.1-1.3-1.7-3-1.7-4.9V7c0-1.9,0.6-3.5,1.7-4.9
	c1.1-1.3,2.5-2,4.1-2h63.6c20.6,0,36.8,5.7,48.4,16.8c11.6,11.1,17.4,26.9,17.4,47.9c0,20.7-7.7,36.9-23.2,48.8L293.4,172.4z
	 M208.7,48.1v27.4h15.7c3.2,0,5.6-1.2,7.3-3.6c1.7-2.5,2.6-5.8,2.6-9.6s-0.9-7.1-2.6-9.9c-1.6-2.9-4-4.4-7.3-4.4L208.7,48.1
	L208.7,48.1z M356.2,0h46.7c5.2,0,8.4,2.9,9.7,8.5l47.9,165c0.1,0.5,0.2,1.3,0.2,2.5c0,1.1-0.5,2.2-1.5,3.4
	c-0.9,1.1-1.9,1.6-3.2,1.6h-39.8c-4.3,0-7.1-2.2-8.4-6.5l-5.2-17.1h-46.2l-5.2,17.1c-1.3,4.3-4.1,6.5-8.4,6.5H303
	c-1.3,0-2.4-0.5-3.4-1.6c-0.9-1.2-1.3-2.3-1.3-3.4c0-1.2,0.1-2,0.2-2.5l47.9-165C347.9,2.9,351.1,0,356.2,0z M367.4,107h24.3
	l-12.3-48.1L367.4,107z M563.3,0h38.9c1.6,0,2.9,0.7,4.1,2c1.1,1.3,1.7,3,1.7,4.9v167c0,1.9-0.6,3.5-1.7,4.9c-1.1,1.3-2.5,2-4.1,2
	h-34c-3.7,0-6.7-1.9-8.8-5.9l-36.3-65.9v64.9c0,1.9-0.6,3.5-1.7,4.9c-1.1,1.3-2.5,2-4.1,2h-38.9c-1.6,0-2.9-0.7-4.1-2
	c-1.1-1.3-1.7-3-1.7-4.9V7c0-1.9,0.6-3.5,1.7-4.9c1.1-1.3,2.5-2,4.1-2h34c4,0,7,1.9,8.8,5.9l36.3,71.7V7c0-1.9,0.6-3.5,1.7-4.9
	C560.4,0.7,561.7,0,563.3,0z M636.4,0h61.9c20.9,0,38.1,6.3,51.6,18.9c13.6,12.4,20.4,29.8,20.4,52.2v38.5
	c0,23.4-6.6,41.2-19.8,53.3S720,181,698.5,181h-62.1c-1.6,0-2.9-0.7-4.1-2c-1.1-1.3-1.7-3-1.7-4.9V7c0-1.9,0.6-3.5,1.7-4.9
	C633.4,0.7,634.8,0,636.4,0z M684.3,50.4v80.1h14c4.9,0,8.7-1.7,11.6-5.2c3-3.6,4.5-8.9,4.5-15.8V71.1c0-13.8-5.4-20.7-16.1-20.7
	C698.3,50.4,684.3,50.4,684.3,50.4z M829.6,181h-38.5c-1.6,0-2.9-0.7-4.1-2c-1.1-1.3-1.7-3-1.7-4.9V53.5c0-1.9,0.6-3.5,1.7-4.9
	c1.1-1.3,2.5-2,4.1-2h38.5c1.6,0,2.9,0.7,4.1,2c1.1,1.3,1.7,3,1.7,4.9V174c0,1.9-0.6,3.5-1.7,4.9C832.5,180.3,831.2,181,829.6,181z"
	/>
</svg>
