<svg xmlns="http://www.w3.org/2000/svg" viewBox="0 0 837 160" style="enable-background:new 0 0 837 160" xml:space="preserve"><path d="M79.2 63.2c1.6-1.9 2.4-4.1 2.4-6.7 0-2.6-.8-4.9-2.4-6.9-1.4-2.2-3.6-3.2-6.4-3.2H54.7V66h18.1c2.9 0 5-.9 6.4-2.8zm-24.5 38.7V123h20c3.3 0 5.7-1.1 7.3-3.2 1.7-2.3 2.6-4.8 2.6-7.5v-.2c0-2.7-.9-5.1-2.8-7.1-1.7-2-4.1-3-7.1-3h-20v-.1zM80.3 160H6.8c-1.6 0-2.9-.6-4.1-1.7S1 155.8 1 154.2V15.3c0-1.6.6-2.9 1.7-4.1s2.5-1.7 4.1-1.7h71.4c20.4 0 35.3 3.7 44.9 11.2 9.7 7.3 14.6 18.4 14.6 33.3v.6c0 6.2-1.8 11.7-5.4 16.6-3.6 4.7-7.5 8.2-11.8 10.3 5.7 2.3 10.5 6.4 14.4 12.3 4 5.7 6 12 6 18.9 0 31.5-20.2 47.3-60.6 47.3zm214.1-7.1c.4.9.6 1.8.6 2.8s-.5 2-1.5 3c-.9.9-1.9 1.3-3.2 1.3h-44.1c-4.4 0-7.5-1.9-9.2-5.8l-18.5-41.1h-8.8v41.1c0 1.6-.6 2.9-1.7 4.1-1.1 1.1-2.5 1.7-4.1 1.7h-42.1c-1.6 0-2.9-.6-4.1-1.7-1.1-1.1-1.7-2.5-1.7-4.1V15.3c0-1.6.6-2.9 1.7-4.1 1.1-1.1 2.5-1.7 4.1-1.7h63.6c20.6 0 36.8 4.7 48.4 14 11.6 9.2 17.4 22.4 17.4 39.8 0 17.2-7.7 30.7-23.2 40.6l26.4 49zM209.7 49.5v22.8h15.7c3.2 0 5.6-1 7.3-3 1.7-2.1 2.6-4.8 2.6-8s-.9-5.9-2.6-8.2c-1.6-2.4-4-3.7-7.3-3.7l-15.7.1zm147.5-40h46.7c5.2 0 8.4 2.4 9.7 7.1l47.9 137.2c.1.4.2 1.1.2 2.1 0 .9-.5 1.8-1.5 2.8-.9.9-1.9 1.3-3.2 1.3h-39.8c-4.3 0-7.1-1.8-8.4-5.4l-5.2-14.2h-46.2l-5.2 14.2c-1.3 3.6-4.1 5.4-8.4 5.4H304c-1.3 0-2.4-.4-3.4-1.3-.9-1-1.3-1.9-1.3-2.8 0-1 .1-1.7.2-2.1l47.9-137.2c1.5-4.7 4.7-7.1 9.8-7.1zm11.2 89h24.3l-12.3-40-12 40zm195.9-89h38.9c1.6 0 2.9.6 4.1 1.7 1.1 1.1 1.7 2.5 1.7 4.1v138.9c0 1.6-.6 2.9-1.7 4.1-1.1 1.1-2.5 1.7-4.1 1.7h-34c-3.7 0-6.7-1.6-8.8-4.9l-36.3-54.8v54c0 1.6-.6 2.9-1.7 4.1-1.1 1.1-2.5 1.7-4.1 1.7h-38.9c-1.6 0-2.9-.6-4.1-1.7-1.1-1.1-1.7-2.5-1.7-4.1v-139c0-1.6.6-2.9 1.7-4.1 1.1-1.1 2.5-1.7 4.1-1.7h34c4 0 7 1.6 8.8 4.9L558.5 74V15.3c0-1.6.6-2.9 1.7-4.1 1.2-1.1 2.5-1.7 4.1-1.7zm73.1 0h61.9c20.9 0 38.1 5.2 51.6 15.7 13.6 10.3 20.4 24.8 20.4 43.4v32c0 19.5-6.6 34.3-19.8 44.3S721 160 699.5 160h-62.1c-1.6 0-2.9-.6-4.1-1.7-1.1-1.1-1.7-2.5-1.7-4.1V15.3c0-1.6.6-2.9 1.7-4.1 1.1-1.1 2.5-1.7 4.1-1.7zm47.9 41.9V118h14c4.9 0 8.7-1.4 11.6-4.3 3-3 4.5-7.4 4.5-13.1v-32c0-11.5-5.4-17.2-16.1-17.2h-14zM830.6 160h-38.5c-1.6 0-2.9-.6-4.1-1.7-1.1-1.1-1.7-2.5-1.7-4.1V54c0-1.6.6-2.9 1.7-4.1 1.1-1.1 2.5-1.7 4.1-1.7h38.5c1.6 0 2.9.6 4.1 1.7 1.1 1.1 1.7 2.5 1.7 4.1v100.2c0 1.6-.6 2.9-1.7 4.1-1.2 1.1-2.5 1.7-4.1 1.7z" style="fill:#1e1e1e"/></svg>