<?xml version="1.0" encoding="utf-8"?>
<!-- Generator: Adobe Illustrator 25.4.6, SVG Export Plug-In . SVG Version: 6.00 Build 0)  -->
<svg version="1.1" id="Layer_1" xmlns="http://www.w3.org/2000/svg" xmlns:xlink="http://www.w3.org/1999/xlink" x="0px" y="0px"
	 viewBox="0 0 471.1 132.2" style="enable-background:new 0 0 471.1 132.2;" xml:space="preserve">
<style type="text/css">
	.st0{fill:#1E1E1E;}
</style>
<g>
	<path class="st0" d="M0,132.1V0h42.4C53.7,0,62,2.4,67.2,7c5.2,4.6,7.8,12.4,7.8,23.2v5.7c0,6.2-1.3,11.2-4,15.1
		c-2.6,3.9-6.6,6.3-12,7.6c7,1.5,11.8,5,14.2,10.6c2.4,5.5,3.6,12.3,3.6,20.2c0,8.5-0.9,16.1-2.8,22.5c-1.9,6.4-5.3,11.4-10.3,15
		s-12,5.3-21.2,5.3L0,132.1L0,132.1z M30.6,49.8H37c2.9,0,4.8-0.9,5.6-2.9c0.8-1.9,1.2-4.1,1.2-6.8V26.8c0-4.2-2.2-6.3-6.7-6.3h-6.6
		v29.3H30.6z M33.7,108.9c8.1,0,12.2-3.2,12.2-9.7V82.6c0-3.7-0.7-6.7-2-8.9c-1.3-2.2-3.8-3.3-7.5-3.3h-5.8v38.3
		C31.9,108.8,32.9,108.9,33.7,108.9z"/>
	<path class="st0" d="M87,132.1V0h48c8,0,14,1.5,18.1,4.6c4.1,3,6.8,7.4,8.2,12.9c1.4,5.5,2.1,12,2.1,19.4c0,7.2-1.1,12.9-3.2,17.2
		c-2.2,4.3-6.2,7.3-12.2,9c4.9,0.8,8.4,2.9,10.3,6.2c2,3.3,3,7.5,3,12.8v50h-30.8V80.4c0-3.9-0.9-6.3-2.8-7.2
		c-1.9-0.9-4.9-1.4-9-1.4v60.3H87z M118.8,48.9h7.5c4.3,0,6.5-4,6.5-11.9c0-5.2-0.5-8.5-1.4-10.1s-2.7-2.4-5.3-2.4h-7.3V48.9z"/>
	<path class="st0" d="M169.5,132.1L184.6,0h53l14.8,132.1h-29.6l-2.2-21.3h-18.8l-2,21.3H169.5z M204,89.7h14.2l-6.8-67.2H210
		L204,89.7z"/>
	<path class="st0" d="M262,132.1V0h32.1l14.4,63.3V0h30.2v132.1h-30.6L292.5,66v66.1H262z"/>
	<path class="st0" d="M352.6,132.1V0h43c11.2,0,19.7,2.6,25.4,7.9c5.7,5.2,8.5,13,8.5,23.2V93c0,12.5-2.6,22.1-7.8,29
		c-5.2,6.8-14.3,10.2-27.2,10.2L352.6,132.1L352.6,132.1z M384,108.8h5.4c5.7,0,8.6-2.4,8.6-7V33.6c0-4.4-0.7-7.3-2.1-8.5
		s-4.2-1.9-8.5-1.9H384V108.8z"/>
	<path class="st0" d="M440.9,132.1V29h30.2v103.1H440.9z"/>
</g>
</svg>
