<svg width="555" height="147" fill="none" xmlns="http://www.w3.org/2000/svg"><path d="M130.845 137.841c.406.811.609 1.69.609 2.637 0 .947-.474 1.894-1.42 2.841-.812.811-1.826 1.217-3.044 1.217H85.399c-4.193 0-7.1-1.826-8.724-5.478l-17.448-38.751h-8.318v38.751c0 1.488-.541 2.773-1.623 3.855-1.083 1.082-2.367 1.623-3.855 1.623H5.665c-1.487 0-2.772-.541-3.854-1.623-1.082-1.082-1.623-2.367-1.623-3.855V7.995c0-1.488.54-2.773 1.623-3.855 1.082-1.082 2.367-1.623 3.854-1.623H65.72c19.477 0 34.693 4.395 45.649 13.187 10.956 8.657 16.434 21.168 16.434 37.534 0 16.23-7.304 29.012-21.912 38.345l24.955 46.258ZM50.909 40.253V61.76h14.81c2.976 0 5.275-.947 6.898-2.84 1.623-2.03 2.435-4.531 2.435-7.507s-.812-5.546-2.435-7.71c-1.488-2.3-3.787-3.449-6.898-3.449H50.91Zm173.91-37.736h39.765c1.488 0 2.773.54 3.855 1.623 1.082 1.082 1.623 2.367 1.623 3.855v81.56c0 18.935-5.884 33.205-17.651 42.808-11.767 9.468-27.795 14.202-48.084 14.202-20.153 0-36.181-4.734-48.083-14.202-11.768-9.468-17.651-23.738-17.651-42.809V7.994c0-1.487.541-2.772 1.623-3.854 1.082-1.082 2.367-1.623 3.855-1.623h39.765c1.488 0 2.773.54 3.855 1.623 1.082 1.082 1.623 2.367 1.623 3.855v82.168c0 10.415 5.004 15.622 15.013 15.622s15.014-5.207 15.014-15.622V7.995c0-1.488.541-2.773 1.623-3.855 1.082-1.082 2.367-1.623 3.855-1.623Zm55.755 44.634c0-13.796 5.681-25.022 17.042-33.679C309.113 4.816 324.127.488 342.657.488c18.665 0 33.881 4.53 45.649 13.593 11.902 9.062 17.854 18.53 17.854 28.404 0 1.217-.474 2.3-1.421 3.246-.811.812-1.758 1.217-2.84 1.217h-40.577c-3.111 0-5.951-1.15-8.521-3.449-2.57-2.299-6.019-3.449-10.347-3.449-6.492 0-9.739 1.894-9.739 5.681 0 2.029 1.556 3.72 4.667 5.072 3.246 1.353 9.197 2.57 17.854 3.652 20.153 2.57 34.49 7.304 43.011 14.202 8.657 6.763 12.985 17.11 12.985 31.041 0 13.797-6.357 25.09-19.071 33.882-12.579 8.657-29.081 12.985-49.504 12.985-20.424 0-36.452-4.193-48.084-12.579-11.632-8.386-17.448-18.598-17.448-30.636 0-1.217.406-2.231 1.217-3.043.947-.947 2.029-1.42 3.246-1.42h38.549c2.84 0 5.951 1.352 9.332 4.058 3.517 2.705 8.318 4.057 14.405 4.057 10.144 0 15.216-1.893 15.216-5.681 0-2.434-1.826-4.26-5.478-5.477-3.651-1.353-10.55-2.706-20.694-4.058-34.896-4.599-52.344-19.477-52.344-44.635ZM509.368 2.517h39.765c1.488 0 2.773.54 3.855 1.623 1.082 1.082 1.623 2.367 1.623 3.855v131.063c0 1.488-.541 2.773-1.623 3.855-1.082 1.082-2.367 1.623-3.855 1.623h-39.765c-1.488 0-2.773-.541-3.855-1.623-1.082-1.082-1.623-2.367-1.623-3.855V95.235h-32.868v43.823c0 1.488-.541 2.773-1.623 3.855-1.082 1.082-2.367 1.623-3.854 1.623h-39.766c-1.488 0-2.773-.474-3.855-1.42-1.082-1.082-1.623-2.435-1.623-4.058V7.995c0-1.488.541-2.773 1.623-3.855 1.082-1.082 2.367-1.623 3.855-1.623h39.766c1.487 0 2.772.54 3.854 1.623 1.082 1.082 1.623 2.367 1.623 3.855V50.6h32.868V7.995c0-1.488.541-2.773 1.623-3.855 1.082-1.082 2.367-1.623 3.855-1.623Z" fill="#1E1E1E"/></svg>