<?xml version="1.0" encoding="utf-8"?>
<!-- Generator: Adobe Illustrator 25.4.6, SVG Export Plug-In . SVG Version: 6.00 Build 0)  -->
<svg version="1.1" id="Layer_1" xmlns="http://www.w3.org/2000/svg" xmlns:xlink="http://www.w3.org/1999/xlink" x="0px" y="0px"
	 viewBox="0 0 128 128" style="enable-background:new 0 0 128 128;" xml:space="preserve">
<style type="text/css">
	.st0{enable-background:new    ;}
	.st1{fill:#6877FD;stroke:#6877FD;stroke-width:3;stroke-miterlimit:10;}
	.st2{opacity:0.78;fill:#6877FD;stroke:#6877FD;stroke-width:3;stroke-miterlimit:10;enable-background:new    ;}
</style>
<g class="st0">
	<path class="st1" d="M38.3,79l1,0.4c-0.5,2.6-3.5,5.9-8,5.9c0,0-6.8,0.1-7.3-7.3c-1.3,4.2-6.3,7.3-12.4,7.3c0,0-9.8,0-9.8-9
		C1.8,67.7,9.1,65.8,24,62v-5.1c0-9-4.6-14-11.5-10.7c-3.4,1.7-3.9,3.3-3.4,3.4c1,0.1,2,0.6,2.6,1.6c1.3,1.8,1,4.3-0.9,5.6
		c-1.8,1.4-4.3,1-5.6-0.8c-1-1.3-1.2-3-0.4-4.3c0.6-1.3,2.1-3.9,6.8-6.4c3.8-1.9,8-1.7,8-1.7c9.4,0,12.2,7.1,12.2,17.4v14.8
		c0,0-0.1,5.5,3.9,5.5C35.9,81.2,37.7,81.2,38.3,79z M9.6,74.6c0,2.5,1.6,6.8,6.8,6.8c4.6,0,6.8-3.3,7.7-5.5c0-0.1,0-12.9,0-12.9
		C14,65.5,9.6,69.3,9.6,74.6z"/>
	<path class="st2" d="M59.8,84.6H38.5v-1c3.5,0,7.1-0.4,7.1-6.8V35.3c0-6.3-4.8-3.3-8-0.8l-0.6-1l13.4-11h2.9v54.2
		c0,6.7,3.7,6.8,6.7,6.8v1C60.1,84.6,59.8,84.6,59.8,84.6z"/>
	<path class="st2" d="M84.7,84.6H63.2v-1c3.5,0,7.1-0.4,7.1-6.8V35.3c0-6.3-4.8-3.3-8-0.8l-0.6-1l13.4-11h2.9v54.2
		c0,6.7,3.7,6.8,6.7,6.8v1C84.9,84.6,84.7,84.6,84.7,84.6z"/>
	<path class="st1" d="M125.9,44.4v1c-3,0-5.9,0.8-11.1,13.9l-13.5,36.8c-1.8,5.1-4.1,7.1-5.4,8.1c-1.3,1-3.5,1.4-5.2,0.6
		c-2.4-1-3.3-3.8-2.4-6c1.2-2.4,3.8-3.4,6-2.4c1.3,0.5,2,1.7,2.4,2.8c0.4,1.3,2.1,0,3.4-3.1l3.9-11C93.7,62.1,87.9,49.8,87.9,49.8
		c-1.8-4.1-4.8-4.3-6-4.4v-1h17.9v1c-5.6,0-2.6,6.3-2.6,6.3L107.8,75l5.8-15.8c0,0,5.5-13.7-4.6-13.6v-1h16.8L125.9,44.4L125.9,44.4
		z"/>
</g>
</svg>
