<?xml version="1.0" encoding="utf-8"?>
<!-- Generator: Adobe Illustrator 25.4.6, SVG Export Plug-In . SVG Version: 6.00 Build 0)  -->
<svg version="1.1" id="Layer_1" xmlns="http://www.w3.org/2000/svg" xmlns:xlink="http://www.w3.org/1999/xlink" x="0px" y="0px"
	 viewBox="0 0 128 128" style="enable-background:new 0 0 128 128;" xml:space="preserve">
<style type="text/css">
	.st0{enable-background:new    ;}
	.st1{fill:#FA38FF;}
</style>
<g class="st0">
	<path d="M37.7,79.6l1,0.4c-0.5,2.7-3.6,6.1-8.2,6.1c0,0-7,0.1-7.5-7.5c-1.3,4.3-6.5,7.5-12.7,7.5c0,0-10.1,0-10.1-9.2
		c0-9,7.5-10.9,22.8-14.8v-5.2c0-9.2-4.7-14.4-11.8-11c-3.5,1.7-4,3.4-3.5,3.5c1,0.1,2.1,0.6,2.7,1.6c1.3,1.8,1,4.4-0.9,5.8
		c-1.8,1.4-4.4,1-5.7-0.8c-1-1.3-1.2-3.1-0.4-4.4c0.6-1.3,2.2-4,7-6.6c3.9-1.9,8.2-1.7,8.2-1.7c9.7,0,12.5,7.3,12.5,17.9v15.2
		c0,0-0.1,5.6,4,5.6C35.1,81.8,37.1,81.8,37.7,79.6z M8.1,75c0,2.6,1.6,7,7,7c4.7,0,7-3.4,7.9-5.6c0-0.1,0-13.2,0-13.2
		C12.7,65.7,8.1,69.6,8.1,75z"/>
	<path class="st1" d="M59.8,85.3H37.9v-1c3.6,0,7.3-0.4,7.3-7V34.7c0-6.5-4.9-3.4-8.2-0.8l-0.6-1l13.8-11.3h3v55.7
		c0,6.9,3.8,7,6.9,7v1H59.8z"/>
	<path class="st1" d="M85.2,85.3H63.3v-1c3.6,0,7.3-0.4,7.3-7V34.7c0-6.5-4.9-3.4-8.2-0.8l-0.6-1l13.8-11.3h3v55.7
		c0,6.9,3.8,7,6.9,7v1H85.2z"/>
	<path d="M127.5,44v1c-3.1,0-6.1,0.8-11.4,14.3l-13.9,37.8c-1.8,5.2-4.2,7.3-5.5,8.3s-3.6,1.4-5.3,0.6c-2.5-1-3.4-3.9-2.5-6.2
		c1.2-2.5,3.9-3.5,6.2-2.5c1.3,0.5,2.1,1.7,2.5,2.9c0.4,1.3,2.2,0,3.5-3.2l4-11.3C94.6,62.2,88.6,49.6,88.6,49.6
		c-1.8-4.2-4.9-4.4-6.2-4.5v-1h18.4v1c-5.8,0-2.7,6.5-2.7,6.5l11,23.8l6-16.2c0,0,5.6-14.1-4.7-14v-1H127.5z"/>
</g>
</svg>
