<?xml version="1.0" encoding="utf-8"?>
<!-- Generator: Adobe Illustrator 15.1.0, SVG Export Plug-In . SVG Version: 6.00 Build 0)  -->
<!DOCTYPE svg PUBLIC "-//W3C//DTD SVG 1.1//EN" "http://www.w3.org/Graphics/SVG/1.1/DTD/svg11.dtd">
<svg version="1.1" id="Layer_1" xmlns="http://www.w3.org/2000/svg" xmlns:xlink="http://www.w3.org/1999/xlink" x="0px" y="0px"
	 width="974px" height="964px" viewBox="512.5 68 974 964" enable-background="new 512.5 68 974 964" xml:space="preserve">
<g>
	<path fill="#FFFFFF" d="M1476.594,77.408v783.795h-169.379v161.39H523.406V238.797h169.405V77.408H1476.594L1476.594,77.408z
		 M849.069,283.413h287.765v77.667H849.069V283.413L849.069,283.413z M849.069,593.433h479.985v77.681H849.069V593.433
		L849.069,593.433z M849.069,438.423h479.985v77.681H849.069V438.423z M1229.521,861.203H692.812
		c0-181.566-0.025-363.159-0.025-544.726h-91.699v628.435h628.434V861.203L1229.521,861.203z M1398.9,155.088H770.479v628.434
		c209.474,0,418.974,0,628.421,0V155.088z"/>
</g>
</svg>
