<?xml version="1.0" encoding="utf-8"?>
<!-- Generator: Adobe Illustrator 25.4.6, SVG Export Plug-In . SVG Version: 6.00 Build 0)  -->
<svg version="1.1" id="Layer_1" xmlns="http://www.w3.org/2000/svg" xmlns:xlink="http://www.w3.org/1999/xlink" x="0px" y="0px"
	 viewBox="0 0 128 128" style="enable-background:new 0 0 128 128;" xml:space="preserve">
<style type="text/css">
	.st0{fill:#6877FD;}
</style>
<path class="st0" d="M18.7,25.7l8.1,90.5L63,126.3l36.3-10.1l8.1-90.5C107.4,25.7,18.7,25.7,18.7,25.7z M87.9,76.2l-2.3,21.9v1.9
	L63,106.3l0,0l0,0l-22.7-6.2l-1.5-17.3h11.1l0.8,8.8L63,94.8l0,0l0,0l12.4-3.5l1.3-14.5H50.8l-0.2-2.4l-0.5-5.6l-0.3-3h27.9l1-11
	H36.2L36,52.1l-0.5-6l-0.3-3.4h55.6L90.5,46L87.9,76.2"/>
<g>
	<path class="st0" d="M44.1,13.7l5.9,1.8c-0.4,1.7-1,3-1.9,4.1s-1.9,1.9-3.2,2.5s-2.9,0.8-4.8,0.8c-2.4,0-4.3-0.3-5.8-1
		s-2.8-1.9-3.9-3.6s-1.6-4-1.6-6.7c0-3.6,1-6.4,2.9-8.3s4.6-2.9,8.1-2.9c2.7,0,4.9,0.6,6.5,1.7C47.8,3.3,49,5,49.8,7.3l-5.9,1.3
		c-0.2-0.7-0.4-1.1-0.7-1.5c-0.4-0.5-0.8-0.9-1.4-1.2c-0.5-0.3-1.2-0.4-1.8-0.4c-1.5,0-2.7,0.6-3.5,1.8c-0.6,0.9-0.9,2.3-0.9,4.3
		c0,2.4,0.4,4.1,1.1,5c0.7,0.9,1.8,1.3,3.1,1.3s2.3-0.4,2.9-1.1C43.3,16.2,43.8,15.1,44.1,13.7z"/>
	<path class="st0" d="M52.1,15.4l6.4-0.4c0.1,1,0.4,1.8,0.8,2.4c0.7,0.9,1.7,1.3,3,1.3c1,0,1.7-0.2,2.2-0.7s0.8-1,0.8-1.6
		s-0.2-1.1-0.7-1.5S63,14,61.2,13.6c-3-0.7-5.1-1.5-6.3-2.6C53.6,9.9,53,8.5,53,6.8c0-1.1,0.3-2.2,1-3.2s1.6-1.8,2.9-2.3
		s3.1-0.9,5.4-0.9c2.8,0,4.9,0.5,6.4,1.6c1.5,1,2.3,2.7,2.6,4.9L65,7.3c-0.2-1-0.5-1.7-1.1-2.1c-0.5-0.4-1.3-0.7-2.2-0.7
		c-0.8,0-1.4,0.2-1.8,0.5c-0.4,0.3-0.6,0.7-0.6,1.2c0,0.3,0.2,0.7,0.5,0.9c0.3,0.3,1.1,0.6,2.3,0.8c2.9,0.6,5.1,1.3,6.3,1.9
		s2.2,1.5,2.8,2.4s0.9,2,0.9,3.2c0,1.4-0.4,2.7-1.2,3.9c-0.8,1.2-1.9,2.1-3.2,2.7s-3.4,1-5.5,1c-3.7,0-6.3-0.7-7.7-2.1
		S52.3,17.6,52.1,15.4z"/>
	<path class="st0" d="M74.1,15.4l6.4-0.4c0.1,1,0.4,1.8,0.8,2.4c0.7,0.9,1.7,1.3,3,1.3c1,0,1.7-0.2,2.2-0.7s0.8-1,0.8-1.6
		s-0.2-1.1-0.7-1.5S85,14,83.2,13.6c-3-0.7-5.1-1.5-6.3-2.6C75.6,9.9,75,8.5,75,6.8c0-1.1,0.3-2.2,1-3.2c0.6-1,1.6-1.8,2.9-2.3
		c1.3-0.6,3.1-0.9,5.4-0.9C86.9,0.5,89,1,90.5,2s2.3,2.7,2.6,4.9l-6.3,0.4c-0.2-1-0.5-1.7-1.1-2.1s-1.3-0.7-2.2-0.7
		c-0.8,0-1.4,0.2-1.8,0.5s-0.6,0.7-0.6,1.2c0,0.3,0.2,0.7,0.5,0.9c0.3,0.3,1.1,0.6,2.3,0.8c2.9,0.6,5.1,1.3,6.3,1.9
		c1.3,0.6,2.2,1.5,2.8,2.4c0.6,1,0.9,2,0.9,3.2c0,1.4-0.4,2.7-1.2,3.9s-1.9,2.1-3.2,2.7c-1.5,0.7-3.2,1-5.3,1
		c-3.7,0-6.3-0.7-7.7-2.1S74.3,17.6,74.1,15.4z"/>
</g>
</svg>
