<?xml version="1.0" encoding="utf-8"?>
<!-- Generator: Adobe Illustrator 25.4.6, SVG Export Plug-In . SVG Version: 6.00 Build 0)  -->
<svg version="1.1" id="Layer_1" xmlns="http://www.w3.org/2000/svg" xmlns:xlink="http://www.w3.org/1999/xlink" x="0px" y="0px"
	 viewBox="0 0 23 24.9" style="enable-background:new 0 0 23 24.9;" xml:space="preserve">
<style type="text/css">
	.st0{fill-rule:evenodd;clip-rule:evenodd;fill:#BF131C;}
</style>
<path id="trash-can" class="st0" d="M3.1,23.4c0,0.8,0.6,1.5,1.5,1.5h0.1h13.4c0.9,0,1.6-0.6,1.7-1.5l1.5-15.9H1.6L3.1,23.4z
	 M14.8,12.5c0-0.4,0.3-0.8,0.8-0.8c0.4,0,0.8,0.3,0.8,0.8c0,0,0,0,0,0.1V20c0,0.4-0.3,0.8-0.8,0.8l0,0c-0.4,0-0.8-0.4-0.8-0.8
	C14.8,20,14.8,12.5,14.8,12.5z M10.7,12.5c0-0.4,0.3-0.8,0.8-0.8l0,0c0.4,0,0.8,0.4,0.8,0.8l0,0V20c0,0.4-0.3,0.8-0.8,0.8l0,0
	c-0.4,0-0.8-0.4-0.8-0.8V12.5z M6.5,12.5c0-0.4,0.3-0.8,0.8-0.8c0.4,0,0.8,0.3,0.8,0.8c0,0,0,0,0,0.1V20c0,0.4-0.3,0.8-0.8,0.8l0,0
	c-0.4,0-0.8-0.4-0.8-0.8V12.5L6.5,12.5z M21.3,2.5h-6.5V1.7c0-0.9-0.7-1.6-1.6-1.7H9.9C9,0,8.3,0.7,8.2,1.6l0,0v0.8H1.6
	C0.7,2.5,0,3.3,0,4.2s0.7,1.7,1.6,1.7h19.8c0.9,0,1.7-0.7,1.7-1.6C23,3.3,22.3,2.5,21.3,2.5L21.3,2.5z"/>
</svg>
