<?xml version="1.0" encoding="utf-8"?>
<!-- Generator: Adobe Illustrator 25.4.6, SVG Export Plug-In . SVG Version: 6.00 Build 0)  -->
<svg version="1.1" id="Layer_1" xmlns="http://www.w3.org/2000/svg" xmlns:xlink="http://www.w3.org/1999/xlink" x="0px" y="0px"
	 viewBox="0 0 59.7 60.4" style="enable-background:new 0 0 59.7 60.4;" xml:space="preserve">
<style type="text/css">
	.st0{opacity:0.26;}
</style>
<path class="st0" d="M58.9,8.2l-7.2-7.3C51.1,0.3,50.4,0,49.6,0l0,0c-0.8,0-1.6,0.3-2.1,0.9L5.6,43.4c-0.3,0.3-0.5,0.6-0.7,1
	L0.2,56.3c-0.4,1.1-0.2,2.4,0.7,3.2c0.6,0.6,1.3,0.9,2.1,0.9c0.4,0,0.7-0.1,1.1-0.2l11.8-4.7c0.4-0.2,0.7-0.4,1-0.7l41.9-42.5
	C60,11.3,60,9.4,58.9,8.2z"/>
</svg>
