<?xml version="1.0" encoding="utf-8"?>
<!-- Generator: Adobe Illustrator 25.4.6, SVG Export Plug-In . SVG Version: 6.00 Build 0)  -->
<svg version="1.1" id="Layer_1" xmlns="http://www.w3.org/2000/svg" xmlns:xlink="http://www.w3.org/1999/xlink" x="0px" y="0px"
	 viewBox="0 0 35 35" style="enable-background:new 0 0 35 35;" xml:space="preserve">
<style type="text/css">
	.st0{fill-rule:evenodd;clip-rule:evenodd;}
	.st1{fill-rule:evenodd;clip-rule:evenodd;fill:#FFFFFF;}
</style>
<path class="st0" d="M6,12.3c-1.5,0-2.9-0.6-4-1.7c-0.6-0.5-1-1.1-1.3-1.9c0.1,0,0.1,0,0.1,0l2.2-1L17.6,1l14.5,6.8l2.2,1
	c0.1,0,0.1,0,0.1,0c-0.3,0.6-0.7,1.2-1.3,1.8c-1.2,1.1-2.5,1.7-4.1,1.7H6L6,12.3z"/>
<rect x="7.5" y="7.9" class="st1" width="20" height="20"/>
<path class="st0" d="M18,20l16.7-7.8v13.6c0,1.6-0.6,2.9-1.7,4.1c-1.1,1.1-2.5,1.7-4.1,1.7H6c-1.6,0-2.9-0.6-4.1-1.7
	c-1.1-1.1-1.7-2.5-1.7-4.1V12.2L17,20c0.2,0.1,0.3,0.1,0.5,0.1S17.8,20.1,18,20L18,20z"/>
</svg>
