<?xml version="1.0" encoding="utf-8"?>
<!-- Generator: Adobe Illustrator 25.4.6, SVG Export Plug-In . SVG Version: 6.00 Build 0)  -->
<svg version="1.1" id="Layer_1" xmlns="http://www.w3.org/2000/svg" xmlns:xlink="http://www.w3.org/1999/xlink" x="0px" y="0px"
	 viewBox="0 0 35 35" style="enable-background:new 0 0 35 35;" xml:space="preserve">
<style type="text/css">
	.st0{fill-rule:evenodd;clip-rule:evenodd;}
</style>
<path class="st0" d="M6,4.9H29c1.6,0,2.9,0.6,4.1,1.7c0.6,0.6,1,1.2,1.3,1.8c0,0,0,0-0.1,0l-2.2,1l-14.5,6.8L3,9.5l-2.2-1
	c0,0,0,0-0.1,0C1,7.7,1.4,7.1,2,6.6C3.1,5.5,4.5,4.9,6,4.9L6,4.9z M18,18.5l16.7-7.8v13.6c0,1.6-0.6,2.9-1.7,4.1
	c-1.1,1.1-2.5,1.7-4.1,1.7H6c-1.6,0-2.9-0.6-4.1-1.7c-1.1-1.1-1.7-2.5-1.7-4.1V10.7L17,18.5c0.2,0.1,0.3,0.1,0.5,0.1
	C17.7,18.6,17.8,18.6,18,18.5L18,18.5z"/>
</svg>
