<?xml version="1.0" encoding="utf-8"?>
<!-- Generator: Adobe Illustrator 25.4.6, SVG Export Plug-In . SVG Version: 6.00 Build 0)  -->
<svg version="1.1" id="Layer_1" xmlns="http://www.w3.org/2000/svg" xmlns:xlink="http://www.w3.org/1999/xlink" x="0px" y="0px"
	 viewBox="0 0 35 35" style="enable-background:new 0 0 35 35;" xml:space="preserve">
<style type="text/css">
	.st0{fill-rule:evenodd;clip-rule:evenodd;}
</style>
<path class="st0" d="M7.2,4.9h20.6c1.4,0,2.6,0.6,3.7,1.7c0.5,0.6,0.9,1.2,1.2,1.8c0,0,0,0-0.1,0l-2,1l-13,6.8L4.5,9.5l-2-1
	c0,0,0,0-0.1,0c0.3-0.8,0.6-1.4,1.2-1.9C4.6,5.5,5.9,4.9,7.2,4.9L7.2,4.9z M17.9,18.5l14.9-7.8v13.6c0,1.6-0.5,2.9-1.5,4.1
	c-1,1.1-2.2,1.7-3.7,1.7H7.2c-1.4,0-2.6-0.6-3.7-1.7c-1-1.1-1.5-2.5-1.5-4.1V10.7l15,7.8c0.2,0.1,0.3,0.1,0.4,0.1
	S17.8,18.6,17.9,18.5L17.9,18.5z"/>
</svg>
