<?xml version="1.0" encoding="utf-8"?>
<!-- Generator: Adobe Illustrator 25.4.6, SVG Export Plug-In . SVG Version: 6.00 Build 0)  -->
<svg version="1.1" id="Layer_1" xmlns="http://www.w3.org/2000/svg" xmlns:xlink="http://www.w3.org/1999/xlink" x="0px" y="0px"
	 viewBox="0 0 128 128" style="enable-background:new 0 0 128 128;" xml:space="preserve">
<style type="text/css">
	.st0{fill:#FFFFFF;}
</style>
<path class="st0" d="M45.5,129c11.9,0,21.5-9.6,21.5-21.5V86H45.5C33.6,86,24,95.6,24,107.5S33.6,129,45.5,129z M24,64.5
	C24,52.6,33.6,43,45.5,43H67v43H45.5C33.6,86,24,76.4,24,64.5z M24,21.5C24,9.6,33.6,0,45.5,0H67v43H45.5C33.6,43,24,33.4,24,21.5z
	 M67,0h21.5C100.4,0,110,9.6,110,21.5S100.4,43,88.5,43H67V0z M110,64.5c0,11.9-9.6,21.5-21.5,21.5S67,76.4,67,64.5S76.6,43,88.5,43
	S110,52.6,110,64.5z"/>
</svg>
