<?xml version="1.0" encoding="utf-8"?>
<!-- Generator: Adobe Illustrator 25.4.6, SVG Export Plug-In . SVG Version: 6.00 Build 0)  -->
<svg version="1.1" id="Layer_1" xmlns="http://www.w3.org/2000/svg" xmlns:xlink="http://www.w3.org/1999/xlink" x="0px" y="0px"
	 viewBox="0 0 128 128" style="enable-background:new 0 0 128 128;" xml:space="preserve">
<style type="text/css">
	.st0{fill:#F9BC32;}
	.st1{fill:#F1B748;}
	.st2{fill:#F37321;}
	.st3{fill:#F9E149;}
	.st4{fill:#FAC828;}
	.st5{fill:#ECA425;}
</style>
<g id="g10" transform="matrix(1.3333333,0,0,-1.3333333,0,486.66667)">
	<g id="g12" transform="scale(0.1)">
		<path id="path14" class="st0" d="M134.3,2881.5l5.8,7.9l271.7,515.5l0.5,5.5l-119.7,224.9c-9.9,18.9-38.3,14-41.6-6.9
			L134.3,2881.5"/>
		<path id="path16" class="st1" d="M499.9,3240.6l89.3,91.5l-89.3,170.3c-8.5,16.1-32.2,16.1-40.5,0l-47.6-90.8v-7.7L499.9,3240.6"
			/>
		<path id="path18" class="st2" d="M134.3,2881.5l2.7,2.7l9.5,3.8l347.7,346.3l4.4,12l-86.7,165.3L134.3,2881.5"/>
		<path id="path20" class="st3" d="M510.9,2706.9l314.8,175.5L735.8,3436c-2.8,17.2-24.1,24.3-36.4,11.8l-565-566l313-174.9
			C467.1,2695.7,491.2,2695.7,510.9,2706.9"/>
		<path id="path22" class="st4" d="M822.8,2883.9l-89.3,549.2c-2.8,17.2-20.3,24.3-32.6,12l-563-562.5l309.6-173
			c19.6-10.9,43.5-10.9,63.2,0L822.8,2883.9"/>
		<path id="path24" class="st5" d="M510.9,2712c-19.7-10.9-43.8-10.9-63.7,0l-310.3,172.2l-2.5-2.7l312.9-174.7
			c19.7-11,43.8-11,63.7,0l314.8,175.5l-0.8,4.9L510.9,2712"/>
	</g>
</g>
</svg>
