<?xml version="1.0" encoding="utf-8"?>
<!-- Generator: Adobe Illustrator 25.4.6, SVG Export Plug-In . SVG Version: 6.00 Build 0)  -->
<svg version="1.1" id="Layer_1" xmlns="http://www.w3.org/2000/svg" xmlns:xlink="http://www.w3.org/1999/xlink" x="0px" y="0px"
	 viewBox="0 0 128 128" style="enable-background:new 0 0 128 128;" xml:space="preserve">
<style type="text/css">
	.st0{fill:#FFFFFF;}
</style>
<path class="st0" d="M0,0"/>
<g id="g10" transform="matrix(1.3333333,0,0,-1.3333333,0,486.66667)">
	<g id="g12" transform="scale(0.1)">
		<path id="path14" class="st0" d="M209.6,3080.2l4.3,5.9L414.7,3467l0.4,4.1l-88.5,166.2c-7.3,14-28.3,10.3-30.7-5.1L209.6,3080.2"
			/>
		<path id="path16" class="st0" d="M479.7,3345.5l66,67.6l-66,125.8c-6.3,11.9-23.8,11.9-29.9,0l-35.2-67.1v-5.6L479.7,3345.5"/>
		<path id="path18" class="st0" d="M209.6,3080.2l2,2l7,2.8l256.9,255.8l3.2,8.9l-64,122.1L209.6,3080.2"/>
		<path id="path20" class="st0" d="M487.9,2951.3l232.5,129.6l-66.4,409c-2.1,12.7-17.8,18-26.8,8.7l-417.5-418.2L441,2951.2
			C455.5,2942.9,473.3,2942.9,487.9,2951.3"/>
		<path id="path22" class="st0" d="M718.2,3082l-66,405.8c-2.1,12.7-15,18-24.1,8.9l-416-415.6l228.8-127.9c14.5-8,32.2-8,46.7,0
			L718.2,3082"/>
	</g>
</g>
<g>
	<path class="st0" d="M2.2,125.5v-24.4H19v4.1H7.1v5.8h10.2v4.1H7.1v10.4H2.2z"/>
	<path class="st0" d="M21.3,105.4v-4.3H26v4.3H21.3z M21.3,125.5v-17.7H26v17.7H21.3z"/>
	<path class="st0" d="M33.5,125.5h-4.7v-17.7h4.4v2.5c0.7-1.2,1.4-2,2-2.4s1.3-0.6,2-0.6c1.1,0,2.1,0.3,3.1,0.9l-1.5,4.1
		c-0.8-0.5-1.5-0.8-2.2-0.8s-1.2,0.2-1.7,0.5s-0.8,1-1.1,2c-0.3,0.9-0.4,2.9-0.4,5.9v5.6H33.5z"/>
	<path class="st0" d="M50.9,119.9l4.7,0.8c-0.6,1.7-1.5,3-2.8,3.9s-2.9,1.3-4.9,1.3c-3.1,0-5.4-1-6.8-3c-1.2-1.6-1.8-3.6-1.8-6.1
		c0-2.9,0.8-5.2,2.3-6.9c1.5-1.7,3.5-2.5,5.8-2.5c2.6,0,4.7,0.9,6.2,2.6s2.3,4.4,2.2,8H44.1c0,1.4,0.4,2.5,1.1,3.2
		c0.7,0.8,1.6,1.2,2.7,1.2c0.7,0,1.4-0.2,1.9-0.6S50.6,120.8,50.9,119.9z M51.2,115.2c0-1.4-0.4-2.4-1.1-3.1
		c-0.7-0.7-1.5-1.1-2.4-1.1c-1,0-1.9,0.4-2.5,1.1c-0.7,0.7-1,1.8-1,3L51.2,115.2L51.2,115.2z"/>
	<path class="st0" d="M57.7,125.5v-24.4h4.7v8.8c1.4-1.6,3.2-2.5,5.1-2.5c2.2,0,3.9,0.8,5.4,2.3c1.4,1.6,2.1,3.8,2.1,6.7
		c0,3-0.7,5.4-2.2,7s-3.2,2.5-5.2,2.5c-1,0-2-0.3-3-0.8s-1.8-1.3-2.5-2.2v2.6H57.7z M62.4,116.3c0,1.8,0.3,3.2,0.9,4.1
		c0.8,1.2,1.9,1.9,3.2,1.9c1,0,1.9-0.4,2.6-1.3s1.1-2.3,1.1-4.2c0-2-0.4-3.5-1.1-4.4s-1.7-1.3-2.8-1.3c-1.1,0-2.1,0.4-2.8,1.3
		C62.7,113.2,62.4,114.5,62.4,116.3z"/>
	<path class="st0" d="M80.6,113.2l-4.3-0.8c0.5-1.7,1.3-3,2.5-3.8s2.9-1.2,5.2-1.2c2.1,0,3.6,0.2,4.7,0.7c1,0.5,1.7,1.1,2.2,1.9
		c0.4,0.8,0.6,2.2,0.6,4.2v5.5c0,1.6,0.1,2.7,0.2,3.4c0.1,0.7,0.4,1.5,0.8,2.4h-4.6c-0.1-0.3-0.3-0.8-0.5-1.4
		c-0.1-0.3-0.1-0.5-0.2-0.5c-0.8,0.8-1.7,1.4-2.6,1.8s-1.9,0.6-2.9,0.6c-1.8,0-3.3-0.5-4.3-1.5s-1.6-2.2-1.6-3.8
		c0-1,0.2-1.9,0.7-2.7c0.5-0.8,1.1-1.4,2-1.8s2.1-0.8,3.7-1.1c2.2-0.4,3.7-0.8,4.6-1.2v-0.5c0-0.9-0.2-1.5-0.7-1.9
		c-0.4-0.4-1.3-0.6-2.5-0.6c-0.8,0-1.5,0.2-2,0.5S80.9,112.4,80.6,113.2z M86.8,117c-0.6,0.2-1.6,0.4-2.9,0.7
		c-1.3,0.3-2.2,0.5-2.6,0.8c-0.6,0.4-0.9,1-0.9,1.7s0.2,1.2,0.7,1.7s1.1,0.7,1.9,0.7s1.7-0.3,2.4-0.8c0.6-0.4,0.9-0.9,1.1-1.5
		c0.1-0.4,0.2-1.2,0.2-2.3v-1L86.8,117L86.8,117z"/>
	<path class="st0" d="M92.7,120.5l4.7-0.7c0.2,0.9,0.6,1.6,1.2,2.1s1.5,0.7,2.6,0.7c1.2,0,2.1-0.2,2.7-0.7c0.4-0.3,0.6-0.7,0.6-1.3
		c0-0.4-0.1-0.7-0.3-0.9c-0.2-0.2-0.8-0.4-1.6-0.6c-3.8-0.8-6.2-1.6-7.2-2.3c-1.4-1-2.1-2.3-2.1-4c0-1.5,0.6-2.8,1.8-3.9
		c1.2-1,3.1-1.6,5.6-1.6c2.4,0,4.2,0.4,5.4,1.2c1.2,0.8,2,2,2.4,3.5l-4.4,0.8c-0.2-0.7-0.5-1.2-1.1-1.6c-0.5-0.4-1.3-0.6-2.3-0.6
		c-1.2,0-2.1,0.2-2.7,0.5c-0.4,0.2-0.5,0.6-0.5,1c0,0.3,0.2,0.6,0.5,0.8c0.4,0.3,1.9,0.8,4.4,1.3c2.5,0.6,4.2,1.3,5.2,2.1
		c1,0.8,1.5,2,1.5,3.5c0,1.6-0.7,3-2,4.2c-1.4,1.2-3.4,1.8-6,1.8c-2.4,0-4.3-0.5-5.7-1.5C94.1,123.5,93.1,122.2,92.7,120.5z"/>
	<path class="st0" d="M121.9,119.9l4.7,0.8c-0.6,1.7-1.5,3-2.8,3.9s-2.9,1.3-4.9,1.3c-3.1,0-5.4-1-6.8-3c-1.2-1.6-1.8-3.6-1.8-6.1
		c0-2.9,0.8-5.2,2.3-6.9c1.5-1.7,3.5-2.5,5.8-2.5c2.6,0,4.7,0.9,6.2,2.6s2.2,4.4,2.2,8h-11.7c0,1.4,0.4,2.5,1.1,3.2
		c0.7,0.8,1.6,1.2,2.7,1.2c0.7,0,1.4-0.2,1.9-0.6C121.2,121.4,121.6,120.8,121.9,119.9z M122.2,115.2c0-1.4-0.4-2.4-1-3.1
		c-0.7-0.7-1.5-1.1-2.4-1.1c-1,0-1.9,0.4-2.5,1.1c-0.7,0.7-1,1.8-1,3L122.2,115.2L122.2,115.2z"/>
</g>
</svg>
