<?xml version="1.0" encoding="utf-8"?>
<!-- Generator: Adobe Illustrator 25.4.6, SVG Export Plug-In . SVG Version: 6.00 Build 0)  -->
<svg version="1.1" id="Layer_1" xmlns="http://www.w3.org/2000/svg" xmlns:xlink="http://www.w3.org/1999/xlink" x="0px" y="0px"
	 viewBox="0 0 35 35" style="enable-background:new 0 0 35 35;" xml:space="preserve">
<style type="text/css">
	.st0{fill-rule:evenodd;clip-rule:evenodd;}
</style>
<path class="st0" d="M17.5,0.7C9.1,0.7,1.9,6.8,0.6,15.2c-1.3,8.3,3.5,16.4,11.5,19.1c0.3,0.1,0.6,0.1,0.8-0.1s0.4-0.4,0.4-0.7v-2.9
	c-4.8,1-5.8-2.3-5.8-2.3c-0.3-1-1-1.9-1.9-2.5c-1.6-1.1,0.1-1,0.1-1c1.1,0.1,2.1,0.8,2.6,1.8c0.5,0.9,1.3,1.5,2.2,1.8
	s1.9,0.1,2.8-0.3c0.1-0.9,0.5-1.7,1.1-2.3c-3.8-0.4-7.8-1.9-7.8-8.5c0-1.7,0.6-3.4,1.8-4.6c-0.5-1.5-0.5-3.1,0.2-4.6
	c0,0,1.4-0.5,4.7,1.8c2.8-0.8,5.8-0.8,8.6,0c3.3-2.2,4.7-1.8,4.7-1.8c0.6,1.4,0.7,3.1,0.2,4.6c1.2,1.3,1.8,2.9,1.8,4.6
	c0,6.6-4,8.1-7.8,8.5c0.8,0.8,1.3,2,1.2,3.2v4.7c0,0.5,0.4,0.9,0.8,0.9c0.1,0,0.2,0,0.4-0.1c9-3,13.9-12.8,10.8-21.8
	C31.4,5.5,24.9,0.7,17.5,0.7z"/>
</svg>
