<?xml version="1.0" encoding="utf-8"?>
<!-- Generator: Adobe Illustrator 25.4.6, SVG Export Plug-In . SVG Version: 6.00 Build 0)  -->
<svg version="1.1" id="Layer_1" xmlns="http://www.w3.org/2000/svg" xmlns:xlink="http://www.w3.org/1999/xlink" x="0px" y="0px"
	 viewBox="0 0 128 128" style="enable-background:new 0 0 128 128;" xml:space="preserve">
<style type="text/css">
	.st0{fill:#010101;}
	.st1{fill:#8AC640;}
	.st2{fill:#F0EFEF;}
	.st3{fill:#0A1825;}
	.st4{opacity:0.3;fill:#010101;enable-background:new    ;}
	.st5{fill:none;}
	.st6{opacity:0.4;fill:#010101;enable-background:new    ;}
	.st7{fill:#8AC640;stroke:#010101;stroke-width:10.8638;stroke-linejoin:round;stroke-miterlimit:68.4979;}
</style>
<path class="st0" d="M24.4,55.9c-3.7,1.8-13.6,9.7-15.5,12c-2,2.3-2.6-1.3-0.5-7.4C10,55.6,14.1,49,21,43.3c4-3.3,12.9-8,18.3-10.8
	c1.1-0.6,15.3-6.6,27.9-9.6c1.1-0.3-1.3,1.8-1.7,3c-1.9,5.6-39.9,29.4-39.9,29.4L24.4,55.9z M77.9,123c0.7,4,0.1,4.2-4,4.8
	c-4.1,0.5-7.1-1-8.2-2c-1.1-1-1.3-3.3-0.2-5.3c0.7-1.3,1.3-1.8,1.7-3.4c0.4-1.5,0.7-1.9,1-2.5c0.3-0.5,0.4-1,0.4-4.6
	c0.1-3.6,0-10.3,0.4-13.2c0.4-2.9,13,1.3,13,1.3s-3,7.5-3.8,9.3c-0.8,1.8-0.7,5.3-0.7,6.1c0,0.7-0.3,2.2-0.5,2.3
	c-0.2,0.1,0.7,2,0.3,3.1C76.9,119.8,77.8,122.4,77.9,123L77.9,123z M82.7,11.2c-0.4-2.8,0-8.3,0.6-9.1c1.8-2.5,11.5-2.8,13.5,0.1
	c0.9,1.3,0.8,4.4,0.7,6.4c-0.1,2-0.7,6.2-0.7,7.6c-0.1,1-10.7,2.6-13-0.1C83.1,15.3,82.7,11.2,82.7,11.2L82.7,11.2z M104.2,115.9
	c4.5,3.2,7.9,3.8,10.2,5c2.3,1.2,1.7,3.4-2.1,4.1c-3.1,0.6-7.9-0.6-11.1-0.6s-10.4,0.4-12.3-1c-2.2-1.5-1.2-4.4-1.2-4.4
	c0.6-1.6,2-5.2,1.6-8.1c-0.4-2.9-1-4.5-2.1-7.2c-1.1-2.7-1.9-9.4-0.9-9.7c1-0.4,0.7,0,2,0.3c1.3,0.3,2.8,0.7,5.6,0.7s6-0.4,7.1-0.7
	c1.1-0.2,2-0.4,1.6,1.8c-0.4,2.3-1.5,6.5-1.5,9.8c-0.1,3.3-0.1,7.1,0.1,7.8C101.5,114.4,103.1,115.1,104.2,115.9L104.2,115.9z"/>
<path class="st1" d="M88.6,18.5c-8,7-23.6,8.9-46.8,17.8c-5.9,2.3-21.7,9.1-25.5,16.2c12.8-7.4,17.6,2.8,18.6,13.2
	c1,9.8,5.9,14.9,18.4,14.6c13-0.3,16.9,7.2,20.5,16.1c7-33.9,18.1-40.5,25.2-46.2C114.3,37.8,95.5,16,88.6,18.5L88.6,18.5z"/>
<path class="st1" d="M88.6,18.5c-19.3,6.7-38.4,8.4-60.9,22.2c-5.3,3.3-16.6,10.8-18.8,25c8.2-9.1,27.1-20.5,50.3-27.7
	c11.7-3.7,20.3-6.1,30.7-10.1C89.2,23.2,89.2,21.4,88.6,18.5L88.6,18.5z"/>
<path class="st0" d="M113.2,58.6c0,0-1.4,4.8-4.2,6.3c0,0-2,0.7-6.1-1.5c-1.2-0.7-2-2.9-2-3.7c0.1-1.8,1.2-2.6,1.2-2.6
	s1.2-2,2.6-1.9c1.4,0.1,3.7,0.3,4.5-0.4C109.8,54.1,113.4,56.2,113.2,58.6L113.2,58.6z M83.4,12.6c0,0-0.3,3.7-0.8,6.1
	c-0.1,0.4-2.3,0.7-3.9,1.3c3.1,8.8,21.6,8.7,24,4.4c-1.2-0.8-3.5-2-4.6-2.5c-1.1-0.4-1-0.4-1.1-2.4c-0.1-2-0.2-5.9-0.4-6.9
	C96.5,11.5,85.2,11.5,83.4,12.6L83.4,12.6z"/>
<path class="st2" d="M84.1,12.6c0,0,0,2.1-0.2,4.2c-0.1,1-0.1,1.5-0.3,2.3c-0.1,0.4,2.5,2.2,3.2,6.1c3.5,7.8,11.6,4,15,0.2
	c-1.2-0.8-3.1-1.9-5.3-2.8c-1.1-0.4-0.6-1.4-0.7-3.4c-0.1-2-0.4-5-0.5-6.1C95.3,11.8,85.9,11.5,84.1,12.6L84.1,12.6z"/>
<g>
	<path class="st0" d="M83.4,12.6c0,0-0.1,1.3-0.3,2.9c1,1,2.2,2.3,3.1,3.1c0.7,0.6,2.3,0.5,3.7,0.5c1.3,0,2.5,0.1,3-0.1
		c1.2-0.6,2.9-2,3.8-3.1c-0.1-1.3-0.1-2.6-0.2-3.1C96.5,11.5,85.2,11.5,83.4,12.6z"/>
	<path class="st0" d="M90.1,18.1c-0.9,0-1.9-0.1-2.7-0.2c-0.4-0.1-0.7-0.3-1-0.4c-0.5-0.4-1-0.8-1.6-1.2c-1.2-0.9-1.2-1.4-1.2-1.6
		c0.5-4.6-0.1-8.5-0.1-8.5s-0.5-2,2.3-2.5S90.1,3,90.1,3s1.8,0,4.5,0.6c2.8,0.5,2.3,2.5,2.3,2.5s-0.7,3.9-0.1,8.5
		c0,0.2-0.1,0.7-1.2,1.6c-1,0.7-1.8,1.5-2.6,1.7C92,18,90.9,18.1,90.1,18.1z"/>
	<path class="st0" d="M90.1,1.1c-4.8,0-5.8,1.3-7.2,2.8c-0.3,0.4-0.1,2.6,0.4,7.2H84c0,0-0.4-1.3-0.4-2.9s0.4-1.5,0.1-1.8
		c-0.3-0.4-0.9-1.2,0.4-1.9c1.3-0.7,3.4,0.6,5.9,0.7c2.5-0.1,4.6-1.4,5.9-0.7c1.3,0.7,0.7,1.5,0.4,1.9c-0.3,0.4,0.1,0.3,0.1,1.8
		c0.1,1.5-0.4,2.9-0.4,2.9h0.7c0.4-4.7,0.7-6.7,0.5-7.1C96.1,2.5,94.9,1.2,90.1,1.1z M113.2,58.8c0,0-1.4,4.5-4.1,6
		c-0.6-0.3-0.5-0.7-1-1.4c-0.1-0.2-0.7-0.4-0.9-0.6c-0.2-0.2-0.1-0.6-0.5-0.9c-0.3-0.3-0.5-0.1-0.8-0.3c-0.3-0.3-0.4-0.7-0.6-0.9
		c-0.1-0.1-0.7-0.2-0.9-0.4c-0.4-0.4-3.6-1-3.4-1.8c0.3-1.1,0.9-1.9,0.9-1.9s1.4-2,2.8-2c1.4,0.1,2.7,0.4,3.4-0.3
		C108.9,53.7,113.5,56.4,113.2,58.8L113.2,58.8z"/>
	<path class="st0" d="M103.7,26.5c0,0,4.6-1.1,7.8,1.9c3.1,3.1,2.9,6.9,2,9.2c0.8,1,2.3,3.6,1.2,6.7c4.8,4.1,2.7,10.4-1.6,14.6
		c0,0-1-3.8-5.1-4c0.1-1.5-3.8-2.6-2-6.4c-2.8-0.7-2.7-2.6-3.1-4.9C102.4,41.2,103.7,26.5,103.7,26.5L103.7,26.5z"/>
</g>
<path class="st2" d="M102.1,28.5c0,0,5.3-2.7,8.5,0.4c3.1,3.1,2.3,6.4,1.3,8.8c0.8,1,2.7,3.7,1.5,6.9c-0.2,0.7-1.8,0.7-3,2.6
	c2.9-1.7,4.8-1.2,5.4,0.9c1,3.3-1.2,7.2-3.2,9.4c0-0.1-0.1-0.1-0.1-0.2c-0.3,1.1-0.7,3.2-2.9,5.6c-1.1,1.2-2,1-3.2,0.7
	c-1.5-0.4-2-1-4-2.1c-1.2-0.7-0.5-1.5-0.5-2.1c0-0.1,0.1-0.4,0.4-0.7c0.1-0.4,0.6-1,1.2-1.6c0,0,1-1.3,2.3-1.2
	c1.4,0.1,2.9-0.2,3.2-0.6c0-2.6-2.9-2.6-1.9-7c0.1-0.2,0.4-0.6,1.6-0.7c-1.8-0.4-2.6-0.4-3.8-1.6c-0.9-0.8-1.5-1.8-1.8-3.1
	C102.8,40.4,102.1,28.5,102.1,28.5L102.1,28.5z"/>
<path class="st0" d="M86.6,23.9c-0.4-0.6-2.7-3.5-7-4.7c-1.2-0.4-2,0.7-3.3,1.4c-0.4-0.2-2-1-2.9-0.4s-1.5,1-2.3,1.4
	c-0.4-0.2-1.6-0.2-2.6,0.1c-1,0.3-2.4,1-3.8,2.9c-0.9,3.1,15.5,0.8,15.5,0.8L86.6,23.9z"/>
<path class="st1" d="M86.8,23.9c-2.3-0.8-2-3.5-7.2-4c-1-0.1-1.7,0.7-2.4,1.2c0.4,0.4,0.7,1,1,1.5c-0.7-0.7-1.8-1.7-3-1.9
	c-1.1-0.2-1.8,0.6-3,1.2c0.2,0.2,0.4,0.6,0.7,1c-1-0.7-1.8-0.9-3.1-0.4c-1,0.3-2.8,1.1-4.2,3.1c-0.9,3.1,14.8-0.4,14.8-0.4
	L86.8,23.9z"/>
<path class="st0" d="M100.5,25.1c0,0,0-0.8-0.1-1.5c0-0.1-0.6-0.5-0.6-0.7l-0.1-0.1c0,0,1.2-0.7,2-0.3c1,0.3,1.5,1.5,1.5,1.5
	c1.7-0.6,1.8,0.1,2.6,1c1.8-0.4,2,0.3,3.1,1.9c0,0-1.3-0.2-3.9,0.2C102.6,27.4,100.5,25,100.5,25.1L100.5,25.1z"/>
<path class="st1" d="M100.2,24.7c0,0,0.4-0.4,0.3-0.4c0.8-0.4,1.9-1,2.4,0.4c1.7-0.6,1.9,0.2,2.7,1.1c2-1,2.2,0.2,2.3,0.7
	c-0.7,0-1.6,0.1-2.9,0.2C102.6,27.1,100.2,24.6,100.2,24.7z"/>
<path class="st0" d="M75.3,22.9c0,0,4.2,1.5,7.7,1.2c3.5-0.3,9.5-0.6,12.7,1.3c0,0,3.3-1.2,6.4-0.4c3.1,0.8,8.7,6.1,7,11.6
	c-0.1,0.4-1.1,1-2.2,1.3c0,0,0.6,2.5-0.4,4.5c-1,2-3.3,5.8-3.4,11c-0.1,0.9-0.2,2.7-0.4,3.6C97.1,57,88.3,54.8,79.7,55
	c0.1-1,0.1-1.5,0.2-2.5h0.2c-0.4-2.4-0.6-3.7-1-5.5c-2.8-1.8-5.7-3.8-8.2-7.7C68.5,35.5,75.3,22.9,75.3,22.9L75.3,22.9z M103.6,62.4
	c0,0,4.5,16.2-0.8,23c0,0,0.8,3.1-1,6.5c-0.3,1.5-0.7,2.8-0.9,4.2c-1,6.1-2.6,8.6-3,18.4l-4.4-0.1c0,0-0.5-7-2-10.8
	c-0.9-2.1-4.3-5-4.2-7.8c0.1-2.2,0.6-4,4.3-7c0.3-4.2-4-8.3-3.3-24.1L103.6,62.4z"/>
<path class="st2" d="M102.3,61.7c1.2,7.5,3.9,18.5-1,23.9c0.3,1.4,0.3,2.8,0.1,4.2c-0.1,0.9-0.4,1.8-0.8,2.9c-0.7,1.8-1,4.3-1.2,5.9
	c-1,6.1-1,6.4-1.4,16.1l-4.4-0.1c0,0-0.5-7-2-10.8c-0.9-2.1-2.7-4-2.9-6.8c-0.1-2.2,1.4-6.6,5-6.4c-0.2-8.9-4.3-7.1-5.4-25.5
	L102.3,61.7z M75.3,22.9c0,0,1.6,0.5,3.4,0.7c1.8,0.1,3.7,0,5.3-0.1c3.5-0.3,8.5-0.7,11.8,1.2c0,0,1.8-0.6,3.8-0.4
	c0.9,0.1,1.8,0.8,2.8,1.1c3.2,0.8,6.3,6.1,4.9,11c-0.1,0.4-1.2,0-2.3,0.4c0.2,1,0.4,3.4-0.8,5.9c-1.2,2.5-2.9,5.7-2.6,11.9
	c-7.7-0.4-11.1-0.9-18.7-1.2c-0.7-2.7-1.1-5.4-1.2-6.8c1-0.5,1.6-1,2.4-1.8c-2.2,0.4-3.1,0.2-4.4-0.5c-1.3-0.7-3.7-3.1-4.8-4.6
	c-0.1-0.1-1,2.3-2.8,2.3c-0.7-1,2.1-3.7,1.6-4.7C71.9,33.3,75.3,22.9,75.3,22.9L75.3,22.9z"/>
<path class="st0" d="M102.9,55.6c0,0,0.1,2.6,0.1,3.3c0,0.7,0.6,2.9,0.7,4c-0.8,1.4-4.3,4.5-10.7,5.7C86.7,69.9,78.3,60,78.3,60
	c0.2-1,1-3.7,1.5-5.2c0.1-0.1,0.2-0.5,0.2-0.7C80.7,53.2,102.9,55.6,102.9,55.6z"/>
<path class="st2" d="M101.3,55.9c0,1.8,0.3,3.1,0.5,4.3c0.4,2.1,1,3.5,1,4.9c0,4.2-5.6,3.5-10.2,3.7c-6.3,1.3-11.6-8.6-11.6-8.6
	c0.4-1.7,0.7-3.6,1.4-5.2c0.1-0.9,0.2-2,0.3-2.5c8.9,0,15.2,0.5,18.9,0.9C101.5,54.2,101.4,55.6,101.3,55.9L101.3,55.9z"/>
<path class="st0" d="M94.2,65.3c0,0-3.9-8.6-15.5-6.1c-2.8,7.8-6.5,16.8-4.1,26.6c-2.4,3.3-5.2,5.1-5.2,11.2c0,6.1,0.3,7.1,0.3,7.1
	l8.6,0.4c0,0,2.8-3.6,3.9-7.5c0.3-1.1,0.6-3.1,0.4-5.3c0.3-0.4,1.5-1.5,1.7-3.4c0,0,4.2-2.2,6.6-7.5C93.1,75.9,92.5,71.7,94.2,65.3
	L94.2,65.3z"/>
<path class="st2" d="M94.2,65.3c-0.2-0.8-3.1-8.7-14-6.4c-6.4,17-4,24-3.1,27.1c-4.3,5.5-6.3,6.7-5.4,17.8h5.7
	c2.6-4.2,3.2-5.7,3.4-11.2c0-0.2-0.8,0.4-1.4,1.2c0.4-2.3,1.7-2.7,2.6-4.1c0.4-0.6,0.8-1.5,0.8-2.6c5.1-3.4,7-7.8,8.1-12.2
	C91.9,71.7,92.9,66.7,94.2,65.3L94.2,65.3z"/>
<g>
	<path class="st0" d="M76.2,53.5c0,0,2,0.1,3.7,0.7c1.7,0.6,1.7,1,2.3,1.7c0.7,0.7,2.3,1.8,2,2.9c-0.1,0.6-0.5,0.7-1,1.2
		c-0.2,0.2-1.8,2-2.2,2.2c-0.2,0.1-0.5,0.4-0.7,0.5l-1.1,0.7c-0.7,0.4-1.2,0.6-2,0.5c0,0-1.8-0.1-3-1.3c0,0-0.1-0.6,0.1-0.9
		c0,0-1.5-1.3-2-2.2c-0.4-0.9-0.4-2.1-0.1-2.8C72.3,56.2,75.1,54.3,76.2,53.5L76.2,53.5z M78,124.7l-0.2,1.8c0,0-0.7,0.8-5.6,0.7
		c-5-0.1-6.3-1.6-6.7-2.4l-0.3-1.9c0,0,1-1.4,1.2-1.4c1.6,0.1,7.1,2.3,10.9,2.9C77.6,124.5,77.7,124.6,78,124.7L78,124.7z M88.6,121
		c0,0.8-0.1,0.8-0.1,1.6c0.9,0.7,3.1,1,7.2,1c6.1-0.1,11.7,1.8,18.6,0.7l0.1-1.3l-0.7-0.1l-24.4-2L88.6,121z"/>
	<path class="st0" d="M93.9,123.5h1.8c4-0.1,7.7,0.7,11.7,1c2.1-0.1,4.8-0.6,4.5-2.1l-20.8-1.8C90,122,90.9,123.2,93.9,123.5
		L93.9,123.5z M70.1,92.7c0.7,0.4,5.1,3.1,12.4,2.7c-0.1,1.4-0.1,4.1-3.3,8.9c-1.6,2.3-3,6.4-3.3,11.6c0.1,1.2,0.7,2.2-0.1,3.7
		c0.3,1,1.5,2.9,2,4c0.6,1.2,0.9,2.5-3,2.6c-4,0.1-10.3-0.4-9.4-3.4c0.4-1.6,1.7-3.3,1.8-4c0.1-0.7,0.1-2.6,1.4-4
		c1.1-3.7,0.7-7.2,0.5-10.5C68.7,101,68.6,95.5,70.1,92.7L70.1,92.7z M76.9,33.1c5.2-7,0.8-12.5-7.5-10.8c-3.4,0.7-6.7,3-7,7.2
		c-1.1,0.1-3.6,0.3-4.8,4.8c-1,3.5-1.5,4.2-3.1,5.9c-1.1,1.2,0.1,3.8,0.9,5.6c2.7,6.3,11,6.9,16.7,11.6c1.9-0.5,3.9-2.6,4.5-4
		c-4.8-5.6-3.7-7.8-5.6-10.8C72.9,42,77.5,39.2,76.9,33.1L76.9,33.1z"/>
</g>
<path class="st2" d="M75.9,32.7c0.3-0.4,0.8-1.4,1-1.8c0.1-0.1,0.9,1.3,1,1.2c2-3.2,2.5-7.9,0.2-8.3c-0.5-0.1-1.5-0.3-2.3-0.6
	c-1.5-0.5-2.8-0.5-5.1-0.1c-3.2,0.6-6.4,2.9-6.4,6.3c0,0.2,2.3,0.9,2.9,3.6c-1.1-1.5-3-3.2-5.3-1.8c-2.4,1.5-1.2,5-4.4,8.7
	c-1.1,1.2-1,2.7,0.2,5.6c1.9,4.6,10.9,7.1,15.8,11.5c1.2-0.5,2-1.7,2.6-2.6c-3.3-3.4-4.6-6.7-5.6-9c-1.2-2.7-2.5-4.2-5-6.3
	c1.3,0.5,2.3,1,2.9,1.5c0.7,0.4,1.6,0.5,2.5,0.2C74,39.8,75.7,35.5,75.9,32.7L75.9,32.7z"/>
<path class="st0" d="M107.7,33.8c-0.2,2.8-2.3,1.4-3.4,0.9c-2.2-1-4.4-1.6-7-1.6c-2.6,0-5.9,0.2-8.7,1c-4,1.1-5.1,1-6.9,0.1
	c-1.8-1-4.8-3.3-4.8-3.3s-0.1,0.7,0.7,1.7c1,1.2,3.1,2.6,5.9,3.6c1.4,0.4,2.5,0.1,3.7-0.1c6.5-1.6,13.4-1.9,19.2,1.6
	c0.3,0.1,1.3-0.3,1.8-1C108.8,35.7,107.7,33.8,107.7,33.8z"/>
<path class="st3" d="M74.4,61.7c0.6,0.4,1.3,0.6,2.1,1.2c0,0-0.7,0-1-0.3C75.2,62.4,74.5,61.8,74.4,61.7z"/>
<path class="st2" d="M95.5,3.7C95.3,3,93.7,1.9,90,1.9c-4,0-5.2,1.2-5.3,1.9c0,0.2-0.3,2.6-0.4,3.5c0,0,0,1.2,0.1,2.9
	c0.1,1.2,0.4,1.8,0.5,3.4c0.1,1.6,0.6,2.6,1.4,4c0.4,0.2,0.7,0.4,1,0.5c1.5,0.3,4,0.4,5.4,0c0.8-0.2,1.8-1.6,2-2.9
	c0.3-1.5,0.6-2.6,0.7-3.6c0.1-1,0.2-3.1,0.3-3.7C96,6.3,95.6,3.8,95.5,3.7L95.5,3.7z"/>
<path class="st0" d="M87.9,94.1c0,0,3.9,1.7,13.5,0.2c0,0-2.7,13.6-1.5,20.4c0,0,1.2,1.8,10.5,5.1c0,0,4.1,1,4,3.1
	c0,0,0.1,0.4-4.8,0.3c-5-0.1-9.7-1-13-1c-3.3,0-6.8,0.1-7.4-0.8c-0.7-0.9,0.1-3.1,1.1-4.5c1-1.4,0.7-2.4,0.7-4.9
	C90.6,105.5,85.7,98.8,87.9,94.1L87.9,94.1z"/>
<path class="st1" d="M87.1,95.4c-0.5,0.7,0.1,3.5,0.8,6.2c0.7,2.7,2.3,4.3,2.7,8.8c0.4,4.4,0.4,5-0.8,7.5c-1.2,2.6-1.6,4.9,2.7,5
	s6.7-0.1,11,0.6c4.4,0.7,5.9,0.9,8.3,0.5s2.9-1.2,1.9-1.9c-1-0.7-5.3-1.5-7.1-3c-1.8-1.3-6.7-3.5-6.8-4.1c-0.2-2-0.3-9.1,0.1-11.5
	c0.4-2.3,0.9-5.7,1-6.6c0.1-0.9,0.9-1.8-0.4-1.5c-1.2,0.3-5.9,1-9.4,0.7C87.6,96,87.3,95.2,87.1,95.4L87.1,95.4z"/>
<path class="st4" d="M89.5,118c1.2,0.6,3.1,1,4.5,1c0,0-0.5,2.4,0.3,3.9c0.8,1.5-5.9,0.6-5.9,0.6l-0.3-5.2L89.5,118z M108.9,124.3
	c1.2-0.4,2-1.7,1-2.9c-1-1.2-1.9-1.5-0.6-1.5c1.3-0.1,6.1,2.9,6.1,2.9l-2.5,2.3L108.9,124.3z M86.8,98.2c1.7,0.6,4.2,0.7,6.4,0.7
	c2.2-0.1,5.5-0.4,7.6-1.1c2.1-0.7,1.2,0.8,1.2,0.8l-1.2,1.1c0,0-2.8,1.1-7.3,1c-5.3-0.1-7-0.7-7-0.7L86.8,98.2z M87,101.9
	c1.7,0.6,4.2,0.7,6.4,0.7c2.2-0.1,5.1-0.1,7.2-0.9c0.9-0.3,0.4,1,0.4,1l-0.4,0.7c0,0-2.9,1-7.3,1c-5.3-0.1-6.3-0.5-6.3-0.5L87,101.9
	z"/>
<path class="st5" d="M87.9,94.1c0,0,6.4,2.3,13.5,0.7c0,0-2.8,13.1-1.5,19.8c0,0,1.2,1.8,10.5,5.1c0,0,4.1,1,4,3.1
	c0,0,0.1,0.4-4.8,0.3c-5-0.1-9.7-1-13-1c-3.3,0-6.8,0.1-7.4-0.8c-0.7-0.9,0.1-3.1,1.1-4.5c1-1.4,0.7-2.4,0.7-4.9
	C90.6,105.5,85.7,98.8,87.9,94.1L87.9,94.1z"/>
<path class="st5" d="M87.9,94.1c0,0,6.4,2.2,13.5,0.7c0,0-2.8,13.2-1.5,19.9c0,0,1.2,1.8,10.5,5.1c0,0,4.1,1,4,3.1
	c0,0,0.1,0.4-4.8,0.3c-5-0.1-9.7-1.5-13-1c-3.4,0.6-6.8,0.4-7.4-0.8c-0.5-1,0.1-3.1,1.1-4.5c1-1.4,0.7-2.4,0.7-4.9
	C90.6,105.5,85.7,98.8,87.9,94.1L87.9,94.1z"/>
<path class="st0" d="M82.2,50.6c0,0.5,5.7,3.4,8.9,4c3.1,0.6,9.7,0,10.8-0.2l-0.1,1c0,0-7.8,1.2-13.8-0.4c-6-1.6-5.3-2-5.3-2
	L82.2,50.6z"/>
<path class="st2" d="M69.9,113c0.9,0.4,4,1.2,6.1,0.8c0.3-0.1,0-5,0.8-7.3c1.2-3.1,3.1-5.7,4-11.3c-3.1-0.3-6.6-1.1-8.4-1.7
	C70,100.7,70.8,106.9,69.9,113L69.9,113z M74.8,117.6c0.5,0.1,0.9,0.7,1,0.4c0.3-0.7-0.5-1.9-0.6-2.8v-0.1c-0.7-0.6-5.1-0.7-4.8-0.4
	c-0.5,1-1.3,0.8-1.6,2.7c-0.1,1,1,0.1,2.1,0.1c-2,1.3-4.2,3-4.6,4.5c-0.4,2,0.3,2.6,2.5,3.7c1.9,0.4,4.2,0.5,5.9,0.4
	c2-0.4,2.3-1.3,1.8-2.6C75.6,121.6,75.1,119,74.8,117.6L74.8,117.6z"/>
<path class="st0" d="M75.6,22.6c2.4,1.4,5.8,1,7,1c0.3,0,3.2-0.5,3.4-0.4c0.3,0.1,0.3,0.3,0.3,0.3s-1.1,0.6-3.6,0.7
	c-2.3,0.1-5.1,0-6.7-0.7C74.3,22.6,75.6,22.6,75.6,22.6L75.6,22.6z M100.5,24c0.4,0.3,3.3,1.4,4.5,2.7c1.1,1.2,0.5,1.1,0.3,0.8
	c-0.3-0.4-2.6-1.9-3.4-2.3s-2-1-2-1.2C99.9,23.9,100.5,24,100.5,24L100.5,24z"/>
<path class="st2" d="M75.3,54.3c2.1-0.1,4.3,0.4,5.7,1.8c0.7,0.7,1.9,1.5,1.8,2.3c0,0.2-0.4,0.8-0.8,1.2c-0.2,0.3-0.9,1-1.1,1.2
	c-0.3,0.2-1.3,1-1.5,1.2c-0.2,0.1-0.5,0.5-0.7,0.6c-0.7,0.4-1.5,0.1-2.3-0.3c-0.7-0.4,0.1-0.4-0.7-1c-2-1.4-3.1-2.3-2.3-5
	C73.4,55.7,74.3,55.1,75.3,54.3L75.3,54.3z"/>
<path class="st6" d="M56.6,37.6c-6.6,2.6-23.3,11-28.1,13.5c4,2.5,5.8,8.5,6.4,14.6c0.1,0.6,0.1,1.1,0.2,1.7
	c0.1,0.5,0.1,0.9,0.2,1.1c0,0.1,0,0.2,0.1,0.3C39.7,57,55.2,44.5,55.7,43.6c0.3-0.4-0.4-2.3,0.7-4.2C57.7,37.1,60.3,36,56.6,37.6
	L56.6,37.6z M72.3,92.8c3.4-6.7,3.4-13.2,3.4-20.7c0-3.1,2.3-7.6,1.1-6.4c-4.4,4.9-15.4,14.1-23.4,14.6C64.5,80,68.9,85.6,72.3,92.8
	z"/>
<path class="st0" d="M22.1,57.3c4.2-3,25.8-14.5,30.9-16.1c5.2-1.7,3.6-3.7,3.6-3.7S35.5,46.6,23,54.5"/>
<path class="st6" d="M83.5,36.2c-1.7-0.7-3,1.3-2.6,3.2c0.4,1.9,4.4,4,4.2,11c-0.1,5.7-1.4,8-1.4,8L81,54.9c0,0-0.4-7.9-1.4-9.1
	c-1-1.2-4-3.3-5.1-4.4c-1.2-1.1,1.3-2.6,1.2-4.6c-0.1-2,1.2-5.9,1.2-5.9L83.5,36.2z M93.7,67.4c-0.1,5.5,1.1,13.6,1.6,17.5
	c0.5,3.9,1.2,4.2,0,5.9c-1.2,1.7-2.7,4.5-2.7,4.5l-5-0.4c0,0,4-5.1,4.2-6.1c0.2-1-2-8.2-2-8.2L93.7,67.4z M84,16.1
	c1,2.3,2.3,3.3,4.2,4c1.2,0.4,5.8,1,7.6-1c0.8-1,0.3-3.5,0.3-3.5L92,18.9l-5.6-1l-0.7-1.7L84,16.1z"/>
<path class="st7" d="M84.4,21.2c1.9,1.2,6.7,2.4,8,2.6c1.3,0.3,3.4-1.4,4.5-1.8c1.1-0.5,3-0.8,5.2,1.2c0.2,0.2-0.5,1.2-0.5,1.2
	c-0.1-0.1-0.5-0.1-1.1-0.4c-0.6-0.3-1.1-0.5-2-0.4c-3.7,0.4-4.2,1.7-7.5,1c-3.2-0.7-4-1.3-7.2-1.2"/>
<path class="st1" d="M83.8,21.4c2.4,1,7.1,2.1,8.4,2.4s3.4-1,4.5-1.7c1.8-1.2,4.2-0.2,5.3,1c0.7,0.8,1,1.3,1,1.5c0,0.3-0.9,0-0.9,0
	c-0.5-0.2-1.1-0.3-1.5-0.6c-0.6-0.3-1.2-0.7-2-0.7c-3.7,0.4-4.4,1.7-7.5,1s-4-1.4-7.3-1.2"/>
<path class="st0" d="M72.4,89.7c-0.1-0.1,0.1-0.3,0-0.3c-1,0-2.3-0.7-3-1.8c-3.1-4.5-7.8-7.5-16.1-7.3c-12.5,0.3-17.5-4.8-18.4-14.6
	c-0.5-5.3-2-10.5-5-13.5l-1.8,1.1c3.4,2.9,4.5,7.7,5.2,14.2c1.2,9.8,9.1,14.3,18.3,14.5c9.6,0.1,13,2.1,16.6,7
	c1.2,1.5,2.5,2,3.5,2.3L72.4,89.7z"/>
<path class="st6" d="M106.4,42.7c0.2,1.1,0.8,3.2,2,4.2c0.5,0.5,0.6,0.7,0.1,0.7c-0.4,0-3.7-0.1-3.7-0.1l-0.9-1.5L106.4,42.7z"/>
</svg>
