<?xml version="1.0" encoding="utf-8"?>
<!-- Generator: Adobe Illustrator 25.4.6, SVG Export Plug-In . SVG Version: 6.00 Build 0)  -->
<svg version="1.1" id="Layer_1" xmlns="http://www.w3.org/2000/svg" xmlns:xlink="http://www.w3.org/1999/xlink" x="0px" y="0px"
	 viewBox="0 0 128 128" style="enable-background:new 0 0 128 128;" xml:space="preserve">
<style type="text/css">
	.st0{fill:#FFFFFF;stroke:#FFFFFF;stroke-width:2;stroke-miterlimit:10;}
</style>
<g>
	<path class="st0" d="M113.2,119.6c-2.2-1.2-5.6-1.8-10-4.9c-1.1-0.8-2.6-1.5-2.9-2.2c-0.2-0.7-0.2-4.4-0.1-7.6
		c0-3.2,1.1-7.3,1.5-9.6c0.4-2-0.4-2-1.3-1.8c0.2-0.7,0.4-1.5,0.5-2.3c1.8-3.3,1-6.4,1-6.4c4.2-5.4,2.1-16.9,1.2-21
		c3.3,1.5,4.9,0.9,4.9,0.9c0.7-0.4,1.3-1,1.8-1.6c1.5-1.9,2.3-4.4,2.3-4.4l0,0c4.1-4.1,6.1-10.2,1.5-14.2c1.1-3-0.4-5.6-1.2-6.6
		c0.9-2.2,1.1-6-2-9c-0.8-0.8-1.7-1.2-2.6-1.6c-1-1.5-1.2-2.2-3-1.8c-0.8-0.9-0.9-1.6-2.5-1c0,0-0.5-1.2-1.5-1.5
		c-0.2-0.1-0.4-0.1-0.6-0.1c-1-0.6-2.2-1-3.4-0.7c-0.6-0.3-0.5-0.6-0.6-2.2c-0.1-1-0.1-2.5-0.2-3.9c0.1-1.7,0.6-5.1,0.7-6.8
		c0.1-2,0.2-5-0.7-6.3c-2-2.8-11.4-2.5-13.2-0.1c-0.6,0.8-1,6.2-0.6,8.9c0,0,0.2,1.8,0.5,3.2c-0.1,1.2-0.3,2.8-0.6,4.1
		c-0.1,0.3-1,0.5-2.1,0.8c-0.3-0.1-0.5-0.2-0.8-0.3c-1.2-0.4-2,0.7-3.2,1.4c-0.4-0.2-2-1-2.8-0.4c-0.9,0.6-1.5,1-2.2,1.4
		c-0.4-0.2-1.6-0.2-2.5,0.1c-0.7,0.2-1.6,0.6-2.5,1.5c-12,3-25,8.5-26,9.1c-5.3,2.7-14,7.3-17.9,10.6c-6.7,5.6-10.8,12-12.3,16.8
		c-2.1,6-1.5,9.5,0.5,7.2c1.6-1.9,8.5-7.6,12.9-10.4V57c0.3-0.2,0.7-0.5,1.1-0.7c0.4-0.3,0.8-0.5,1.1-0.6l1.2-0.6c0,0,1-0.6,2.7-1.7
		c3.1,2.9,4.2,7.5,4.8,13.6C35.3,76.6,43,81,52,81.2c9.4,0.1,12.7,2.1,16.2,6.8c0.8,1,1.7,1.6,2.5,1.9c-0.4,0.7-0.6,1.4-0.9,2.2
		c-0.4,1-0.7,2.2-0.8,3.4c0,0,0,0,0,0.1c-0.4,2.8-0.3,9.4-0.4,12.9c0,3.5-0.1,4-0.4,4.5c-0.3,0.6-0.6,1-1,2.4
		c-0.4,1.6-1,2.1-1.7,3.3c-1.1,2-0.9,4.2,0.2,5.2s4,2.4,8,2c3.2-0.5,4.2-0.7,4.1-2.8c0-0.2,0-0.4,0-0.6c0-0.4-0.1-0.8-0.2-1.3
		c-0.1-0.6-1-3.1-0.6-4c0.4-1.1-0.5-2.9-0.3-3s0.5-1.6,0.5-2.2c0-0.8-0.1-4.2,0.7-6c0.3-0.8,1.1-2.6,1.8-4.3c2.2-3.7,2.3-6,2.4-7.2
		c0.2-1,0.2-2.4,0.1-3.8c0.3-0.4,1.5-1.5,1.7-3.3c0,0,3.3-1.8,5.7-5.9c0.8,2.8,1.6,4.6,1.4,6.4c-2.6,2.1-3.6,3.6-4,5.1
		c-0.5-0.2-0.5-0.3-1.2,0c-0.9,0.3-0.3,6.1,0.7,9v0.7c0,0,0.1,0,0.3,0.1c1,2.5,1.6,4,1.9,6.8c0.4,2.8-1,6.4-1.6,7.9
		c0,0-0.8,2.3,0.7,3.9v0.5c0,0,0.3,0,0.8,0.1c2.2,1.1,8.7,0.8,11.7,0.8c3.1,0,7.8,1.2,10.9,0.6l0,0l0.5,0.1l0.4-0.3
		C115,122.6,115.3,120.7,113.2,119.6z M56.8,38.2c3.5-1.5,1-0.5-0.2,1.8c-1.1,1.9-0.4,3.7-0.7,4.1c-0.1,0.1-0.4,0.4-0.8,0.9
		c-0.5-1.3-1-2.7-0.6-3.6C57.6,39.9,57,38.5,56.8,38.2z M71.5,90.7l0.7-1.6c-0.1-0.1,0.1-0.3,0-0.3c-0.2,0-0.4,0-0.6-0.1
		c0.8-1.1,1.8-2.2,2.7-3.4c-1.7-6.8-0.3-13.2,1.5-19c0.2-0.2,0.4-0.4,0.6-0.6c1.2-1.2-1.1,3.2-1.1,6.3c0,7.3,0,13.7-3.3,20.2
		c-0.2-0.5-0.5-1-0.8-1.5C71.4,90.7,71.4,90.7,71.5,90.7z M29.3,51.4c0.9-0.5,2.3-1.2,3.9-2c-1.3,0.7-2.6,1.4-3.8,2.1
		C29.3,51.4,29.3,51.4,29.3,51.4z M74.4,124.7c-1.7,0.1-3.9,0-5.8-0.4c-2.2-1.1-2.8-1.7-2.4-3.6c0.4-1.5,2.5-3.1,4.5-4.4
		c-1.1,0-2.2,0.9-2.1-0.1c0.3-1.9,1.1-1.7,1.6-2.6c-0.3-0.3,4-0.2,4.7,0.4v0.1c0.1,0.9,0.9,2.1,0.6,2.7c-0.1,0.3-0.5-0.3-1-0.4
		c0.3,1.4,0.8,3.9,1.7,5.8C76.7,123.4,76.4,124.3,74.4,124.7z M92.9,113.5c0,0-0.5-6.8-2-10.6c-0.9-2.1-2.6-3.9-2.8-6.6
		c0-0.5,0.1-1.2,0.2-1.9L87,94.2c0,0,3.9-5,4.1-6s-2-8-2-8l0.6-1.9c-0.1-0.3-0.2-0.6-0.3-1c-1.2,3.4-3.2,6.6-7.1,9.2
		c0,1.1-0.4,2-0.8,2.5c-0.9,1.4-2.2,1.8-2.5,4c0.6-0.8,1.4-1.4,1.4-1.2c0,1-0.1,1.8-0.2,2.5c0,0,0.1,0,0.2,0c-0.9,5.5-2.7,8-3.9,11
		c-0.8,2.2-0.5,7-0.8,7.1c-2.1,0.4-5.1-0.4-6-0.8c0.8-5.2,0.3-10.6,1.7-16.6c0.5-4.4,2.4-6.1,5.3-9.8c-0.8-2.8-2.9-8.9,1.8-23.1
		c-0.1,0.1-0.2,0.2-0.3,0.2c-0.7,0.4-1.5,0.1-2.2-0.3c-0.7-0.4,0.1-0.4-0.7-1c-1.8-1.3-2.9-2.1-2.4-4.4c-4.8-4.2-13.4-6.6-15.2-11.1
		c-1.2-2.8-1.3-4.3-0.2-5.5c3.1-3.6,2-7,4.3-8.5c2.2-1.4,4.1,0.3,5.2,1.8c-0.6-2.6-2.8-3.3-2.8-3.5c0-3.3,3.1-5.6,6.3-6.2
		c2-0.3,3.2-0.4,4.5-0.1c0-0.1,0-0.1,0-0.1s1.6,0.5,3.3,0.7c1.8,0.1,3.6,0,5.2-0.1c0.7-0.1,1.4-0.1,2.2-0.2c-1-2.6-2.7-3.8-2.6-4.1
		c0.2-0.8,0.2-1.3,0.3-2.2c0.2-2.1,0.2-4.1,0.2-4.1c0.2-0.1,0.4-0.2,0.6-0.2c-0.1-0.8-0.3-1.3-0.4-2.1c-0.1-1.7-0.1-2.8-0.1-2.8
		c0.1-0.9,0.4-3.2,0.4-3.4C84.2,4.2,85.4,3,89.3,3c3.6,0,5.2,1.1,5.4,1.8c0.1,0.1,0.5,2.5,0.2,4.1c-0.1,0.6-0.2,2.6-0.3,3.6
		c0,0.4-0.1,0.8-0.2,1.2c0.1,0.1,0.1,0.1,0.1,0.2c0.1,0.6,0.2,1.7,0.3,2.9l0.5-0.4c0,0,0.5,2.4-0.3,3.4l0,0v0.1
		c0.1,2-0.4,2.9,0.7,3.3c1.4,0.6,2.7,1.3,3.8,1.9c0.6,0.3,1.3,0.7,2,0.9c1,0.3,2.1,1,2.9,2.1c1.6-0.2,3.6-0.1,5.1,1.4
		c3,3,2.2,6.3,1.3,8.6c0.8,1,2.6,3.6,1.5,6.7c-0.2,0.7-1.8,0.7-2.9,2.5c2.8-1.7,4.7-1.2,5.3,0.9c1,3.2-1.2,7-3.1,9.2
		c0-0.1-0.1-0.1-0.1-0.2c-0.3,1.1-0.7,3.1-2.8,5.5c-1.1,1.2-2,1-3.1,0.7c-1.5-0.4-2-1-3.9-2.1c-0.2-0.1-0.3-0.2-0.4-0.3
		c0,0.2,0.1,0.3,0.1,0.5h0.2c0.1,0.7,0.2,1.4,0.4,2.1c0,0.1,0,0.2,0.1,0.3c1.2,7.1,2.9,16.2-1.4,20.9c0.3,1.4,0.3,2.7,0.1,4.1
		c-0.1,0.9-0.4,1.8-0.8,2.8c-0.7,1.8-1,4.2-1.2,5.8c-1,6-1,6.3-1.4,15.7L92.9,113.5z"/>
	<path class="st0" d="M103,46.4l0.9,1.5c0,0,3.2,0.1,3.6,0.1c0.5,0,0.4-0.2-0.1-0.7c-1.2-1-1.8-3-2-4.1L103,46.4z"/>
	<path class="st0" d="M85.9,18.9l-0.7-1.7l-1.7-0.1c1,2.2,2.2,3.2,4.1,3.9c1.2,0.4,5.7,1,7.4-1c0-0.9-0.1-2-0.2-3l-3.5,2.8
		L85.9,18.9z"/>
	<path class="st0" d="M94.6,90.2c1.2-1.7,0.5-2,0-5.8S92.9,72.7,93,67.3l-3.3,11c1.5,4.8,3.1,6.1,3.3,11.7c-2.6-0.1-4.1,2.2-4.7,4.3
		l3.6,0.3C91.9,94.6,93.4,91.9,94.6,90.2z"/>
	<path class="st0" d="M83,36.8l-6.5-5.2c0,0-1.3,3.8-1.2,5.8c0.1,2-2.3,3.4-1.2,4.5c1.1,1.1,4,3.1,5,4.3s1.4,8.9,1.4,8.9l2.6,3.4
		c0,0,1.3-2.2,1.4-7.8c0.2-6.8-3.7-8.9-4.1-10.8C80.1,38.1,81.4,36.1,83,36.8z"/>
</g>
</svg>
