<?xml version="1.0" encoding="utf-8"?>
<!-- Generator: Adobe Illustrator 25.4.6, SVG Export Plug-In . SVG Version: 6.00 Build 0)  -->
<svg version="1.1" id="Layer_1" xmlns="http://www.w3.org/2000/svg" xmlns:xlink="http://www.w3.org/1999/xlink" x="0px" y="0px"
	 viewBox="0 0 128 128" style="enable-background:new 0 0 128 128;" xml:space="preserve">
<style type="text/css">
	.st0{fill:#FFFFFF;}
</style>
<path class="st0" d="M19.6,27l8.1,89.9l36.3,9.7l36.4-9.5l8.1-90.1H19.6z M91.6,47.5l-0.5,5.8L90.9,56H48.3l1,12h40.5l-0.3,2.2
	L87,99.1l-0.2,1.7L64,107l0,0l0,0l-22.8-5.9L39.7,84h11.2l0.8,8.5L64,95.6v-0.2l0,0l12.4-2.6L77.7,79H39.2l-2.7-30.8L36.2,45h55.7
	L91.6,47.5z M20.3,1.6h6.8V9h6.2V1.6h6.8v22.5h-6.8v-7.5h-6.2v7.5h-6.8C20.3,24.2,20.3,1.6,20.3,1.6z M49.1,9.1h-6V1.6H62v7.5h-6
	v15.1h-6.8C49.1,24.2,49.1,9.1,49.1,9.1z M64.9,1.6H72l4.4,7.9l4.4-7.9h7.1v22.5h-6.8V13l-4.7,8h-0.1l-4.7-8v11.2h-6.7L64.9,1.6
	L64.9,1.6z M91.3,1.6h6.8v15.1h9.6v7.5H91.3V1.6z"/>
</svg>
