<?xml version="1.0" encoding="utf-8"?>
<!-- Generator: Adobe Illustrator 25.4.6, SVG Export Plug-In . SVG Version: 6.00 Build 0)  -->
<svg version="1.1" id="Layer_1" xmlns="http://www.w3.org/2000/svg" xmlns:xlink="http://www.w3.org/1999/xlink" x="0px" y="0px"
	 viewBox="0 0 128 128" style="enable-background:new 0 0 128 128;" xml:space="preserve">
<style type="text/css">
	.st0{fill-rule:evenodd;clip-rule:evenodd;fill:#6877FD;}
</style>
<path class="st0" d="M48,69h15.4c-2.6-9-5.3-17.3-7.8-25.8C53,51.7,50.5,60,48,69z M124.1,1H2.9C0.7,1,1,1.5,1,3.6V125
	c0,2.1-0.3,2,1.7,2h121.5c2,0,2.7,0.1,2.7-2V3.7C127,1.5,126.3,1,124.1,1z M77.3,96c-1.6,0-3.3-0.1-4.9,0c-1.2,0.1-1.6-0.4-1.9-1.4
	c-1.5-4.9-3.1-9.9-4.6-14.8c-0.3-1-0.7-1.4-1.8-1.3c-5.5,0.1-11,0.1-16.6,0c-1.2,0-1.7,0.3-2,1.4c-1.4,4.9-2.9,9.8-4.4,14.7
	c-0.3,1.1-0.8,1.4-1.9,1.4c-3.3-0.1-6.6,0-10.3,0c1-3,1.8-5.9,2.7-8.7c5.5-17.2,11-34.4,16.5-51.6c0.4-1.2,0.9-1.6,2.1-1.5
	c3.9,0.1,7.8,0,11.7,0c0.7,0,1.2,0,1.5,0.9C70,55.1,76.5,75.3,83,95.4c0,0.1,0,0.6,0,0.6H77.3L77.3,96z M98,96H86V51h12V96z
	 M91.7,44.9c-3.7,0-6.3-2.5-6.3-6.1c0-3.5,2.7-6.2,6.4-6.2c3.7,0,6.4,2.5,6.4,6.2C98.2,42.4,95.5,44.9,91.7,44.9z"/>
</svg>
