<?xml version="1.0" encoding="utf-8"?>
<!-- Generator: Adobe Illustrator 25.4.6, SVG Export Plug-In . SVG Version: 6.00 Build 0)  -->
<svg version="1.1" id="Layer_1" xmlns="http://www.w3.org/2000/svg" xmlns:xlink="http://www.w3.org/1999/xlink" x="0px" y="0px"
	 viewBox="0 0 128 128" style="enable-background:new 0 0 128 128;" xml:space="preserve">
<style type="text/css">
	.st0{fill:#FFFFFF;}
</style>
<path class="st0" d="M2,1v125h125V1H2z M68.1,107.5c-1.8,3.7-5.4,6.2-9.4,7.4c-6.3,1.4-12.3,0.6-16.7-2.1c-3-1.8-5.3-4.7-6.9-7.9
	l9.5-5.8c0.1,0,0.3,0.5,0.7,1.1c1.2,2,2.3,3.5,4.3,4.5c2,0.7,6.5,1.1,8.2-2.4c1-1.8,0.7-7.6,0.7-14.1c0-10.1,0-20.2,0-30.2h11.7
	c0,11,0.1,21.4,0,32.2C70.2,96.7,70.8,102.6,68.1,107.5z M116.7,104.2c-4.1,13.9-26.8,14.4-35.8,5.2c-1.9-2.2-3.1-3.3-4.3-5.8
	c4.8-2.8,4.8-2.8,9.5-5.5c2.5,3.9,4.9,6.1,9.1,6.9c5.7,0.7,11.5-1.3,10.2-7.4c-1.3-5-11.8-6.2-18.9-11.5c-7.2-4.8-8.9-16.6-3-23.3
	c2-2.5,5.3-4.3,8.9-5.2l3.7-0.5c7.1-0.1,11.5,1.7,14.8,5.4c0.9,0.9,1.6,1.9,3,4c-3.8,2.4-3.8,2.4-9.2,5.9c-1.2-2.5-3.1-4-5.1-4.7
	c-3.1-1-7.1,0.1-7.9,3.4c-0.3,1-0.2,2,0.2,3.7c1.3,2.9,5.5,4.2,9.4,5.9c11,4.5,14.8,9.3,15.7,15C118,100.5,116.9,103.7,116.7,104.2z
	"/>
</svg>
