<?xml version="1.0" encoding="utf-8"?>
<!-- Generator: Adobe Illustrator 25.4.6, SVG Export Plug-In . SVG Version: 6.00 Build 0)  -->
<svg version="1.1" id="Layer_1" xmlns="http://www.w3.org/2000/svg" xmlns:xlink="http://www.w3.org/1999/xlink" x="0px" y="0px"
	 viewBox="0 0 35 35" style="enable-background:new 0 0 35 35;" xml:space="preserve">
<style type="text/css">
	.st0{fill-rule:evenodd;clip-rule:evenodd;fill:#FFFFFF;}
</style>
<circle cx="17.4" cy="17.5" r="16.9"/>
<g>
	<path class="st0" d="M28.8,27.8h-4.4v-7.5c0-2.1-0.8-3.2-2.4-3.2c-1.7,0-2.8,1.2-2.8,3.2v7.5h-4.3V13.4h4.3v1.9
		c0,0,1.3-2.4,4.3-2.4s5.2,1.8,5.2,5.7V27.8z M9.8,11.5c-1.5,0-2.7-1.2-2.7-2.7s1.2-2.6,2.7-2.6s2.7,1.2,2.7,2.7S11.3,11.5,9.8,11.5
		z M7.6,27.8h4.5V13.4H7.6V27.8z"/>
</g>
</svg>
