<?xml version="1.0" encoding="utf-8"?>
<!-- Generator: Adobe Illustrator 25.4.6, SVG Export Plug-In . SVG Version: 6.00 Build 0)  -->
<svg version="1.1" id="Layer_1" xmlns="http://www.w3.org/2000/svg" xmlns:xlink="http://www.w3.org/1999/xlink" x="0px" y="0px"
	 viewBox="0 0 35 35" style="enable-background:new 0 0 35 35;" xml:space="preserve">
<style type="text/css">
	.st0{fill-rule:evenodd;clip-rule:evenodd;fill:#1E1E1E;}
</style>
<path class="st0" d="M16.1,21.1c-0.5,0-1-0.2-1.4-0.6c-0.8-0.8-0.8-2,0-2.8L28.4,3.8c0.8-0.8,2-0.8,2.8,0s0.8,2,0,2.8L17.5,20.4
	C17.2,20.8,16.6,21.1,16.1,21.1z"/>
<path class="st0" d="M30.1,14.9c-1,0-1.9-0.9-1.9-2V6.6h-6.3c-1,0-2-0.9-2-2c0-1,0.9-2,2-2l0,0h8.2c1,0,1.9,0.9,1.9,2v8.2
	C32,14,31.1,14.9,30.1,14.9L30.1,14.9z"/>
<path class="st0" d="M26.8,32.3H4.9c-1,0-1.9-0.9-1.9-2V8.4c0-1,0.9-1.9,1.9-2h11.4c1,0,2,0.9,1.9,2c0,1-0.9,1.9-1.9,1.9H6.9v18.1
	h18v-9.5c0-0.7,0.3-1.4,1-1.7c0.6-0.3,1.4-0.3,2,0s1,1,1,1.7v11.4c0,0.5-0.2,1-0.6,1.4C27.8,32.1,27.3,32.3,26.8,32.3z"/>
</svg>
