<?xml version="1.0" encoding="utf-8"?>
<!-- Generator: Adobe Illustrator 25.4.6, SVG Export Plug-In . SVG Version: 6.00 Build 0)  -->
<svg version="1.1" id="Layer_1" xmlns="http://www.w3.org/2000/svg" xmlns:xlink="http://www.w3.org/1999/xlink" x="0px" y="0px"
	 viewBox="0 0 128 128" style="enable-background:new 0 0 128 128;" xml:space="preserve">
<style type="text/css">
	.st0{fill-rule:evenodd;clip-rule:evenodd;fill:#FFFFFF;}
</style>
<path class="st0" d="M50.2,41.6c-3.7-0.9-7.4-0.6-11.3,0c0,6.8,0,13.4,0,20c0,0.3,0.5,0.9,0.8,1c4.2,0.6,8.5,0.6,12.4-1.3
	c4.1-2,6.2-6.2,5.7-11.1C57.5,45.7,54.8,42.8,50.2,41.6z M127,64V3.3c0-2.1,0-2.3-2-2.3H3.5C1.5,1,1,1.2,1,3.2v121.5
	c0,2,0.3,2,2.2,2c40.6,0,81.2,0,121.8,0c1.6,0,2-0.4,2-2C126.9,104.5,127,84.2,127,64z M56.4,69.8c-5.6,2-11.4,2.1-17.4,1.6V94H28
	v-1.4c0-18.9-0.1-37.8-0.1-56.7c0-1.6,0.2-2.3,2-2.5c8.3-0.9,16.6-1.8,24.9,0.1c8.9,2.1,14,8,14.4,16.1
	C69.7,59.7,65.3,66.6,56.4,69.8z M100.7,82.6c-0.4,5.8-3.7,9.6-9,11.4c-7.1,2.5-14.2,1.9-21.2-0.9c-1.1-0.5-1.4-1-1-2.2
	c0.7-2.1,1.2-4.3,1.7-6.3c3,0.9,5.8,1.9,8.7,2.5c2.1,0.4,4.3,0.1,6.4-0.2c1.9-0.3,3.2-1.6,3.5-3.6s-0.3-3.8-2.1-4.9
	c-1.4-0.9-3-1.5-4.5-2.2c-2.4-1.2-5-2.1-7.3-3.5c-8.8-5.7-6-16.4-0.1-20.4c3.2-2.1,6.6-3.1,10.4-3.2c4.4-0.2,8.6,0.6,12.8,2.6
	l-2.2,7.8c-1.7-0.6-3.4-1.4-5.1-1.7c-2-0.4-4.2-0.6-6.2-0.4c-2.7,0.2-4.4,2.1-4.4,4.5c0,1.4,0.5,2.6,1.7,3.2c1.7,1,3.4,1.8,5.2,2.6
	c1.9,0.9,3.9,1.6,5.7,2.6C98.5,72.8,101.1,76.9,100.7,82.6z"/>
</svg>
