<?xml version="1.0" encoding="utf-8"?>
<!-- Generator: Adobe Illustrator 25.4.6, SVG Export Plug-In . SVG Version: 6.00 Build 0)  -->
<svg version="1.1" id="Layer_1" xmlns="http://www.w3.org/2000/svg" xmlns:xlink="http://www.w3.org/1999/xlink" x="0px" y="0px"
	 viewBox="0 0 128 128" style="enable-background:new 0 0 128 128;" xml:space="preserve">
<style type="text/css">
	.st0{fill:#6877FD;}
</style>
<g>
	<circle class="st0" cx="64" cy="64" r="11.4"/>
	<path class="st0" d="M107.3,45.2c-2.2-0.8-4.5-1.6-6.9-2.3c0.6-2.4,1.1-4.8,1.5-7.1c2.1-13.2-0.2-22.5-6.6-26.1
		c-1.9-1.1-4-1.6-6.4-1.6C81.9,8.1,73,13.3,64,22C55,13.3,46.1,8.1,39.1,8.1c-2.4,0-4.5,0.5-6.4,1.6c-6.4,3.7-8.7,13-6.6,26.1
		c0.4,2.3,0.9,4.7,1.5,7.1c-2.4,0.7-4.7,1.4-6.9,2.3C8.2,50,1.4,56.6,1.4,64s6.9,14,19.3,18.8c2.2,0.8,4.5,1.6,6.9,2.3
		c-0.6,2.4-1.1,4.8-1.5,7.1c-2.1,13.2,0.2,22.5,6.6,26.1c1.9,1.1,4,1.6,6.4,1.6c7.1,0,16-5.2,24.9-13.9c9,8.7,17.9,13.9,24.9,13.9
		c2.4,0,4.5-0.5,6.4-1.6c6.4-3.7,8.7-13,6.6-26.1c-0.4-2.3-0.9-4.7-1.5-7.1c2.4-0.7,4.7-1.4,6.9-2.3c12.5-4.8,19.3-11.4,19.3-18.8
		S119.8,50,107.3,45.2z M92.5,14.7c4.1,2.4,5.5,9.8,3.8,20.3c-0.3,2.1-0.8,4.3-1.4,6.6c-5.2-1.2-10.7-2-16.5-2.5
		C75,34.3,71.5,30,68,26.1c7.4-7.3,14.9-12.3,21-12.3C90.3,13.8,91.5,14.1,92.5,14.7z M81.3,74c-1.8,3.2-3.9,6.4-6.1,9.6
		C71.5,83.9,67.8,84,64,84c-3.9,0-7.6-0.1-11.2-0.4c-2.2-3.2-4.2-6.4-6-9.6c-1.9-3.3-3.7-6.7-5.3-10c1.6-3.3,3.4-6.7,5.3-10
		c1.8-3.2,3.9-6.4,6.1-9.6c3.7-0.3,7.4-0.4,11.2-0.4c3.9,0,7.6,0.1,11.2,0.4c2.2,3.2,4.2,6.4,6,9.6c1.9,3.3,3.7,6.7,5.3,10
		C84.9,67.3,83.2,70.6,81.3,74z M89.6,70.7c1.5,3.5,2.7,6.9,3.8,10.3c-3.4,0.8-7,1.4-10.8,1.9c1.2-1.9,2.5-3.9,3.6-6
		C87.4,74.8,88.5,72.7,89.6,70.7z M64,97.8c-2.4-2.6-4.7-5.4-6.9-8.3c2.3,0.1,4.6,0.2,6.9,0.2s4.6-0.1,6.9-0.2
		C68.7,92.4,66.4,95.2,64,97.8z M45.4,82.8c-3.8-0.5-7.4-1.1-10.8-1.9c1.1-3.3,2.3-6.8,3.8-10.3c1.1,2,2.2,4.1,3.4,6.1
		C43,78.9,44.2,80.8,45.4,82.8z M38.4,57.3c-1.5-3.5-2.7-6.9-3.8-10.3c3.4-0.8,7-1.4,10.8-1.9c-1.2,1.9-2.5,3.9-3.6,6
		C40.6,53.2,39.5,55.3,38.4,57.3z M64,30.2c2.4,2.6,4.7,5.4,6.9,8.3c-2.3-0.1-4.6-0.2-6.9-0.2c-2.3,0-4.6,0.1-6.9,0.2
		C59.3,35.6,61.6,32.8,64,30.2z M86.2,51.2l-3.6-6c3.8,0.5,7.4,1.1,10.8,1.9c-1.1,3.3-2.3,6.8-3.8,10.3
		C88.5,55.3,87.4,53.2,86.2,51.2z M31.7,35c-1.7-10.5-0.3-17.9,3.8-20.3c1-0.6,2.2-0.9,3.5-0.9c6,0,13.5,4.9,21,12.3
		c-3.5,3.8-7,8.2-10.4,13c-5.8,0.5-11.3,1.4-16.5,2.5C32.5,39.3,32.1,37.1,31.7,35z M7,64c0-4.7,5.7-9.7,15.7-13.4
		c2-0.8,4.2-1.5,6.4-2.1c1.6,5,3.6,10.3,6,15.6c-2.4,5.3-4.5,10.5-6,15.5C15.3,75.6,7,69.6,7,64z M35.5,113.3
		c-4.1-2.4-5.5-9.8-3.8-20.3c0.3-2.1,0.8-4.3,1.4-6.6c5.2,1.2,10.7,2,16.5,2.5c3.4,4.8,6.9,9.1,10.4,13c-7.4,7.3-14.9,12.3-21,12.3
		C37.7,114.2,36.5,113.9,35.5,113.3z M96.3,93c1.7,10.5,0.3,17.9-3.8,20.3c-1,0.6-2.2,0.9-3.5,0.9c-6,0-13.5-4.9-21-12.3
		c3.5-3.8,7-8.2,10.4-13c5.8-0.5,11.3-1.4,16.5-2.5C95.5,88.7,95.9,90.9,96.3,93z M105.3,77.4c-2,0.8-4.2,1.5-6.4,2.1
		c-1.6-5-3.6-10.3-6-15.6c2.4-5.3,4.5-10.5,6-15.5c13.8,4,22.1,10,22.1,15.6C121,68.7,115.2,73.7,105.3,77.4z"/>
</g>
</svg>
