<?xml version="1.0" encoding="utf-8"?>
<!-- Generator: Adobe Illustrator 25.4.6, SVG Export Plug-In . SVG Version: 6.00 Build 0)  -->
<svg version="1.1" id="Layer_1" xmlns="http://www.w3.org/2000/svg" xmlns:xlink="http://www.w3.org/1999/xlink" x="0px" y="0px"
	 viewBox="0 0 35 35" style="enable-background:new 0 0 35 35;" xml:space="preserve">
<style type="text/css">
	.st0{fill-rule:evenodd;clip-rule:evenodd;}
	.st1{fill:#0C0C0C;}
</style>
<g>
	<g>
		<path class="st0" d="M8.5,34C6.1,34,4,32,4,29.5v-24C4,3,6,1,8.5,1h18c2.5,0,4.5,2,4.5,4.5v24c0,2.5-2,4.5-4.5,4.5H8.5z M8.5,4
			C7.7,4,7.1,4.7,7.1,5.5v24c0,0.8,0.7,1.5,1.5,1.5h18c0.8,0,1.5-0.7,1.5-1.5v-24C28,4.7,27.4,4,26.6,4H8.5z"/>
		<path class="st1" d="M26.6,1.4c2.3,0,4.1,1.9,4.1,4.1v24c0,2.3-1.9,4.1-4.1,4.1h-18c-2.3,0-4.1-1.9-4.1-4.1v-24
			c0-2.3,1.8-4.1,4.1-4.1H26.6 M8.5,31.4h18c1.1,0,1.9-0.9,1.9-1.9v-24c0-1.1-0.9-1.9-1.9-1.9h-18c-1.1,0-1.9,0.9-1.9,1.9v24
			C6.7,30.6,7.6,31.4,8.5,31.4 M26.6,0.6h-18c-2.7,0-4.9,2.1-4.9,4.9v24c0,2.7,2.2,4.9,4.9,4.9h18c2.7,0,4.9-2.2,4.9-4.9v-24
			C31.4,2.8,29.2,0.6,26.6,0.6L26.6,0.6z M8.5,30.6c-0.5,0-1.1-0.4-1.1-1.1v-24c0-0.5,0.4-1.1,1.1-1.1h18c0.5,0,1.1,0.4,1.1,1.1v24
			c0,0.5-0.4,1.1-1.1,1.1H8.5L8.5,30.6z"/>
	</g>
	<path class="st0" d="M22.1,8C21.5,8,21,8.5,21,9.1s0.5,1.1,1.1,1.1s1.1-0.5,1.1-1.1S22.7,8,22.1,8z M18.6,9.1
		c0-1.9,1.5-3.4,3.4-3.4s3.4,1.5,3.4,3.4s-1.5,3.4-3.4,3.4S18.6,11,18.6,9.1z"/>
	<path class="st0" d="M17.9,14.6c0-2.3,1.9-4.2,4.2-4.2s4.2,1.9,4.2,4.2c0,0.6-0.5,1.1-1.1,1.1H19C18.4,15.8,17.9,15.3,17.9,14.6z
		 M20.5,13.5h3c-0.3-0.5-0.9-0.8-1.5-0.8S20.9,13,20.5,13.5z"/>
	<path class="st0" d="M8.7,19c0-0.6,0.5-1.1,1.1-1.1H25c0.6,0,1.1,0.5,1.1,1.1s-0.5,1.1-1.1,1.1H9.9C9.3,20.2,8.7,19.7,8.7,19
		L8.7,19z"/>
	<path class="st0" d="M8.7,23.6c0-0.6,0.5-1.1,1.1-1.1H25c0.6,0,1.1,0.5,1.1,1.1s-0.5,1.1-1.1,1.1H9.9C9.3,24.7,8.7,24.2,8.7,23.6
		L8.7,23.6z"/>
	<path class="st0" d="M8.7,28.2c0-0.6,0.5-1.1,1.1-1.1h7.6c0.6,0,1.1,0.5,1.1,1.1s-0.5,1.1-1.1,1.1H9.9C9.3,29.3,8.7,28.8,8.7,28.2z
		"/>
</g>
</svg>
