<?xml version="1.0" encoding="utf-8"?>
<!-- Generator: Adobe Illustrator 25.4.6, SVG Export Plug-In . SVG Version: 6.00 Build 0)  -->
<svg version="1.1" id="Layer_1" xmlns="http://www.w3.org/2000/svg" xmlns:xlink="http://www.w3.org/1999/xlink" x="0px" y="0px"
	 viewBox="0 0 128 128" style="enable-background:new 0 0 128 128;" xml:space="preserve">
<style type="text/css">
	.st0{fill:none;}
	.st1{fill:#6877FD;}
</style>
<path class="st0" d="M0,0"/>
<g id="g10" transform="matrix(1.3333333,0,0,-1.3333333,0,512.12)">
	<g id="g12" transform="scale(0.1)">
		<path id="path14" class="st1" d="M670.8,3176c-2.9,2-2.4,9.1,7.5,30.9c3.9,8.5,12.8,22.9,28.3,36.5c1.7-5.6,2.9-10.9,2.8-16
			C709.3,3193.6,685.3,3181.2,670.8,3176z M543.6,3147c-4.1-2-7.9-3.6-9.5-2.4c-1.3,0.8,1.7,3.6,1.7,3.6s20.7,22.4,28.8,32.4
			c4.7,6,10.3,12.8,16.1,20.7v-2.3C580.8,3172,555,3154.2,543.6,3147z M378.4,3225.8c-9.5-23.2-29.6-82.9-41.7-79.6
			c-10.4,2.8-16.9,48-2,92.6c7.5,22.5,23.2,49.3,32.5,59.7c14.9,16.8,31.4,22.4,35.6,15.5C407.7,3305.3,384.4,3240.5,378.4,3225.8z
			 M178.4,3089.8c-27.6-30-65.8-41.3-82.2-31.6c-17.7,10.3-10.8,54.5,22.9,86.1c20.5,19.3,46.9,37.2,64.5,48.1
			c4.1,2.4,9.9,6,17.1,10.3c1.3,0.8,1.9,1.1,1.9,1.1c1.3,0.9,2.8,1.7,4.1,2.7C219.2,3161.1,207.2,3121.2,178.4,3089.8z
			 M817.2,3305.3c-33.3-0.1-62.1-8.1-86.4-20.1c-8.9,17.5-17.7,33.3-19.3,44.6c-1.7,13.3-3.9,21.6-1.7,37.6
			c2,16,11.6,38.9,11.3,40.5c-0.1,1.7-2,9.9-21.2,10s-35.7-3.7-37.6-8.8c-1.9-5.1-5.6-16.5-8-28.3c-3.3-17.5-38.4-79.4-58.2-112
			c-6.5,12.7-12.1,23.8-13.2,32.8c-1.7,13.3-3.9,21.6-1.7,37.6c2,16,11.6,38.9,11.3,40.5c-0.1,1.7-2,9.9-21.2,10s-35.7-3.7-37.6-8.8
			c-1.9-5.1-4.1-16.9-8-28.3c-4.1-11.6-50.4-115.2-62.7-141.9c-6.4-13.7-11.7-24.8-15.5-32.1c0,0-0.1-0.5-0.8-1.3
			c-3.3-6.5-5.2-9.9-5.2-9.9v-0.1c-2.7-4.7-5.3-9.1-6.7-9.1c-1.1,0-2.9,12.4,0.4,29.6c6.9,36.1,23.5,92.1,23.2,94
			c0,1.1,3.2,10.8-10.8,15.8c-13.6,5.1-18.4-3.3-19.7-3.3s-2-2.9-2-2.9s15.1,63-28.8,63c-27.6,0-65.4-30.1-84.2-57.3
			c-11.9-6.5-37-20.1-64-34.9c-10.3-5.7-20.8-11.6-30.9-16.9c-0.8,0.8-1.3,1.5-2,2.3c-53.2,56.9-151.7,97-147.5,173.4
			c1.5,27.9,11.2,100.9,189.1,189.5c146.5,72.1,263.1,52.3,283.1,7.9c28.8-63.3-62.5-181-213.8-197.9c-57.7-6.5-88,15.8-95.6,24.1
			c-8,8.8-9.3,9.3-12.1,7.5c-4.8-2.7-1.7-10.4,0-14.9c4.4-11.9,23.1-32.8,54.7-42.9c27.9-9.1,95.4-14.1,177.4,17.5
			c91.7,35.6,163.3,134.1,142.3,216.7c-21.6,84.1-160.7,111.8-292.4,64.9c-78.4-27.9-163.1-71.6-224.2-128.7
			c-72.8-68-84.1-126.9-79.4-151.7c16.9-87.6,137.8-144.7,186.2-187c-2.4-1.3-4.7-2.5-6.7-3.7C153,3210.2,60.6,3162.1,37.8,3111
			c-26-57.7,4.1-99.2,24.1-104.7c62.1-17.3,125.9,13.7,160.2,64.9c34.2,51.2,30.1,117.6,14.4,148.1c-0.1,0.4-0.4,0.8-0.8,1.1
			c6.4,3.7,12.7,7.5,18.9,11.2c12.3,7.2,24.5,14.1,34.9,19.7c-6-16.1-10.3-35.6-12.3-63.3c-2.7-32.8,10.8-75.2,28.3-91.8
			c7.9-7.2,17.1-7.5,22.9-7.5c20.5,0,29.7,17.1,40,37.2c12.4,24.8,23.8,53.3,23.8,53.3s-14.1-77.6,24.1-77.6c14,0,28.1,18,34.2,27.3
			v-0.1c0,0,0.4,0.5,1.1,1.7c1.3,2.3,2.3,3.7,2.3,3.7v0.4c5.6,9.7,18,31.8,36.6,68.5c24,47.3,47.1,106.4,47.1,106.4s2-14.5,9.3-38.5
			c4.1-14.1,12.8-29.6,19.9-44.5c-5.6-7.9-9.1-12.1-9.1-12.1l0.1-0.1c-4.4-6-9.5-12.3-14.7-18.5c-18.9-22.7-41.7-48.5-44.6-56
			c-3.7-8.9-2.8-15.2,4.1-20.5c5.1-3.9,14.1-4.3,23.2-3.9c17.1,1.3,29,5.3,34.9,8c9.3,3.3,20.1,8.4,30.1,15.8
			c18.5,13.7,30,33.5,28.8,59.3c-0.5,14.4-5.2,28.5-10.9,41.9c1.7,2.4,3.3,4.8,5.1,7.2c29.3,42.9,52.3,90.1,52.3,90.1
			s2-14.5,9.3-38.5c3.6-12.1,10.5-25.5,16.9-38.4c-27.7-22.5-44.6-48.5-50.8-65.7c-10.9-31.6-2.4-46,13.7-49.3
			c7.2-1.5,17.7,1.9,25.5,5.2c9.7,3.2,21.2,8.5,32.1,16.5c18.5,13.7,36.5,32.9,35.6,58.8c-0.5,11.9-3.7,23.5-8,34.8
			c23.5,9.7,53.7,15.1,92.5,10.5c82.8-9.7,99.2-61.4,96-83.2c-3.2-21.7-20.5-33.5-26.2-37.2s-7.6-4.8-7.1-7.5
			c0.8-3.9,3.6-3.7,8.4-2.9c6.7,1.3,43.6,17.5,45,57.7C951.9,3249.8,903.4,3305.6,817.2,3305.3"/>
	</g>
</g>
</svg>
