<?xml version="1.0" encoding="utf-8"?>
<!-- Generator: Adobe Illustrator 25.4.6, SVG Export Plug-In . SVG Version: 6.00 Build 0)  -->
<svg version="1.1" id="Layer_1" xmlns="http://www.w3.org/2000/svg" xmlns:xlink="http://www.w3.org/1999/xlink" x="0px" y="0px"
	 viewBox="0 0 128 128" style="enable-background:new 0 0 128 128;" xml:space="preserve">
<style type="text/css">
	.st0{fill:#FFFFFF;}
</style>
<path class="st0" d="M120.2,119.2c0,0-13.8-93.3-13.9-93.9c-0.1-0.2-0.2-0.3-0.3-0.5c-0.2-0.3-0.6-0.5-0.9-0.5
	c-0.5,0-10.2-0.8-10.2-0.8s-6.8-6.7-7.5-7.5c-0.1-0.1-0.2-0.2-0.3-0.2l0,0c-0.2-0.1-0.5-0.2-0.7-0.3l0,0c-0.7-0.1-1.4,0-1.8,0.1
	c-0.1,0-1.5,0.5-3.8,1.2c-2.3-6.5-6.3-12.5-13.3-12.5c-0.2,0-0.4,0-0.6,0c-2-2.6-4.5-3.8-6.6-3.8C43.9,0.5,36.1,21,33.6,31.4
	c-6.4,2-10.9,3.4-11.5,3.6c-3.6,1.1-3.7,1.2-4.1,4.6c-0.4,2.6-9.8,74.6-9.8,74.6l72.5,13.6l39.3-8.5c0,0,0,0,0-0.1H120.2z
	 M65.6,20.6c0,0.3,0,0.5,0,0.7c-4,1.2-8.3,2.6-12.7,3.9c2.5-9.3,7-13.9,11-15.6C64.9,12.1,65.6,15.8,65.6,20.6z M59.1,5
	c0.7,0,1.4,0.2,2.1,0.7c-5.3,2.5-10.9,8.7-13.3,21.1l-10,3.1C40.7,20.5,47.3,5,59.1,5z M61.9,60.4c0,0-4.2-2.3-9.4-2.3
	c-7.6,0-8,4.8-8,6c0,6.6,17.2,9.1,17.2,24.5c0,12.1-7.7,19.9-18.1,19.9c-12.4,0-18.8-7.7-18.8-7.7l3.3-11c0,0,6.5,5.6,12.1,5.6
	c3.6,0,5.1-2.8,5.1-4.9c0-8.6-14.1-9-14.1-23.1c0-11.9,8.5-23.4,25.7-23.4c6.6,0.1,9.8,2,9.8,2L61.9,60.4z M69.9,20
	c0-0.4,0-0.9,0-1.3c0-4.1-0.6-7.3-1.5-9.9c3.7,0.4,6.1,4.6,7.6,9.3L69.9,20z"/>
</svg>
