<?xml version="1.0" encoding="utf-8"?>
<!-- Generator: Adobe Illustrator 25.4.6, SVG Export Plug-In . SVG Version: 6.00 Build 0)  -->
<svg version="1.1" id="Layer_1" xmlns="http://www.w3.org/2000/svg" xmlns:xlink="http://www.w3.org/1999/xlink" x="0px" y="0px"
	 viewBox="0 0 128 128" style="enable-background:new 0 0 128 128;" xml:space="preserve">
<style type="text/css">
	.st0{fill:#95BF46;}
	.st1{fill:#5E8E3E;}
	.st2{fill:#FFFFFF;}
</style>
<path class="st0" d="M106.5,25.1c-0.1-0.6-0.6-1-1.1-1c-0.5,0-10.2-0.8-10.2-0.8s-6.8-6.7-7.5-7.5c-0.7-0.7-2.2-0.5-2.8-0.4
	c-0.1,0-1.5,0.5-3.8,1.2c-2.3-6.5-6.3-12.5-13.3-12.5c-0.2,0-0.4,0-0.6,0c-2-2.6-4.5-3.8-6.6-3.8c-16.4,0-24.2,20.5-26.7,30.9
	c-6.4,2-10.9,3.4-11.5,3.6c-3.6,1.1-3.7,1.2-4.1,4.6C17.9,42,8.5,114,8.5,114l72.5,13.6l39.3-8.5C120.4,119.1,106.6,25.8,106.5,25.1
	L106.5,25.1z M77,17.9l-6.1,1.9c0-0.4,0-0.9,0-1.3c0-4.1-0.6-7.3-1.5-9.9C73.1,9,75.5,13.2,77,17.9z M64.9,9.4c1,2.5,1.7,6.2,1.7,11
	c0,0.3,0,0.5,0,0.7c-4,1.2-8.3,2.6-12.7,3.9C56.4,15.7,60.9,11.1,64.9,9.4L64.9,9.4z M60.1,4.8c0.7,0,1.4,0.2,2.1,0.7
	C56.9,8,51.3,14.2,48.9,26.6l-10,3.1C41.7,20.3,48.3,4.8,60.1,4.8L60.1,4.8z"/>
<path class="st1" d="M105.4,24.1c-0.5,0-10.2-0.8-10.2-0.8s-6.8-6.7-7.5-7.5c-0.3-0.3-0.7-0.4-1-0.5l-5.5,112.2l39.3-8.5
	c0,0-13.8-93.3-13.9-93.9C106.4,24.5,105.8,24.2,105.4,24.1"/>
<path class="st2" d="M67.7,45.8l-4.8,14.4c0,0-4.2-2.3-9.4-2.3c-7.6,0-8,4.8-8,6c0,6.6,17.2,9.1,17.2,24.5
	c0,12.1-7.7,19.9-18.1,19.9c-12.4,0-18.8-7.7-18.8-7.7l3.3-11c0,0,6.5,5.6,12.1,5.6c3.6,0,5.1-2.8,5.1-4.9c0-8.6-14.1-9-14.1-23.1
	c0-11.9,8.5-23.4,25.7-23.4C64.5,43.9,67.7,45.8,67.7,45.8"/>
</svg>
