<?xml version="1.0" encoding="utf-8"?>
<!-- Generator: Adobe Illustrator 25.4.6, SVG Export Plug-In . SVG Version: 6.00 Build 0)  -->
<svg version="1.1" id="Layer_1" xmlns="http://www.w3.org/2000/svg" xmlns:xlink="http://www.w3.org/1999/xlink" x="0px" y="0px"
	 viewBox="0 0 35 35" style="enable-background:new 0 0 35 35;" xml:space="preserve">
<path d="M10.4,16.2c0.5,0,1-0.2,1.3-0.5s0.5-0.8,0.5-1.3s-0.2-1-0.5-1.3s-0.8-0.5-1.3-0.5s-1,0.2-1.3,0.5c-0.4,0.4-0.5,0.8-0.5,1.3
	s0.2,1,0.5,1.3C9.5,16.1,9.9,16.2,10.4,16.2z M17.6,16.2c0.5,0,1-0.2,1.3-0.5s0.5-0.8,0.5-1.3s-0.2-1-0.5-1.3s-0.8-0.5-1.3-0.5
	c-0.5,0-1,0.2-1.3,0.5c-0.4,0.4-0.5,0.8-0.5,1.3s0.2,1,0.5,1.3C16.6,16.1,17.1,16.2,17.6,16.2z M24.5,16.2c0.5,0,1-0.2,1.3-0.5
	s0.5-0.8,0.5-1.3s-0.2-1-0.5-1.3s-0.8-0.5-1.3-0.5s-1,0.2-1.3,0.5s-0.5,0.8-0.5,1.3c0,0.5,0.2,1,0.5,1.3S24,16.2,24.5,16.2z
	 M1.4,33.6V1.4h32.3v26.2H7.4L1.4,33.6z"/>
</svg>
