<?xml version="1.0" encoding="utf-8"?>
<!-- Generator: Adobe Illustrator 25.4.6, SVG Export Plug-In . SVG Version: 6.00 Build 0)  -->
<svg version="1.1" id="Layer_1" xmlns="http://www.w3.org/2000/svg" xmlns:xlink="http://www.w3.org/1999/xlink" x="0px" y="0px"
	 viewBox="0 0 128 128" style="enable-background:new 0 0 128 128;" xml:space="preserve">
<style type="text/css">
	.st0{fill:#6877FD;}
</style>
<path class="st0" d="M63,25.9c-16.3,0-26.4,8.1-30.5,24.4c6.1-8.1,13.2-11.2,21.4-9.2c4.6,1.2,8,4.5,11.6,8.3
	c6,6.1,12.9,13.1,28,13.1c16.3,0,26.4-8.1,30.5-24.4c-6.1,8.1-13.2,11.2-21.3,9.2c-4.6-1.2-8-4.5-11.6-8.3
	C85,32.9,78.1,25.9,63,25.9z M32.5,62.5C16.2,62.5,6.1,70.6,2,86.9c6.1-8.1,13.2-11.2,21.4-9.2c4.6,1.2,8,4.5,11.6,8.3
	c6,6.1,12.9,13.1,28,13.1c16.3,0,26.4-8.1,30.5-24.4c-6.1,8.1-13.2,11.2-21.3,9.1c-4.6-1.2-8-4.5-11.6-8.3
	C54.5,69.5,47.6,62.5,32.5,62.5z"/>
</svg>
