<?xml version="1.0" encoding="utf-8"?>
<!-- Generator: Adobe Illustrator 25.4.6, SVG Export Plug-In . SVG Version: 6.00 Build 0)  -->
<svg version="1.1" id="Layer_1" xmlns="http://www.w3.org/2000/svg" xmlns:xlink="http://www.w3.org/1999/xlink" x="0px" y="0px"
	 viewBox="0 0 35 35" style="enable-background:new 0 0 35 35;" xml:space="preserve">
<path d="M3,29.7c-0.6,0-1.1-0.2-1.6-0.7s-0.6-1-0.6-1.7h5.1c-0.7,0-1.4-0.3-1.9-0.8s-0.8-1.2-0.8-1.9V7.5c0-0.8,0.3-1.4,0.8-2
	s1.2-0.8,1.9-0.8h23.3c0.8,0,1.4,0.3,2,0.8s0.8,1.2,0.8,2v17.1c0,0.7-0.3,1.4-0.8,1.9s-1.2,0.8-2,0.8h5.1c0,0.7-0.2,1.2-0.7,1.7
	c-0.5,0.5-1,0.7-1.6,0.7H3z M17.6,28.2c0.3,0,0.6-0.1,0.8-0.3c0.2-0.2,0.3-0.5,0.3-0.8c0-0.3-0.1-0.6-0.3-0.8
	c-0.2-0.2-0.5-0.3-0.8-0.3c-0.3,0-0.6,0.1-0.8,0.3c-0.2,0.2-0.3,0.5-0.3,0.8c0,0.3,0.1,0.6,0.3,0.8S17.2,28.2,17.6,28.2z M5.9,24.6
	h23.3V7.5H5.9V24.6z M5.9,24.6V7.5V24.6z"/>
<path d="M17.6,9.4c-1.8,0-3.5,0.7-4.8,2c-1.3,1.3-2,3-2,4.8s0.7,3.5,2,4.8c1.3,1.3,3,2,4.8,2s3.5-0.7,4.8-2c1.3-1.3,2-3,2-4.8
	c0-1.8-0.7-3.5-2-4.8C21.1,10.1,19.4,9.4,17.6,9.4L17.6,9.4z M15.7,10.4l-0.1,0.1c-0.1,0.1-0.1,0.1-0.2,0.2l0,0
	c-0.1,0.1-0.1,0.1-0.2,0.2l0,0c-0.1,0.1-0.1,0.1-0.2,0.2v0c-0.1,0.1-0.1,0.2-0.2,0.2l0,0c0,0.1-0.1,0.2-0.1,0.2l0,0
	c0,0.1-0.1,0.2-0.1,0.2l0,0c0,0.1-0.1,0.2-0.1,0.3l0,0.1c0,0.1-0.1,0.2-0.1,0.3l0,0c0,0.1-0.1,0.2-0.1,0.3l0,0v0h-1.7
	C13.2,11.8,14.4,10.9,15.7,10.4L15.7,10.4z M12,13.9h1.8l0,0c0,0.1,0,0.1,0,0.2l0,0.1c0,0.1,0,0.1,0,0.2c0,0.1,0,0.1,0,0.2l0,0.1
	c0,0.1,0,0.1,0,0.2l0,0.1c0,0.1,0,0.1,0,0.2v0c0,0.1,0,0.1,0,0.2v0.1c0,0.1,0,0.1,0,0.2v0.1c0,0.1,0,0.1,0,0.2v0h-2
	C11.6,15.2,11.7,14.5,12,13.9L12,13.9z M11.6,16.7h2v0c0,0,0,0.1,0,0.1V17c0,0.1,0,0.1,0,0.2v0c0,0.1,0,0.1,0,0.2v0.1
	c0,0,0,0.1,0,0.1l0,0.1c0,0,0,0.1,0,0.1l0,0.1c0,0.1,0,0.1,0,0.2v0c0,0.1,0,0.1,0,0.2l0,0.1l0,0.1l0,0H12
	C11.7,17.9,11.6,17.3,11.6,16.7L11.6,16.7z M12.4,19.3h1.7v0l0,0c0,0.1,0.1,0.2,0.1,0.3l0,0c0,0.1,0.1,0.2,0.1,0.3l0,0.1
	c0,0.1,0.1,0.2,0.1,0.3l0,0c0,0.1,0.1,0.2,0.1,0.2l0,0c0,0.1,0.1,0.2,0.1,0.2l0,0c0.1,0.1,0.1,0.2,0.2,0.2c0.1,0.1,0.1,0.2,0.2,0.2
	l0,0c0.1,0.1,0.1,0.1,0.2,0.2l0,0c0.1,0.1,0.1,0.1,0.2,0.2l0,0l0.1,0.1l0,0C14.4,21.5,13.2,20.6,12.4,19.3L12.4,19.3z M17.2,22.1
	L17.2,22.1L17,22l-0.1-0.1l-0.1,0c-0.1-0.1-0.1-0.1-0.2-0.2l0,0l-0.2-0.2l-0.1-0.1l-0.1-0.1l-0.1-0.1c-0.1-0.1-0.1-0.1-0.2-0.2l0,0
	C16,21,16,20.9,15.9,20.8l0-0.1l-0.1-0.2l0-0.1c0-0.1-0.1-0.1-0.1-0.2l0-0.1c0-0.1-0.1-0.1-0.1-0.2l0-0.1c0-0.1-0.1-0.1-0.1-0.2
	l0-0.1c0-0.1-0.1-0.1-0.1-0.2l0-0.1c0-0.1-0.1-0.2-0.1-0.2h2.1L17.2,22.1z M17.2,18.5h-2.4l0,0c0-0.1,0-0.2-0.1-0.2l0-0.1
	c0-0.1,0-0.2-0.1-0.2l0-0.1c0-0.1,0-0.2-0.1-0.3l0-0.1c0-0.1,0-0.1,0-0.2l0-0.1c0-0.1,0-0.2,0-0.3v0c0-0.1,0-0.1,0-0.2h2.8
	L17.2,18.5z M17.2,15.8h-2.8c0-0.1,0-0.2,0-0.3v-0.1c0-0.1,0-0.1,0-0.2c0,0,0-0.1,0-0.1c0-0.1,0-0.2,0-0.3v0c0-0.1,0-0.2,0.1-0.3
	l0-0.1c0-0.1,0-0.1,0-0.2l0-0.1c0-0.1,0-0.2,0.1-0.2l0,0v0h2.5V15.8z M17.2,13H15c0-0.1,0.1-0.2,0.1-0.2l0-0.1
	c0-0.1,0.1-0.1,0.1-0.2l0-0.1l0.1-0.2l0-0.1c0-0.1,0.1-0.1,0.1-0.2v0c0-0.1,0.1-0.1,0.1-0.2l0-0.1l0.1-0.1l0.1-0.1l0.1-0.1l0-0.1
	c0.1-0.1,0.1-0.1,0.2-0.2l0,0l0.1-0.1l0.1-0.1l0.1-0.1l0.1-0.1l0.2-0.1l0,0c0.1-0.1,0.1-0.1,0.2-0.2l0.1,0l0.1-0.1L17.2,13z
	 M18,10.2L18,10.2l0.1,0.1l0.1,0.1l0.1,0.1l0.1,0.1l0.1,0.1c0.1,0.1,0.1,0.1,0.2,0.2c0.1,0.1,0.1,0.1,0.2,0.2l0.1,0.1l0.1,0.1
	l0.1,0.1l0.1,0.1l0.1,0.1l0.1,0.1l0,0.1c0.1,0.1,0.1,0.1,0.2,0.2l0,0c0,0.1,0.1,0.1,0.1,0.2l0,0.1l0.1,0.2l0,0.1l0.1,0.2l0,0.1
	c0,0.1,0.1,0.1,0.1,0.2l0,0.1c0,0.1,0.1,0.2,0.1,0.2L18,13L18,10.2z M18,13.9h2.6v0l0,0.1c0,0.1,0,0.2,0.1,0.2l0,0.1
	c0,0.1,0,0.1,0,0.2l0,0.1c0,0.1,0,0.2,0.1,0.3v0c0,0.1,0,0.2,0,0.3c0,0,0,0.1,0,0.1c0,0.1,0,0.1,0,0.2v0.1c0,0.1,0,0.2,0,0.3l-2.9,0
	L18,13.9z M18,16.7h2.9c0,0.1,0,0.1,0,0.2v0c0,0.1,0,0.2,0,0.3l0,0.1c0,0.1,0,0.1,0,0.2l0,0.1c0,0.1,0,0.2-0.1,0.3l0,0.1
	c0,0.1,0,0.2-0.1,0.2l0,0.1c0,0.1,0,0.2-0.1,0.2l0,0H18L18,16.7z M19.4,20.8L19.4,20.8L19.3,21l-0.1,0.1l-0.1,0.1L19,21.3
	c-0.1,0.1-0.1,0.1-0.2,0.2l0,0c-0.1,0.1-0.1,0.1-0.2,0.2l-0.1,0.1l-0.1,0.1l-0.1,0.1L18.3,22L18.2,22L18,22.1l0,0l0-2.8h2.3
	c0,0.1-0.1,0.2-0.1,0.2l0,0.1c0,0.1-0.1,0.1-0.1,0.2l0,0.1L19.9,20l0,0.1c0,0.1-0.1,0.1-0.1,0.2l0,0.1c0,0.1-0.1,0.1-0.1,0.2l0,0
	C19.5,20.7,19.5,20.7,19.4,20.8L19.4,20.8z M19.6,21.9L19.6,21.9l0.1-0.1c0.1-0.1,0.1-0.1,0.2-0.2l0,0c0.1-0.1,0.1-0.1,0.2-0.2v0
	c0.1-0.1,0.1-0.1,0.2-0.2l0,0c0.1-0.1,0.1-0.2,0.2-0.2l0,0c0.1-0.1,0.1-0.2,0.2-0.2l0,0c0-0.1,0.1-0.2,0.1-0.2l0,0
	c0-0.1,0.1-0.2,0.1-0.3l0-0.1c0-0.1,0.1-0.2,0.1-0.3l0,0c0-0.1,0.1-0.2,0.1-0.3l0,0v0h1.6h0C22,20.5,20.9,21.4,19.6,21.9L19.6,21.9z
	 M23.2,18.5h-1.7l0,0l0-0.1l0-0.1c0-0.1,0-0.1,0-0.2v0c0-0.1,0-0.1,0-0.2l0-0.1c0,0,0-0.1,0-0.1l0-0.1c0,0,0-0.1,0-0.1v-0.1
	c0-0.1,0-0.1,0-0.2v0c0-0.1,0-0.1,0-0.2v-0.1c0,0,0-0.1,0-0.1v0h1.9C23.6,17.3,23.4,17.9,23.2,18.5L23.2,18.5z M23.6,15.8h-1.9v0
	c0-0.1,0-0.1,0-0.2v-0.1c0-0.1,0-0.1,0-0.2v-0.1c0-0.1,0-0.1,0-0.2v0c0-0.1,0-0.1,0-0.2l0-0.1c0-0.1,0-0.1,0-0.2l0-0.1
	c0-0.1,0-0.1,0-0.2c0-0.1,0-0.1,0-0.2l0-0.1c0-0.1,0-0.1,0-0.2l0,0h1.7C23.4,14.5,23.6,15.2,23.6,15.8L23.6,15.8z M21.2,13L21.2,13
	L21.2,13c0-0.1-0.1-0.2-0.1-0.3l0,0c0-0.1-0.1-0.2-0.1-0.3l0-0.1c0-0.1-0.1-0.2-0.1-0.2l0,0c0-0.1-0.1-0.2-0.1-0.2l0,0
	c0-0.1-0.1-0.2-0.1-0.2l0,0c0-0.1-0.1-0.2-0.2-0.2l0,0c-0.1-0.1-0.1-0.2-0.2-0.2l0,0c-0.1-0.1-0.1-0.1-0.2-0.2l0,0
	c-0.1-0.1-0.1-0.1-0.2-0.2l0,0l0-0.1l0,0c1.3,0.5,2.4,1.4,3.1,2.5L21.2,13z"/>
</svg>
